<?xml version="1.0" standalone="no"?>
<!DOCTYPE svg PUBLIC "-//W3C//DTD SVG 1.1//EN" "http://www.w3.org/Graphics/SVG/1.1/DTD/svg11.dtd" >
<svg>
<metadata>
Created by FontForge 20090914 at Fri Feb 24 15:41:33 2012
 By root
Copyright (c) 2010 by Jos&#194;&#142; Nicol&#194;&#135;s Silva Schwarzenberg.&#60;info@nsilva.com&#62;, with Reserved Font Names "Poly".
</metadata>
<defs>
<font id="Poly-Regular" horiz-adv-x="519" >
  <font-face 
    font-family="Poly"
    font-weight="400"
    font-stretch="normal"
    units-per-em="1000"
    panose-1="2 4 5 3 5 4 0 0 0 4"
    ascent="800"
    descent="-200"
    x-height="473"
    cap-height="693"
    bbox="-236 -223 1259 919"
    underline-thickness="50"
    underline-position="-50"
    unicode-range="U+0020-U+FB04"
  />
<missing-glyph horiz-adv-x="520" 
d="M30 0v679h460v-679h-460zM79 46h362v587h-362v-587z" />
    <glyph glyph-name="_fk" unicode="fk" horiz-adv-x="919" 
d="M51 0l-6 39c70 15 70 26 70 57v309h-65l-4 43l49 12c19 5 21 17 22 35c11 133 72 277 287 277c34 0 91 -4 123 -9l17 -26v-506l172 161c8 8 8 12 8 17c0 12 -26 19 -69 25l6 39h199l4 -39c-46 -7 -51 -12 -55 -16l-137 -131l145 -207c18 -25 39 -37 92 -41l-6 -39h-139
l-155 226l-65 -62v-92c0 -12 2 -16 20 -21l44 -12l-4 -39h-214l-6 39c70 15 70 26 70 57v581c0 16 -6 25 -16 31c-19 13 -54 14 -65 14c-117 0 -168 -100 -168 -256h118l-8 -47l-110 -15v-332c0 -12 2 -18 22 -21l65 -12l-4 -39h-237z" />
    <glyph glyph-name="_fb" unicode="fb" horiz-adv-x="894" 
d="M51 0l-6 39c70 15 70 26 70 57v309h-65l-4 43l49 12c19 5 21 17 22 35c11 133 72 277 287 277c28 0 75 -4 102 -9l17 -26v-256c0 -25 -1 -58 -7 -78l8 -3l10 13c30 39 80 75 143 75c99 0 181 -87 181 -240c0 -148 -77 -257 -231 -257c-80 0 -164 29 -194 43v643
c0 16 -6 25 -16 31c-13 13 -37 14 -44 14c-117 0 -168 -100 -168 -256h118l-8 -47l-110 -15v-332c0 -12 2 -18 22 -21l65 -12l-4 -39h-237zM523 84c26 -22 66 -36 116 -36c28 0 61 4 81 27c22 26 41 87 41 160c0 125 -53 181 -111 181c-25 0 -62 -10 -100 -35
c-23 -15 -27 -24 -27 -45v-252z" />
    <glyph glyph-name="_fh" unicode="fh" horiz-adv-x="946" 
d="M51 0l-6 39c70 15 70 26 70 57v309h-65l-4 43l49 12c19 5 21 17 22 35c11 133 72 277 287 277c34 0 91 -4 123 -9l17 -26v-256c0 -25 -1 -58 -7 -78l8 -3l12 14c32 38 86 74 155 74c89 0 142 -55 142 -146v-270c0 -12 2 -16 20 -21l49 -12l-4 -39h-214l-6 39
c64 13 65 26 65 57v216c0 52 -11 104 -86 104c-35 0 -76 -15 -111 -39c-16 -11 -23 -17 -23 -48v-257c0 -12 2 -16 20 -21l44 -12l-4 -39h-214l-6 39c70 15 70 26 70 57v581c0 16 -6 25 -16 31c-19 13 -54 14 -65 14c-117 0 -168 -100 -168 -256h118l-8 -47l-110 -15v-332
c0 -12 2 -18 22 -21l65 -12l-4 -39h-237z" />
    <glyph glyph-name="fi" unicode="fi" horiz-adv-x="660" 
d="M397 0l-6 39c70 15 70 26 70 57v287c0 29 -21 40 -69 40c-30 0 -120 -6 -187 -12v-339c0 -12 2 -18 22 -21l65 -12l-4 -39h-237l-6 39c70 15 70 26 70 57v309h-65l-4 43l49 12c19 5 21 17 22 35c5 62 32 277 246 277c54 0 108 -14 135 -22c0 -42 -7 -90 -17 -121l-54 -6
c-14 73 -17 82 -24 85c-10 5 -45 11 -66 11c-94 0 -132 -123 -132 -246h118c115 0 193 5 217 5l11 -10v-396c0 -12 1 -16 20 -21l49 -12l-4 -39h-219z" />
    <glyph glyph-name="fl" unicode="fl" horiz-adv-x="653" 
d="M527 763l17 -26v-665c0 -12 0 -16 20 -21l49 -12l-4 -39h-219l-6 39c70 15 70 26 70 57v581c0 16 -6 25 -16 31c-19 13 -55 14 -65 14c-117 0 -168 -100 -168 -256h118l-8 -47l-110 -15v-332c0 -12 2 -18 22 -21l65 -12l-4 -39h-237l-6 39c70 15 70 26 70 57v309h-65
l-4 43l49 12c19 5 21 17 22 35c11 133 72 277 287 277c34 0 91 -4 123 -9z" />
    <glyph glyph-name="_fj" unicode="fj" horiz-adv-x="630" 
d="M450 68v315c0 29 -21 40 -69 40c-28 0 -113 -6 -176 -12v-339c0 -12 2 -18 22 -21l65 -12l-4 -39h-237l-6 39c70 15 70 26 70 57v309h-65l-4 43l49 12c19 5 21 17 22 35c5 62 32 277 246 277c54 0 108 -14 135 -22c0 -42 -7 -90 -17 -121l-54 -6c-14 73 -17 82 -24 85
c-10 5 -45 11 -66 11c-94 0 -132 -123 -132 -246h118c109 0 183 5 206 5l11 -10v-430c0 -132 -99 -257 -164 -257c-35 0 -53 3 -76 7c-2 8 -3 16 -3 24c0 20 6 40 17 58c28 -7 47 -10 62 -10c13 0 23 2 29 7c29 19 45 110 45 201z" />
    <glyph glyph-name="ff" unicode="ff" horiz-adv-x="686" 
d="M541 404v-332c0 -12 0 -16 20 -21l49 -12l-4 -39h-219l-6 39c70 15 70 26 70 57v314c-29 0 -182 0 -246 -6v-332c0 -12 2 -18 22 -21l65 -12l-4 -39h-237l-6 39c70 15 70 26 70 57v309h-65l-4 43l49 12c19 5 21 17 22 35c5 56 31 247 196 247c42 0 89 -14 110 -22
c0 -39 -6 -83 -14 -111l-49 -6c-14 64 -17 71 -24 75c-5 5 -29 11 -41 11c-67 0 -90 -105 -90 -223h216c28 0 31 17 32 35c3 47 17 271 192 271c45 0 93 -15 114 -23c0 -42 -4 -90 -13 -121l-53 -5c-16 79 -17 81 -24 86c-8 5 -28 10 -42 10c-62 0 -86 -101 -86 -253h118
l-8 -47z" />
    <glyph glyph-name="_TT" unicode="TT" horiz-adv-x="1091" 
d="M1075 693c4 -33 9 -81 9 -133c0 -14 0 -28 -1 -43l-51 -4c-20 111 -30 117 -40 121c-7 3 -10 5 -141 7v-564c0 -12 1 -23 20 -26l77 -12l-4 -39h-275l-6 39c88 14 91 23 91 62v540h-417v-564c0 -12 1 -23 20 -26l77 -12l-4 -39h-275l-6 39c88 14 91 23 91 62v540
c-131 -2 -134 -4 -141 -7c-10 -4 -20 -10 -40 -121l-51 4c-1 15 -1 29 -1 43c0 52 5 100 9 133h1059z" />
    <glyph glyph-name="_ft" unicode="ft" horiz-adv-x="700" 
d="M423 749c0 -42 -4 -90 -13 -121l-53 -5c-16 79 -17 81 -24 86c-8 5 -28 10 -42 10c-62 0 -86 -101 -86 -253h200c16 0 31 6 35 23c0 17 12 49 24 112l61 6v-141h138l-8 -47l-130 -15v-237c0 -49 8 -104 64 -104c24 0 52 12 76 30l21 -29c-28 -38 -73 -73 -132 -73
c-74 0 -119 55 -119 146v275c-54 0 -170 -2 -230 -8v-332c0 -12 2 -18 22 -21l75 -12l-4 -39h-247l-6 39c70 15 70 26 70 57v309h-65l-4 43l49 12c19 5 21 17 22 35c3 54 17 277 192 277c45 0 93 -15 114 -23z" />
    <glyph glyph-name="_f_iacute" unicode="f&#xed;" horiz-adv-x="660" 
d="M403 749c0 -39 -4 -83 -13 -111l-53 -5c-15 67 -17 72 -24 76c-8 5 -20 10 -37 10c-56 0 -71 -98 -71 -246h118c115 0 193 5 217 5l11 -10v-396c0 -12 1 -16 20 -21l49 -12l-4 -39h-219l-6 39c70 15 70 26 70 57v287c0 29 -21 40 -69 40c-30 0 -120 -6 -187 -12v-339
c0 -12 2 -18 22 -21l65 -12l-4 -39h-237l-6 39c70 15 70 26 70 57v309h-65l-4 43l49 12c19 5 21 17 22 35c3 54 15 277 172 277c45 0 93 -15 114 -23zM651 735v-23l-152 -151l-35 25l107 179z" />
    <glyph glyph-name="ffi" unicode="ffi" horiz-adv-x="996" 
d="M733 0l-6 39c70 15 70 26 70 57v287c0 29 -21 40 -69 40c-30 0 -120 -6 -187 -12v-339c0 -12 0 -16 20 -21l67 -12l-4 -39h-237l-6 39c70 15 70 26 70 57v321c-29 0 -182 0 -246 -6v-339c0 -12 2 -18 22 -21l65 -12l-4 -39h-237l-6 39c70 15 70 26 70 57v309h-65l-4 43
l49 12c19 5 21 17 22 35c5 56 31 247 196 247c42 0 89 -14 110 -22c0 -39 -6 -83 -14 -111l-49 -6c-14 64 -17 71 -24 75c-5 5 -29 11 -41 11c-67 0 -90 -102 -90 -216h216c29 0 32 16 33 36c8 74 44 263 245 263c54 0 108 -14 135 -22c0 -42 -7 -90 -17 -121l-54 -6
c-14 73 -17 82 -24 85c-10 5 -45 11 -66 11c-94 0 -132 -123 -132 -246h118c115 0 193 5 217 5l11 -10v-396c0 -12 0 -16 20 -21l49 -12l-4 -39h-219z" />
    <glyph glyph-name="ffl" unicode="ffl" horiz-adv-x="989" 
d="M863 763l17 -26v-665c0 -12 0 -16 20 -21l49 -12l-4 -39h-219l-6 39c70 15 70 26 70 57v581c0 16 -7 25 -16 31c-19 13 -54 14 -65 14c-117 0 -168 -100 -168 -256h118l-8 -47l-110 -15v-332c0 -12 0 -16 20 -21l67 -12l-4 -39h-237l-6 39c70 15 70 26 70 57v314
c-29 0 -182 0 -246 -6v-332c0 -12 2 -18 22 -21l65 -12l-4 -39h-237l-6 39c70 15 70 26 70 57v309h-65l-4 43l49 12c19 5 21 17 22 35c5 56 31 247 196 247c42 0 89 -14 110 -22c0 -39 -6 -83 -14 -111l-49 -6c-14 64 -18 69 -24 75s-29 11 -41 11c-67 0 -90 -105 -90 -223
h216c26 0 31 14 32 34c16 131 74 272 287 272c34 0 91 -4 123 -9z" />
    <glyph glyph-name="_ffb" unicode="ffb" horiz-adv-x="1230" 
d="M769 34v643c0 16 -6 25 -16 31c-13 13 -37 14 -44 14c-117 0 -168 -100 -168 -256h118l-8 -47l-110 -15v-332c0 -12 0 -17 20 -21l67 -12l-4 -39h-237l-6 39c70 15 70 26 70 57v314c-29 0 -182 0 -246 -6v-332c0 -12 2 -18 22 -21l65 -12l-4 -39h-237l-6 39
c70 15 70 26 70 57v309h-65l-4 43l49 12c19 5 21 17 22 35c5 56 31 247 196 247c42 0 89 -14 110 -22c0 -39 -6 -83 -14 -111l-49 -6c-14 64 -18 70 -24 75c-6 4 -29 11 -41 11c-67 0 -90 -105 -90 -223h216c23 0 31 14 32 31c17 132 73 275 287 275c28 0 75 -4 102 -9
l17 -26v-256c0 -25 -1 -58 -7 -78l8 -3l10 13c30 39 78 75 143 75c99 0 181 -87 181 -240c0 -148 -77 -257 -231 -257c-80 0 -164 29 -194 43zM859 336v-252c26 -22 66 -36 116 -36c28 0 60 4 81 27c22 26 41 87 41 160c0 125 -53 181 -111 181c-25 0 -62 -10 -100 -35
c-23 -15 -27 -24 -27 -45z" />
    <glyph glyph-name="_ffk" unicode="ffk" horiz-adv-x="1255" 
d="M880 231l172 161c8 8 8 12 8 17c0 12 -26 19 -69 25l6 39h199l4 -39c-46 -7 -51 -12 -55 -16l-137 -131l145 -207c18 -26 39 -37 92 -41l-6 -39h-139l-155 226l-65 -62v-92c0 -12 0 -16 20 -21l44 -12l-4 -39h-214l-6 39c70 15 70 26 70 57v581c0 16 -6 25 -16 31
c-19 13 -54 14 -65 14c-117 0 -168 -100 -168 -256h118l-8 -47l-110 -15v-332c0 -12 0 -16 20 -21l67 -12l-4 -39h-237l-6 39c70 15 70 26 70 57v314c-29 0 -182 0 -246 -6v-332c0 -12 2 -18 22 -21l65 -12l-4 -39h-237l-6 39c70 15 70 26 70 57v309h-65l-4 43l49 12
c19 5 21 17 22 35c5 56 31 247 196 247c42 0 89 -14 110 -22c0 -39 -6 -83 -14 -111l-49 -6c-14 64 -18 70 -24 75c-6 4 -29 11 -41 11c-67 0 -90 -105 -90 -223h216c23 0 31 14 32 31c17 132 73 275 287 275c34 0 91 -4 123 -9l17 -26v-506z" />
    <glyph glyph-name="_ffh" unicode="ffh" horiz-adv-x="1282" 
d="M880 481c0 -25 -1 -58 -7 -78l8 -3l12 14c32 38 86 74 155 74c89 0 142 -55 142 -146v-270c0 -12 0 -16 20 -21l49 -12l-4 -39h-214l-6 39c64 13 65 26 65 57v216c0 52 -11 104 -86 104c-35 0 -76 -15 -111 -39c-16 -11 -23 -17 -23 -48v-257c0 -12 0 -16 20 -21l44 -12
l-4 -39h-214l-6 39c70 15 70 26 70 57v581c0 16 -6 25 -16 31c-19 13 -54 14 -65 14c-117 0 -168 -100 -168 -256h118l-8 -47l-110 -15v-332c0 -12 0 -16 20 -21l67 -12l-4 -39h-237l-6 39c70 15 70 26 70 57v314c-29 0 -182 0 -246 -6v-332c0 -12 2 -18 22 -21l65 -12
l-4 -39h-237l-6 39c70 15 70 26 70 57v309h-65l-4 43l49 12c19 5 21 17 22 35c5 56 31 247 196 247c42 0 89 -14 110 -22c0 -39 -6 -83 -14 -111l-49 -6c-14 64 -18 70 -24 75c-6 4 -29 11 -41 11c-67 0 -90 -105 -90 -223h216c23 0 31 14 32 31c17 132 73 275 287 275
c34 0 91 -4 123 -9l17 -26v-256z" />
    <glyph glyph-name="_fft" unicode="fft" horiz-adv-x="1036" 
d="M541 466h200c16 0 27 6 35 23c0 17 12 49 24 112l61 6v-141h138l-8 -47l-130 -15v-237c0 -49 8 -104 64 -104c24 0 52 12 76 30l21 -29c-28 -38 -73 -73 -132 -73c-74 0 -119 55 -119 146v275c-54 0 -170 -2 -230 -8v-332c0 -12 2 -18 22 -21l75 -12l-4 -39h-247l-6 39
c70 15 70 26 70 57v314c-29 0 -182 0 -246 -6v-332c0 -12 2 -18 22 -21l65 -12l-4 -39h-237l-6 39c70 15 70 26 70 57v309h-65l-4 43l49 12c19 5 21 17 22 35c5 56 31 247 196 247c42 0 89 -14 110 -22c0 -39 -6 -83 -14 -111l-49 -6c-14 64 -18 70 -24 75
c-6 4 -29 11 -41 11c-67 0 -90 -105 -90 -223h216c28 0 31 17 32 35c3 47 17 271 192 271c45 0 93 -15 114 -23c0 -42 -4 -90 -13 -121l-53 -5c-16 79 -17 81 -24 86c-8 5 -28 10 -42 10c-62 0 -86 -101 -86 -253z" />
    <glyph glyph-name="_ffj" unicode="ffj" horiz-adv-x="966" 
d="M876 38c0 -132 -99 -257 -164 -257c-35 0 -53 3 -76 7c-2 8 -3 16 -3 24c0 20 6 40 17 58c27 -7 46 -10 62 -10c14 0 21 2 29 7c30 19 45 110 45 201v315c0 29 -21 40 -69 40c-28 0 -113 -6 -176 -12v-339c0 -12 0 -17 20 -21l67 -12l-4 -39h-237l-6 39
c70 15 70 26 70 57v321c-29 0 -182 0 -246 -6v-339c0 -12 2 -18 22 -21l65 -12l-4 -39h-237l-6 39c70 15 70 26 70 57v309h-65l-4 43l49 12c19 5 21 17 22 35c5 56 31 247 196 247c42 0 89 -14 110 -22c0 -39 -6 -83 -14 -111l-49 -6c-14 64 -18 70 -24 75
c-6 4 -29 11 -41 11c-67 0 -90 -102 -90 -216h216c29 0 32 16 33 36c8 74 44 263 245 263c54 0 108 -14 135 -22c0 -42 -7 -90 -17 -121l-54 -6c-14 73 -17 82 -24 85c-10 5 -45 11 -66 11c-94 0 -132 -123 -132 -246h118c109 0 183 5 206 5l11 -10v-430z" />
    <glyph glyph-name=".notdef" horiz-adv-x="520" 
d="M30 0v679h460v-679h-460zM79 46h362v587h-362v-587z" />
    <glyph glyph-name="space" unicode=" " horiz-adv-x="245" 
 />
    <glyph glyph-name="F" unicode="F" horiz-adv-x="546" 
d="M50 0l-6 39c74 13 76 23 76 62v491c0 39 -2 49 -76 62l6 39h466c4 -25 6 -63 6 -79c0 -28 -1 -54 -2 -77l-57 -7c-19 94 -23 104 -34 105c-18 2 -33 3 -61 4l-151 3v-278h154c8 0 27 8 44 71l31 -3c0 -112 4 -123 14 -198l-36 -6c-21 73 -36 83 -46 83h-161v-234
c0 -12 1 -24 20 -26l101 -12l-4 -39h-284z" />
    <glyph glyph-name="E" unicode="E" horiz-adv-x="592" 
d="M50 0l-6 39c74 13 76 23 76 62v491c0 39 -2 49 -76 62l6 39h466c4 -25 6 -63 6 -79c0 -28 -1 -54 -2 -77l-57 -7c-19 94 -23 104 -34 105c-18 2 -33 3 -61 4l-151 3v-269h150c8 0 15 8 32 71l31 -3c0 -112 4 -123 14 -198l-36 -6c-21 73 -24 83 -34 83h-157v-269l89 1
c131 2 135 12 142 14c10 3 20 17 44 118l55 -5c1 -17 1 -34 1 -51c0 -53 -6 -94 -11 -128h-487z" />
    <glyph glyph-name="L" unicode="L" horiz-adv-x="558" 
d="M50 0l-6 39c74 13 76 23 76 62v491c0 39 -2 49 -76 62l6 39h245l4 -39l-62 -12c-19 -4 -20 -14 -20 -26v-565l89 1c131 2 123 5 130 7c10 3 21 22 56 154l55 -5c1 -17 1 -34 1 -51c0 -61 -6 -118 -11 -157h-487z" />
    <glyph glyph-name="H" unicode="H" horiz-adv-x="767" 
d="M50 0l-6 39c74 13 76 23 76 62v491c0 39 -2 49 -76 62l6 39h245l4 -39l-62 -12c-19 -4 -20 -14 -20 -26v-229h333v205c0 39 -2 49 -76 62l6 39h245l4 -39l-62 -12c-19 -4 -20 -14 -20 -26v-539c0 -12 1 -22 20 -26l62 -12l-4 -39h-245l-6 39c74 13 76 23 76 62v226h-333
v-250c0 -12 1 -22 20 -26l62 -12l-4 -39h-245z" />
    <glyph glyph-name="_em" horiz-adv-x="1000" 
d="M0 -222v1000h1000v-1000h-1000z" />
    <glyph glyph-name="T" unicode="T" horiz-adv-x="577" 
d="M149 39c88 14 91 23 91 62v540c-131 -2 -134 -4 -141 -7c-10 -4 -20 -10 -40 -121l-51 4c-1 15 -1 29 -1 43c0 52 5 100 9 133h545c4 -33 9 -81 9 -133c0 -14 0 -28 -1 -43l-51 -4c-20 111 -30 117 -40 121c-7 3 -10 5 -141 7v-564c0 -12 1 -23 20 -26l77 -12l-4 -39
h-275z" />
    <glyph glyph-name="N" unicode="N" horiz-adv-x="775" 
d="M598 0l-16 189h8v383c0 58 -10 72 -96 82l6 39h235l4 -39l-62 -12c-19 -4 -20 -14 -20 -26v-616h-59zM595 0l-468 693h114l406 -598l-2 -94zM50 0l-6 39c74 13 76 23 76 62v491c0 39 -2 49 -76 62l6 39h136l10 -101h-9v-492c0 -32 10 -48 44 -52l70 -9l-4 -39h-247z" />
    <glyph glyph-name="M" unicode="M" horiz-adv-x="913" 
d="M43 0l-6 39c74 13 83 23 83 62v491c0 39 -2 49 -76 62l6 39h210l192 -526c2 -6 5 -14 7 -25h10c1 8 3 15 5 20l195 531h181l4 -39l-42 -12c-17 -5 -19 -13 -19 -23v-542c0 -12 1 -22 20 -26l62 -12l-4 -39h-247l-6 39c68 12 78 23 78 54v457c0 19 1 28 3 38h-8l-211 -568
h-72l-213 570h-8v-490c0 -32 10 -46 44 -52l49 -9l-4 -39h-233z" />
    <glyph glyph-name="A" unicode="A" horiz-adv-x="670" 
d="M14 0l-7 40c51 13 53 15 63 43l224 619h83l229 -635c4 -11 16 -17 59 -25l-4 -42h-233l-6 40c46 9 70 17 70 33c0 6 -1 11 -4 21l-44 130h-259l-51 -142c-2 -6 -4 -13 -4 -15s1 -6 6 -7l71 -19l-4 -41h-189zM204 277h223l-98 281c-4 12 -7 25 -7 29h-10z" />
    <glyph glyph-name="V" unicode="V" horiz-adv-x="655" 
d="M293 -9l-223 619c-11 30 -21 32 -67 43l7 40h238l4 -41l-71 -19c-5 -1 -7 -4 -7 -7c0 -2 2 -9 4 -15l154 -453c5 -14 9 -30 9 -34h10l156 445c11 31 14 42 14 51c0 16 -27 24 -73 33l6 40h197l4 -42c-58 -12 -61 -22 -73 -56l-220 -604h-69z" />
    <glyph glyph-name="I" unicode="I" horiz-adv-x="337" 
d="M50 0l-6 39c74 13 76 23 76 62v491c0 39 -2 49 -76 62l6 39h245l4 -39l-62 -12c-19 -4 -20 -14 -20 -26v-539c0 -12 1 -22 20 -26l62 -12l-4 -39h-245z" />
    <glyph glyph-name="i" unicode="i" horiz-adv-x="310" 
d="M47 0l-6 39c70 15 70 26 70 57v287c0 29 -19 38 -76 49l6 32c84 11 125 14 149 14l11 -10v-396c0 -12 1 -16 20 -21l49 -12l-4 -39h-219zM145 597c-32 0 -58 19 -58 59c0 31 21 56 58 56c32 0 57 -15 57 -56c0 -32 -21 -59 -57 -59z" />
    <glyph glyph-name="n" unicode="n" horiz-adv-x="596" 
d="M47 0l-6 39c70 15 70 26 70 57v288c0 31 -3 43 -76 57l6 32l129 13c10 0 22 -51 22 -77v-6l8 -3l12 14c36 42 89 74 154 74c85 0 138 -54 138 -146v-270c0 -12 1 -16 20 -21l49 -12l-4 -39h-214l-6 39c64 13 65 26 65 57v216c0 51 -11 104 -82 104
c-39 0 -75 -16 -109 -39c-15 -10 -22 -15 -22 -46v-258c0 -16 4 -18 20 -22l44 -12l-4 -39h-214z" />
    <glyph glyph-name="h" unicode="h" horiz-adv-x="596" 
d="M40 0l-6 39c70 15 70 26 70 57v581c0 29 -19 38 -76 49l6 32c84 11 125 14 149 14l11 -10v-281c0 -25 -1 -58 -7 -78l8 -3l12 14c32 38 86 74 155 74c89 0 142 -55 142 -146v-270c0 -12 1 -16 20 -21l49 -12l-4 -39h-214l-6 39c64 13 65 26 65 57v216
c0 52 -11 104 -86 104c-35 0 -76 -15 -111 -39c-16 -11 -23 -17 -23 -48v-257c0 -12 1 -16 20 -21l44 -12l-4 -39h-214z" />
    <glyph glyph-name="p" unicode="p" horiz-adv-x="557" 
d="M96 -114v498c0 31 -3 43 -76 57l6 32c38 4 126 13 129 13c9 0 24 -47 24 -73v-10l8 -3l10 13c30 39 79 75 143 75c99 0 181 -88 181 -238c0 -148 -79 -259 -224 -259c-46 0 -89 11 -108 26l-7 -3c2 -11 4 -29 4 -44v-108c0 -12 1 -18 20 -21l91 -12l-4 -39h-261l-6 39
c70 15 70 26 70 57zM186 97c20 -24 56 -49 128 -49c14 0 44 1 68 28c26 29 42 85 42 156c0 128 -53 184 -109 184c-27 0 -70 -13 -102 -34c-22 -15 -27 -27 -27 -46v-239z" />
    <glyph glyph-name="l" unicode="l" horiz-adv-x="303" 
d="M40 0l-6 39c70 15 70 26 70 57v581c0 29 -19 38 -76 49l6 32c84 11 125 14 149 14l11 -10v-690c0 -12 1 -16 20 -21l49 -12l-4 -39h-219z" />
    <glyph glyph-name="b" unicode="b" horiz-adv-x="544" 
d="M83 34v643c0 29 -19 38 -76 49l6 32c84 11 125 14 149 14l11 -10v-281c0 -25 -1 -58 -7 -78l8 -3l10 13c30 39 79 75 143 75c99 0 181 -87 181 -240c0 -148 -77 -257 -231 -257c-80 0 -164 29 -194 43zM173 84c26 -22 66 -36 116 -36c27 0 61 4 81 27c23 26 41 87 41 160
c0 125 -53 181 -111 181c-25 0 -62 -10 -100 -35c-23 -15 -27 -24 -27 -45v-252z" />
    <glyph glyph-name="m" unicode="m" horiz-adv-x="859" 
d="M47 0l-6 39c70 15 70 26 70 57v288c0 31 -3 43 -76 57l6 32l129 13c10 0 22 -49 22 -77v-6l7 -3l10 13c31 40 85 75 145 75c61 0 105 -30 122 -86l7 -1l11 14c32 41 84 73 143 73c81 0 130 -55 130 -146v-270c0 -12 1 -16 20 -21l49 -12l-4 -39h-214l-6 39
c64 13 65 26 65 57v227c0 48 -15 93 -75 93c-31 0 -66 -18 -98 -39c-14 -9 -20 -15 -20 -46v-259c0 -12 1 -16 20 -21l44 -12l-4 -39h-209l-6 39c64 13 65 26 65 57v227c0 48 -15 93 -75 93c-31 0 -66 -18 -98 -39c-14 -9 -20 -15 -20 -46v-259c0 -12 1 -16 20 -21l44 -12
l-4 -39h-214z" />
    <glyph glyph-name="u" unicode="u" horiz-adv-x="577" 
d="M92 124v264c0 29 -19 38 -76 49l6 32c84 11 125 14 149 14l11 -10v-306c0 -51 11 -104 79 -104c32 0 68 12 106 39c16 11 21 18 21 46v240c0 29 -19 38 -76 49l6 32c84 11 125 14 149 14l11 -10v-374c0 -31 3 -43 76 -57l-6 -32l-129 -14c-10 -1 -22 50 -22 74v6l-8 3
l-12 -14c-36 -42 -83 -74 -154 -74c-78 0 -131 39 -131 133z" />
    <glyph glyph-name="d" unicode="d" horiz-adv-x="569" 
d="M217 -9c-99 0 -181 88 -181 238c0 148 79 259 224 259c46 0 88 -11 108 -26l7 3c-2 8 -4 29 -4 44v168c0 29 -25 40 -94 49l6 32c84 11 143 14 167 14l11 -10v-664c0 -31 3 -43 76 -57l-6 -32l-120 -13c-13 0 -34 31 -34 61c0 6 0 11 1 19l-8 3l-10 -13
c-30 -39 -79 -75 -143 -75zM242 63c27 0 70 13 102 34c22 15 27 27 27 46v239c-20 24 -56 49 -128 49c-14 0 -44 -1 -68 -28c-26 -29 -42 -85 -42 -156c0 -128 53 -184 109 -184z" />
    <glyph glyph-name="q" unicode="q" horiz-adv-x="543" 
d="M217 -9c-99 0 -181 87 -181 240c0 148 77 257 231 257c80 0 164 -29 194 -43v-583c0 -12 1 -16 20 -21l49 -12l-4 -39h-260l-6 39c104 13 111 31 111 62v107c0 25 1 58 7 78l-8 3l-10 -13c-30 -39 -79 -75 -143 -75zM244 63c25 0 62 10 100 35c23 15 27 24 27 45v252
c-26 22 -66 36 -116 36c-27 0 -61 -4 -81 -27c-23 -26 -41 -87 -41 -160c0 -125 53 -181 111 -181z" />
    <glyph glyph-name="a" unicode="a" horiz-adv-x="512" 
d="M42 123c0 97 76 148 272 150v32c0 73 -22 130 -94 130c-19 0 -49 -4 -57 -13c-6 -7 -17 -45 -24 -85l-54 6c-6 23 -8 50 -8 76c0 11 0 22 1 32c40 25 109 37 167 37c111 0 159 -44 159 -159v-230c0 -31 3 -43 76 -57l-6 -32l-120 -13c-13 0 -32 30 -32 60c0 6 0 11 1 19
l-8 3l-12 -18c-23 -34 -66 -70 -129 -70c-70 0 -132 45 -132 132zM139 132c0 -50 29 -73 69 -73c36 0 65 20 83 34s23 24 23 38v98c-117 -2 -175 -27 -175 -97z" />
    <glyph glyph-name="e" unicode="e" horiz-adv-x="478" 
d="M34 230c0 143 90 258 233 258c124 0 173 -86 178 -209l-26 -19l-290 -16c0 -144 72 -185 158 -185c46 0 92 12 135 34l21 -33c-36 -29 -112 -69 -197 -69c-142 0 -212 113 -212 239zM132 290l207 18c9 1 10 9 10 19c0 47 -20 108 -102 108s-107 -61 -115 -145z" />
    <glyph glyph-name="o" unicode="o" horiz-adv-x="520" 
d="M32 232c0 153 84 256 234 256c142 0 222 -93 222 -242c0 -153 -84 -255 -234 -255c-142 0 -222 92 -222 241zM269 44c27 0 62 7 82 30c23 26 40 89 40 158c0 113 -45 203 -140 203c-27 0 -62 -7 -82 -30c-23 -26 -40 -89 -40 -158c0 -113 45 -203 140 -203z" />
    <glyph glyph-name="c" unicode="c" horiz-adv-x="468" 
d="M34 236c0 115 50 252 237 252c75 0 131 -22 146 -28c1 -8 1 -17 1 -28c0 -35 -4 -81 -12 -109l-56 -6c-15 93 -21 103 -30 107c-14 6 -55 9 -75 9c-36 0 -61 -10 -79 -37c-21 -32 -35 -90 -35 -151c0 -138 71 -186 152 -186c45 0 92 15 134 44l28 -33
c-35 -34 -101 -79 -195 -79c-146 0 -216 109 -216 245z" />
    <glyph glyph-name="s" unicode="s" horiz-adv-x="437" 
d="M57 15c-2 13 -2 27 -2 41c0 36 4 73 9 99l52 4c10 -88 12 -92 21 -97c16 -9 48 -18 84 -18c29 0 47 6 59 16c15 12 22 30 22 49c0 56 -64 77 -127 105c-60 27 -118 60 -118 134c0 83 74 140 184 140c56 0 98 -15 122 -25c1 -8 1 -16 1 -24c0 -28 -6 -77 -13 -99l-46 -5
c-6 69 -11 81 -20 87c-14 10 -37 13 -61 13c-34 0 -56 -6 -68 -16c-10 -8 -20 -23 -20 -44c0 -52 64 -73 127 -101c64 -28 125 -61 125 -136c0 -80 -68 -147 -189 -147c-57 0 -121 15 -142 24z" />
    <glyph glyph-name="v" unicode="v" horiz-adv-x="496" 
d="M211 -9l-158 407c-9 25 -10 26 -53 36l6 39h206l4 -39l-61 -15c-5 -1 -7 -5 -7 -8c0 -2 2 -7 4 -13l90 -252c10 -29 12 -39 12 -55h8l111 284c3 8 6 16 6 24c0 18 -21 25 -66 35l6 39h178l4 -39c-42 -10 -45 -11 -47 -17l-178 -426h-65z" />
    <glyph glyph-name="g" unicode="g" horiz-adv-x="554" 
d="M392 422l-13 31c41 21 96 36 134 37c6 -10 10 -32 10 -50c0 -9 -1 -17 -3 -23c-21 5 -46 8 -72 8c-19 0 -36 0 -56 -3zM256 162c-101 0 -182 49 -182 159c0 115 89 167 194 167c103 0 182 -51 182 -159c0 -115 -89 -167 -194 -167zM265 211c63 0 93 38 93 110
c0 74 -31 118 -99 118c-63 0 -93 -38 -93 -110c0 -74 31 -118 99 -118zM74 61c0 59 56 111 97 137l15 -14c-23 -24 -39 -56 -39 -79c0 -41 53 -41 103 -41c110 0 235 -1 235 -106c0 -91 -96 -177 -266 -177c-69 0 -164 14 -164 94c0 50 36 81 76 110c-32 10 -57 36 -57 76z
M160 -24c-20 -22 -28 -52 -28 -71c0 -38 32 -74 125 -74c118 0 160 58 160 93c0 60 -127 26 -257 52z" />
    <glyph glyph-name="r" unicode="r" horiz-adv-x="432" 
d="M40 0l-6 39c76 13 77 26 77 57v288c0 31 -3 45 -83 57l6 32l136 13c9 0 23 -31 23 -64c0 -16 -3 -40 -4 -47l8 -3l13 29c25 55 79 87 132 87c16 0 40 -3 66 -16c0 -37 -4 -104 -15 -164l-49 -5c-6 67 -12 90 -18 98c-4 6 -10 9 -20 9c-35 0 -73 -33 -88 -51
c-14 -16 -17 -29 -17 -61v-226c0 -12 1 -18 20 -21l91 -12l-4 -39h-268z" />
    <glyph glyph-name="w" unicode="w" horiz-adv-x="754" 
d="M207 -9l-145 407c-9 25 -10 26 -54 36l6 39h185l4 -39l-44 -14c-5 -1 -7 -4 -7 -7c0 -2 2 -7 4 -13l92 -288c2 -5 4 -19 4 -24v-4h8c0 5 3 18 8 30l91 227l-19 57c-8 25 -12 27 -44 36l6 39h164l4 -39l-44 -14c-5 -1 -7 -4 -7 -7c0 -2 2 -7 4 -13l91 -288
c2 -6 4 -19 4 -24v-4h8c0 5 4 18 8 30l91 261c3 8 6 16 6 24c0 18 -21 23 -53 35l6 39h164l4 -39c-42 -10 -45 -11 -47 -17l-166 -426h-65l-82 252c-4 12 -5 17 -5 27h-8c0 -11 -4 -21 -6 -26l-101 -253h-65z" />
    <glyph glyph-name="y" unicode="y" horiz-adv-x="500" 
d="M29 -117c16 -2 41 -3 64 -3c26 0 52 3 67 9c14 6 35 31 63 111l-166 398c-10 25 -10 26 -53 36l6 39h206l4 -39l-61 -15c-5 -1 -7 -5 -7 -8c0 -2 2 -7 4 -13l102 -267c4 -11 5 -26 5 -31h8l106 275c3 8 6 16 6 24c0 18 -21 25 -66 35l6 39h178l4 -39
c-42 -10 -44 -11 -47 -17l-158 -392c-55 -137 -91 -216 -247 -244c-14 14 -26 48 -26 82c0 6 1 13 2 20z" />
    <glyph glyph-name="k" unicode="k" horiz-adv-x="569" 
d="M40 0l-6 39c70 15 70 26 70 57v581c0 29 -19 38 -76 49l6 32c84 11 125 14 149 14l11 -10v-531l172 161c7 8 8 12 8 17c0 12 -26 19 -69 25l6 39h199l4 -39c-46 -7 -51 -12 -55 -16l-137 -131l145 -207c20 -24 39 -37 92 -41l-6 -39h-139l-155 226l-65 -62v-92
c0 -12 1 -16 20 -21l44 -12l-4 -39h-214z" />
    <glyph glyph-name="x" unicode="x" horiz-adv-x="554" 
d="M16 0l-4 39c46 7 53 10 57 14l157 184l-143 171c-5 6 -11 11 -20 14l-36 12l4 39h198l6 -39l-31 -7c-11 -3 -13 -7 -13 -12s5 -13 15 -25l79 -95l78 97c5 6 7 12 7 16c0 16 -25 22 -45 26l6 39h186l4 -39c-46 -7 -51 -12 -55 -16l-143 -169l154 -184c5 -6 11 -11 20 -14
l36 -12l-4 -39h-198l-6 39l31 7c11 3 13 7 13 12s-5 13 -15 25l-92 110l-92 -112c-5 -6 -7 -12 -7 -16c0 -16 25 -22 45 -26l-6 -39h-186z" />
    <glyph glyph-name="z" unicode="z" horiz-adv-x="443" 
d="M28 0v26l253 366c7 9 13 19 22 23l-2 7h-114c-18 0 -48 -1 -66 -3c-10 -1 -13 -12 -31 -84l-46 5c-1 16 -2 34 -2 54c0 16 2 54 6 79h366v-28l-250 -364c-6 -9 -13 -19 -22 -23l2 -7l49 1c53 1 119 5 127 7c9 2 20 11 40 99l52 -4c-1 -47 -5 -106 -11 -154h-373z" />
    <glyph glyph-name="f" unicode="f" horiz-adv-x="350" 
d="M51 0l-6 39c70 15 70 26 70 57v309h-65l-4 43l49 12c19 5 21 17 22 35c3 54 17 277 192 277c45 0 93 -15 114 -23c0 -42 -4 -90 -13 -121l-53 -5c-16 79 -17 81 -24 86c-8 5 -28 10 -42 10c-62 0 -86 -101 -86 -253h118l-8 -47l-110 -15v-332c0 -12 2 -18 22 -21l75 -12
l-4 -39h-247z" />
    <glyph glyph-name="j" unicode="j" horiz-adv-x="280" 
d="M100 68v315c0 29 -19 38 -76 49l6 32c84 11 125 14 149 14l11 -10v-430c0 -132 -99 -257 -164 -257c-35 0 -53 3 -76 7c-2 8 -3 16 -3 24c0 20 6 40 17 58c28 -7 47 -10 62 -10c13 0 22 2 29 7c29 19 45 110 45 201zM134 597c-32 0 -58 19 -58 59c0 31 21 56 58 56
c32 0 57 -15 57 -56c0 -32 -21 -59 -57 -59z" />
    <glyph glyph-name="t" unicode="t" horiz-adv-x="350" 
d="M85 137v275h-65l-4 43l49 12c25 6 26 8 49 134l61 6v-134h139l-8 -47l-131 -15v-244c0 -49 9 -104 64 -104c25 0 52 12 76 30l21 -29c-28 -38 -73 -73 -132 -73c-74 0 -119 55 -119 146z" />
    <glyph glyph-name="O" unicode="O" horiz-adv-x="711" 
d="M35 338c0 217 120 364 328 364c202 0 313 -135 313 -338c0 -223 -120 -373 -328 -373c-202 0 -313 138 -313 347zM364 44c150 0 201 148 201 303c0 170 -72 302 -218 302c-150 0 -201 -146 -201 -294c0 -176 72 -311 218 -311z" />
    <glyph glyph-name="C" unicode="C" horiz-adv-x="620" 
d="M35 331c0 170 85 371 350 371c81 0 175 -19 196 -28c5 -31 6 -62 6 -94c0 -24 -1 -49 -2 -74l-57 -8c-16 83 -28 120 -39 128c-10 8 -68 23 -121 23c-153 0 -222 -127 -222 -294c0 -222 120 -308 247 -308c58 0 105 18 114 25c8 6 14 19 34 128l55 -2
c0 -52 -6 -123 -11 -162c-36 -19 -127 -45 -221 -45c-228 0 -329 155 -329 340z" />
    <glyph glyph-name="D" unicode="D" horiz-adv-x="713" 
d="M50 0l-6 39c74 13 76 23 76 62v491c0 39 -2 49 -76 62l6 39h313c238 0 315 -164 315 -325c0 -175 -91 -368 -337 -368h-291zM217 93c0 -12 1 -22 21 -26c25 -5 64 -14 106 -14c154 0 223 122 223 290c0 232 -132 297 -227 297h-123v-547z" />
    <glyph glyph-name="B" unicode="B" horiz-adv-x="619" 
d="M50 0l-6 39c74 13 76 23 76 62v491c0 39 -2 49 -76 62l6 39h264c147 0 225 -63 225 -165c0 -92 -64 -146 -105 -159v-7c85 -16 150 -88 150 -169c0 -87 -63 -193 -242 -193h-292zM217 383h56c114 0 159 55 159 133c0 117 -100 124 -148 124h-67v-257zM217 97
c0 -14 1 -29 15 -35c3 -2 21 -10 61 -10c134 0 180 51 180 132c0 118 -94 146 -159 146h-97v-233z" />
    <glyph glyph-name="R" unicode="R" horiz-adv-x="632" 
d="M50 0l-6 39c74 13 76 23 76 62v491c0 39 -2 49 -76 62l6 39h278c148 0 211 -66 211 -168c0 -91 -55 -172 -156 -206v-5c7 -2 14 -9 22 -22l141 -212c18 -27 29 -37 82 -41l-6 -39h-142l-198 304h-65v-227c0 -12 1 -22 20 -26l55 -12l-4 -39h-238zM217 355h55
c95 0 160 30 160 161c0 107 -79 124 -135 124h-60c-19 0 -20 -12 -20 -24v-261z" />
    <glyph glyph-name="P" unicode="P" horiz-adv-x="559" 
d="M50 0l-6 39c74 13 76 23 76 62v491c0 39 -2 49 -76 62l6 39h279c146 0 212 -79 212 -189c0 -127 -86 -236 -272 -236h-52v-191c0 -12 1 -24 20 -26l101 -12l-4 -39h-284zM217 321h44c78 0 173 28 173 167c0 129 -82 152 -135 152h-62c-19 0 -20 -12 -20 -24v-295z" />
    <glyph glyph-name="K" unicode="K" horiz-adv-x="652" 
d="M50 0l-6 39c74 13 76 23 76 62v491c0 39 -2 49 -76 62l6 39h245l4 -39l-62 -12c-19 -4 -20 -14 -20 -26v-264l241 256c9 9 15 17 15 24c0 12 -20 19 -76 21l6 40h212l4 -42c-45 -2 -63 -28 -78 -43l-222 -236l241 -292c20 -24 39 -37 92 -41l-6 -39h-152l-243 299
l-34 -36v-186c0 -12 1 -22 20 -26l55 -12l-4 -39h-238z" />
    <glyph glyph-name="Q" unicode="Q" horiz-adv-x="711" 
d="M312 -7c-180 15 -277 148 -277 345c0 217 120 364 328 364c202 0 313 -135 313 -338c0 -176 -75 -307 -209 -354v-4c49 -17 98 -80 146 -80c19 0 37 7 58 15l23 -36c-33 -27 -70 -57 -116 -57c-98 0 -161 136 -266 145zM364 44c150 0 201 148 201 303
c0 170 -72 302 -218 302c-150 0 -201 -146 -201 -294c0 -176 72 -311 218 -311z" />
    <glyph glyph-name="acute" unicode="&#xb4;" horiz-adv-x="198" 
d="M199 735v-23l-152 -151l-35 25l107 179z" />
    <glyph glyph-name="eacute" unicode="&#xe9;" horiz-adv-x="478" 
d="M34 230c0 143 90 258 233 258c124 0 173 -86 178 -209l-26 -19l-290 -16c0 -144 72 -185 158 -185c46 0 92 12 135 34l21 -33c-36 -29 -112 -69 -197 -69c-142 0 -212 113 -212 239zM132 290l207 18c9 1 10 9 10 19c0 47 -20 108 -102 108s-107 -61 -115 -145zM395 735
v-23l-152 -151l-35 25l107 179z" />
    <glyph glyph-name="aacute" unicode="&#xe1;" horiz-adv-x="512" 
d="M42 123c0 97 76 148 272 150v32c0 73 -22 130 -94 130c-19 0 -49 -4 -57 -13c-6 -7 -17 -45 -24 -85l-54 6c-6 23 -8 50 -8 76c0 11 0 22 1 32c40 25 109 37 167 37c111 0 159 -44 159 -159v-230c0 -31 3 -43 76 -57l-6 -32l-120 -13c-13 0 -32 30 -32 60c0 6 0 11 1 19
l-8 3l-12 -18c-23 -34 -66 -70 -129 -70c-70 0 -132 45 -132 132zM139 132c0 -50 29 -73 69 -73c36 0 65 20 83 34s23 24 23 38v98c-117 -2 -175 -27 -175 -97zM376 735v-23l-152 -151l-35 25l107 179z" />
    <glyph glyph-name="oacute" unicode="&#xf3;" horiz-adv-x="520" 
d="M32 232c0 153 84 256 234 256c142 0 222 -93 222 -242c0 -153 -84 -255 -234 -255c-142 0 -222 92 -222 241zM269 44c27 0 62 7 82 30c23 26 40 89 40 158c0 113 -45 203 -140 203c-27 0 -62 -7 -82 -30c-23 -26 -40 -89 -40 -158c0 -113 45 -203 140 -203zM390 735v-23
l-152 -151l-35 25l107 179z" />
    <glyph glyph-name="uacute" unicode="&#xfa;" horiz-adv-x="577" 
d="M92 124v264c0 29 -19 38 -76 49l6 32c84 11 125 14 149 14l11 -10v-306c0 -51 11 -104 79 -104c32 0 68 12 106 39c16 11 21 18 21 46v240c0 29 -19 38 -76 49l6 32c84 11 125 14 149 14l11 -10v-374c0 -31 3 -43 76 -57l-6 -32l-129 -14c-10 -1 -22 50 -22 74v6l-8 3
l-12 -14c-36 -42 -83 -74 -154 -74c-78 0 -131 39 -131 133zM422 735v-23l-152 -151l-35 25l107 179z" />
    <glyph glyph-name="yacute" unicode="&#xfd;" horiz-adv-x="500" 
d="M29 -117c16 -2 41 -3 64 -3c26 0 52 3 67 9c14 6 35 31 63 111l-166 398c-10 25 -10 26 -53 36l6 39h206l4 -39l-61 -15c-5 -1 -7 -5 -7 -8c0 -2 2 -7 4 -13l102 -267c4 -11 5 -26 5 -31h8l106 275c3 8 6 16 6 24c0 18 -21 25 -66 35l6 39h178l4 -39
c-42 -10 -44 -11 -47 -17l-158 -392c-55 -137 -91 -216 -247 -244c-14 14 -26 48 -26 82c0 6 1 13 2 20zM418 735v-23l-152 -151l-35 25l107 179z" />
    <glyph glyph-name="iacute" unicode="&#xed;" horiz-adv-x="310" 
d="M288 735v-23l-152 -151l-35 25l107 179zM47 0l-6 39c70 15 70 26 70 57v287c0 29 -19 38 -76 49l6 32c84 11 125 14 149 14l11 -10v-396c0 -12 1 -16 20 -21l49 -12l-4 -39h-219z" />
    <glyph glyph-name="grave" unicode="`" horiz-adv-x="202" 
d="M0 712v23l80 30l107 -179l-35 -25z" />
    <glyph glyph-name="egrave" unicode="&#xe8;" horiz-adv-x="478" 
d="M34 230c0 143 90 258 233 258c124 0 173 -86 178 -209l-26 -19l-290 -16c0 -144 72 -185 158 -185c46 0 92 12 135 34l21 -33c-36 -29 -112 -69 -197 -69c-142 0 -212 113 -212 239zM132 290l207 18c9 1 10 9 10 19c0 47 -20 108 -102 108s-107 -61 -115 -145zM104 712
v23l80 30l107 -179l-35 -25z" />
    <glyph glyph-name="igrave" unicode="&#xec;" horiz-adv-x="310" 
d="M16 712v23l80 30l107 -179l-35 -25zM47 0l-6 39c70 15 70 26 70 57v287c0 29 -19 38 -76 49l6 32c84 11 125 14 149 14l11 -10v-396c0 -12 1 -16 20 -21l49 -12l-4 -39h-219z" />
    <glyph glyph-name="ograve" unicode="&#xf2;" horiz-adv-x="520" 
d="M32 232c0 153 84 256 234 256c142 0 222 -93 222 -242c0 -153 -84 -255 -234 -255c-142 0 -222 92 -222 241zM269 44c27 0 62 7 82 30c23 26 40 89 40 158c0 113 -45 203 -140 203c-27 0 -62 -7 -82 -30c-23 -26 -40 -89 -40 -158c0 -113 45 -203 140 -203zM128 712v23
l80 30l107 -179l-35 -25z" />
    <glyph glyph-name="ugrave" unicode="&#xf9;" horiz-adv-x="577" 
d="M92 124v264c0 29 -19 38 -76 49l6 32c84 11 125 14 149 14l11 -10v-306c0 -51 11 -104 79 -104c32 0 68 12 106 39c16 11 21 18 21 46v240c0 29 -19 38 -76 49l6 32c84 11 125 14 149 14l11 -10v-374c0 -31 3 -43 76 -57l-6 -32l-129 -14c-10 -1 -22 50 -22 74v6l-8 3
l-12 -14c-36 -42 -83 -74 -154 -74c-78 0 -131 39 -131 133zM138 712v23l80 30l107 -179l-35 -25z" />
    <glyph glyph-name="dieresis" unicode="&#xa8;" horiz-adv-x="308" 
d="M250 600c-30 0 -52 17 -52 56c0 28 20 54 52 54c29 0 53 -14 53 -54c0 -30 -21 -56 -53 -56zM57 600c-30 0 -52 17 -52 56c0 28 20 54 52 54c29 0 53 -14 53 -54c0 -30 -21 -56 -53 -56z" />
    <glyph glyph-name="udieresis" unicode="&#xfc;" horiz-adv-x="577" 
d="M92 124v264c0 29 -19 38 -76 49l6 32c84 11 125 14 149 14l11 -10v-306c0 -51 11 -104 79 -104c32 0 68 12 106 39c16 11 21 18 21 46v240c0 29 -19 38 -76 49l6 32c84 11 125 14 149 14l11 -10v-374c0 -31 3 -43 76 -57l-6 -32l-129 -14c-10 -1 -22 50 -22 74v6l-8 3
l-12 -14c-36 -42 -83 -74 -154 -74c-78 0 -131 39 -131 133zM369 600c-30 0 -52 17 -52 56c0 28 20 54 52 54c29 0 53 -14 53 -54c0 -30 -21 -56 -53 -56zM176 600c-30 0 -52 17 -52 56c0 28 20 54 52 54c29 0 53 -14 53 -54c0 -30 -21 -56 -53 -56z" />
    <glyph glyph-name="edieresis" unicode="&#xeb;" horiz-adv-x="478" 
d="M34 230c0 143 90 258 233 258c124 0 173 -86 178 -209l-26 -19l-290 -16c0 -144 72 -185 158 -185c46 0 92 12 135 34l21 -33c-36 -29 -112 -69 -197 -69c-142 0 -212 113 -212 239zM132 290l207 18c9 1 10 9 10 19c0 47 -20 108 -102 108s-107 -61 -115 -145zM348 600
c-30 0 -52 17 -52 56c0 28 20 54 52 54c29 0 53 -14 53 -54c0 -30 -21 -56 -53 -56zM155 600c-30 0 -52 17 -52 56c0 28 20 54 52 54c29 0 53 -14 53 -54c0 -30 -21 -56 -53 -56z" />
    <glyph glyph-name="adieresis" unicode="&#xe4;" horiz-adv-x="512" 
d="M42 123c0 97 76 148 272 150v32c0 73 -22 130 -94 130c-19 0 -49 -4 -57 -13c-6 -7 -17 -45 -24 -85l-54 6c-6 23 -8 50 -8 76c0 11 0 22 1 32c40 25 109 37 167 37c111 0 159 -44 159 -159v-230c0 -31 3 -43 76 -57l-6 -32l-120 -13c-13 0 -32 30 -32 60c0 6 0 11 1 19
l-8 3l-12 -18c-23 -34 -66 -70 -129 -70c-70 0 -132 45 -132 132zM139 132c0 -50 29 -73 69 -73c36 0 65 20 83 34s23 24 23 38v98c-117 -2 -175 -27 -175 -97zM336 600c-30 0 -52 17 -52 56c0 28 20 54 52 54c29 0 53 -14 53 -54c0 -30 -21 -56 -53 -56zM143 600
c-30 0 -52 17 -52 56c0 28 20 54 52 54c29 0 53 -14 53 -54c0 -30 -21 -56 -53 -56z" />
    <glyph glyph-name="odieresis" unicode="&#xf6;" horiz-adv-x="520" 
d="M32 232c0 153 84 256 234 256c142 0 222 -93 222 -242c0 -153 -84 -255 -234 -255c-142 0 -222 92 -222 241zM269 44c27 0 62 7 82 30c23 26 40 89 40 158c0 113 -45 203 -140 203c-27 0 -62 -7 -82 -30c-23 -26 -40 -89 -40 -158c0 -113 45 -203 140 -203zM347 600
c-30 0 -52 17 -52 56c0 28 20 54 52 54c29 0 53 -14 53 -54c0 -30 -21 -56 -53 -56zM154 600c-30 0 -52 17 -52 56c0 28 20 54 52 54c29 0 53 -14 53 -54c0 -30 -21 -56 -53 -56z" />
    <glyph glyph-name="idieresis" unicode="&#xef;" horiz-adv-x="310" 
d="M242 600c-30 0 -52 17 -52 56c0 28 20 54 52 54c29 0 53 -14 53 -54c0 -30 -21 -56 -53 -56zM49 600c-30 0 -52 17 -52 56c0 28 20 54 52 54c29 0 53 -14 53 -54c0 -30 -21 -56 -53 -56zM47 0l-6 39c70 15 70 26 70 57v287c0 29 -19 38 -76 49l6 32c84 11 125 14 149 14
l11 -10v-396c0 -12 1 -16 20 -21l49 -12l-4 -39h-219z" />
    <glyph glyph-name="ydieresis" unicode="&#xff;" horiz-adv-x="500" 
d="M29 -117c16 -2 41 -3 64 -3c26 0 52 3 67 9c14 6 35 31 63 111l-166 398c-10 25 -10 26 -53 36l6 39h206l4 -39l-61 -15c-5 -1 -7 -5 -7 -8c0 -2 2 -7 4 -13l102 -267c4 -11 5 -26 5 -31h8l106 275c3 8 6 16 6 24c0 18 -21 25 -66 35l6 39h178l4 -39
c-42 -10 -44 -11 -47 -17l-158 -392c-55 -137 -91 -216 -247 -244c-14 14 -26 48 -26 82c0 6 1 13 2 20zM361 600c-30 0 -52 17 -52 56c0 28 20 54 52 54c29 0 53 -14 53 -54c0 -30 -21 -56 -53 -56zM168 600c-30 0 -52 17 -52 56c0 28 20 54 52 54c29 0 53 -14 53 -54
c0 -30 -21 -56 -53 -56z" />
    <glyph glyph-name="W" unicode="W" horiz-adv-x="930" 
d="M591 -9l-108 364c-3 9 -5 21 -5 26h-8c0 -5 -2 -16 -6 -26l-121 -364h-71l-209 619c-10 30 -21 32 -67 43l7 40h223l4 -41l-56 -19c-5 -1 -7 -4 -7 -7c0 -2 2 -9 4 -15l139 -449c4 -14 9 -30 9 -34h10l115 364l-35 118c-9 31 -20 32 -60 43l7 40h211l4 -41l-71 -19
c-5 -1 -7 -4 -7 -7c0 -2 2 -9 4 -15l132 -449c4 -14 9 -30 9 -34h10l140 441c6 20 11 41 11 49c0 17 -25 26 -77 35l6 40h205l4 -42c-58 -12 -63 -22 -74 -56l-200 -604h-72z" />
    <glyph glyph-name="X" unicode="X" horiz-adv-x="639" 
d="M21 0l-7 40c51 13 63 16 80 41l177 260l-179 269c-18 27 -22 32 -68 43l7 40h238l4 -41l-67 -18c-5 -1 -7 -4 -7 -8s3 -10 7 -15l114 -170c8 -12 10 -23 10 -27h10l111 162c15 21 25 36 25 46c0 15 -16 21 -61 31l6 40h195l4 -42c-58 -12 -58 -22 -79 -52l-165 -241
l195 -290c9 -13 25 -18 68 -26l-4 -42h-241l-6 40c27 5 59 10 59 30c0 5 -2 12 -7 20l-112 166c-8 12 -10 26 -10 30h-10l-138 -202c-6 -8 -8 -14 -8 -18c0 -5 3 -9 10 -11l47 -14l-4 -41h-194z" />
    <glyph glyph-name="circumflex" unicode="&#x2c6;" horiz-adv-x="299" 
d="M181 755l118 -169l-35 -25l-115 118l-114 -118l-35 25l118 169h63z" />
    <glyph glyph-name="acircumflex" unicode="&#xe2;" horiz-adv-x="512" 
d="M42 123c0 97 76 148 272 150v32c0 73 -22 130 -94 130c-19 0 -49 -4 -57 -13c-6 -7 -17 -45 -24 -85l-54 6c-6 23 -8 50 -8 76c0 11 0 22 1 32c40 25 109 37 167 37c111 0 159 -44 159 -159v-230c0 -31 3 -43 76 -57l-6 -32l-120 -13c-13 0 -32 30 -32 60c0 6 0 11 1 19
l-8 3l-12 -18c-23 -34 -66 -70 -129 -70c-70 0 -132 45 -132 132zM139 132c0 -50 29 -73 69 -73c36 0 65 20 83 34s23 24 23 38v98c-117 -2 -175 -27 -175 -97zM273 755l118 -169l-35 -25l-115 118l-114 -118l-35 25l118 169h63z" />
    <glyph glyph-name="ecircumflex" unicode="&#xea;" horiz-adv-x="478" 
d="M34 230c0 143 90 258 233 258c124 0 173 -86 178 -209l-26 -19l-290 -16c0 -144 72 -185 158 -185c46 0 92 12 135 34l21 -33c-36 -29 -112 -69 -197 -69c-142 0 -212 113 -212 239zM132 290l207 18c9 1 10 9 10 19c0 47 -20 108 -102 108s-107 -61 -115 -145zM277 755
l118 -169l-35 -25l-115 118l-114 -118l-35 25l118 169h63z" />
    <glyph glyph-name="ocircumflex" unicode="&#xf4;" horiz-adv-x="520" 
d="M32 232c0 153 84 256 234 256c142 0 222 -93 222 -242c0 -153 -84 -255 -234 -255c-142 0 -222 92 -222 241zM269 44c27 0 62 7 82 30c23 26 40 89 40 158c0 113 -45 203 -140 203c-27 0 -62 -7 -82 -30c-23 -26 -40 -89 -40 -158c0 -113 45 -203 140 -203zM286 755
l118 -169l-35 -25l-115 118l-114 -118l-35 25l118 169h63z" />
    <glyph glyph-name="ucircumflex" unicode="&#xfb;" horiz-adv-x="577" 
d="M92 124v264c0 29 -19 38 -76 49l6 32c84 11 125 14 149 14l11 -10v-306c0 -51 11 -104 79 -104c32 0 68 12 106 39c16 11 21 18 21 46v240c0 29 -19 38 -76 49l6 32c84 11 125 14 149 14l11 -10v-374c0 -31 3 -43 76 -57l-6 -32l-129 -14c-10 -1 -22 50 -22 74v6l-8 3
l-12 -14c-36 -42 -83 -74 -154 -74c-78 0 -131 39 -131 133zM306 755l118 -169l-35 -25l-115 118l-114 -118l-35 25l118 169h63z" />
    <glyph glyph-name="icircumflex" unicode="&#xee;" horiz-adv-x="310" 
d="M176 755l118 -169l-35 -25l-115 118l-114 -118l-35 25l118 169h63zM47 0l-6 39c70 15 70 26 70 57v287c0 29 -19 38 -76 49l6 32c84 11 125 14 149 14l11 -10v-396c0 -12 1 -16 20 -21l49 -12l-4 -39h-219z" />
    <glyph glyph-name="period" unicode="." horiz-adv-x="252" 
d="M125 -9c-32 0 -60 19 -60 62c0 31 23 60 60 60c33 0 62 -16 62 -60c0 -33 -24 -62 -62 -62z" />
    <glyph glyph-name="colon" unicode=":" horiz-adv-x="252" 
d="M125 366c-32 0 -60 19 -60 62c0 31 23 60 60 60c33 0 62 -16 62 -60c0 -33 -24 -62 -62 -62zM125 -9c-32 0 -60 19 -60 62c0 31 23 60 60 60c33 0 62 -16 62 -60c0 -33 -24 -62 -62 -62z" />
    <glyph glyph-name="hyphen" unicode="-" horiz-adv-x="295" 
d="M46 277l218 14l-16 -62l-214 -26z" />
    <glyph glyph-name="agrave" unicode="&#xe0;" horiz-adv-x="512" 
d="M42 123c0 97 76 148 272 150v32c0 73 -22 130 -94 130c-19 0 -49 -4 -57 -13c-6 -7 -17 -45 -24 -85l-54 6c-6 23 -8 50 -8 76c0 11 0 22 1 32c40 25 109 37 167 37c111 0 159 -44 159 -159v-230c0 -31 3 -43 76 -57l-6 -32l-120 -13c-13 0 -32 30 -32 60c0 6 0 11 1 19
l-8 3l-12 -18c-23 -34 -66 -70 -129 -70c-70 0 -132 45 -132 132zM139 132c0 -50 29 -73 69 -73c36 0 65 20 83 34s23 24 23 38v98c-117 -2 -175 -27 -175 -97zM125 712v23l80 30l107 -179l-35 -25z" />
    <glyph glyph-name="endash" unicode="&#x2013;" horiz-adv-x="500" 
d="M10 271h492l-12 -53h-492z" />
    <glyph glyph-name="emdash" unicode="&#x2014;" horiz-adv-x="1000" 
d="M10 271h992l-12 -53h-992z" />
    <glyph glyph-name="underscore" unicode="_" horiz-adv-x="430" 
d="M-6 -73h442v-48h-442v48z" />
    <glyph glyph-name="semicolon" unicode=";" horiz-adv-x="252" 
d="M125 366c-32 0 -60 19 -60 62c0 31 23 60 60 60c33 0 62 -16 62 -60c0 -33 -24 -62 -62 -62zM91 -137l-27 26c32 38 41 67 41 90c0 45 -35 45 -35 82c0 34 28 52 56 52c35 0 63 -28 63 -82c0 -51 -25 -110 -98 -168z" />
    <glyph glyph-name="comma" unicode="," horiz-adv-x="252" 
d="M91 -137l-27 26c32 38 41 67 41 90c0 45 -35 45 -35 82c0 34 28 52 56 52c35 0 63 -28 63 -82c0 -51 -25 -110 -98 -168z" />
    <glyph glyph-name="quotesingle" unicode="'" horiz-adv-x="180" 
d="M125 778l13 -19l-41 -245l-43 3l-5 236z" />
    <glyph glyph-name="quoteright" unicode="&#x2019;" horiz-adv-x="215" 
d="M76 514l-27 26c31 37 47 81 47 106c0 35 -32 40 -32 73c0 29 25 47 52 47c31 0 57 -25 57 -76c0 -54 -29 -124 -97 -176z" />
    <glyph glyph-name="quoteleft" unicode="&#x2018;" horiz-adv-x="215" 
d="M139 766l27 -26c-31 -37 -47 -81 -47 -106c0 -35 32 -40 32 -73c0 -29 -25 -47 -52 -47c-31 0 -57 25 -57 76c0 54 29 124 97 176z" />
    <glyph glyph-name="quotedblright" unicode="&#x201d;" horiz-adv-x="406" 
d="M267 514l-27 26c31 37 47 81 47 106c0 35 -32 40 -32 73c0 29 25 47 52 47c31 0 57 -25 57 -76c0 -54 -29 -124 -97 -176zM76 514l-27 26c31 37 47 81 47 106c0 35 -32 40 -32 73c0 29 25 47 52 47c31 0 57 -25 57 -76c0 -54 -29 -124 -97 -176z" />
    <glyph glyph-name="quotedblleft" unicode="&#x201c;" horiz-adv-x="406" 
d="M330 766l27 -26c-31 -37 -47 -81 -47 -106c0 -35 32 -40 32 -73c0 -29 -25 -47 -52 -47c-31 0 -57 25 -57 76c0 54 29 124 97 176zM139 766l27 -26c-31 -37 -47 -81 -47 -106c0 -35 32 -40 32 -73c0 -29 -25 -47 -52 -47c-31 0 -57 25 -57 76c0 54 29 124 97 176z" />
    <glyph glyph-name="bullet" unicode="&#x2022;" horiz-adv-x="343" 
d="M172 127c-73 0 -132 40 -132 129c0 67 47 127 132 127c69 0 131 -33 131 -127c0 -69 -50 -129 -131 -129z" />
    <glyph glyph-name="U" unicode="U" horiz-adv-x="736" 
d="M574 573c0 57 -10 71 -96 81l6 39h235l4 -39l-62 -12c-20 -4 -20 -14 -20 -26v-359c0 -158 -84 -266 -268 -266c-166 0 -258 82 -258 258v343c0 39 -2 49 -76 62l6 39h245l4 -39l-62 -12c-19 -4 -20 -14 -20 -26v-352c0 -131 49 -206 177 -206c140 0 185 100 185 191v324
z" />
    <glyph glyph-name="G" unicode="G" horiz-adv-x="681" 
d="M587 37c-38 -20 -129 -46 -223 -46c-228 0 -329 155 -329 340c0 170 85 371 350 371c81 0 175 -19 196 -28c5 -31 6 -62 6 -94c0 -24 -1 -49 -2 -74l-57 -8c-16 83 -28 120 -39 128c-10 8 -68 23 -121 23c-153 0 -222 -127 -222 -294c0 -222 120 -308 247 -308
c41 0 76 8 97 16v139c0 39 -2 49 -76 62l6 39h234l4 -39l-51 -12c-19 -4 -20 -14 -20 -26v-189z" />
    <glyph glyph-name="J" unicode="J" horiz-adv-x="336" 
d="M219 622v-494c0 -124 -87 -247 -157 -247c-38 0 -58 3 -83 8c-2 8 -3 17 -3 26c0 21 7 43 19 62c30 -7 50 -11 67 -11c14 0 23 3 31 8c27 19 29 98 29 184v434c0 39 -12 49 -86 62l6 39h265l4 -39l-72 -12c-15 -3 -20 -12 -20 -20z" />
    <glyph glyph-name="Y" unicode="Y" horiz-adv-x="598" 
d="M319 361l111 215c12 23 21 38 21 48c0 14 -17 19 -60 29l6 40h198l4 -42c-59 -12 -74 -22 -90 -54l-158 -310v-210c0 -12 1 -23 20 -26l77 -12l-4 -39h-275l-6 39c88 14 91 23 91 62v178l-180 331c-18 29 -23 32 -69 43l7 40h235l4 -41l-67 -18c-5 -1 -7 -4 -7 -7
c0 -5 4 -11 7 -16l115 -221c9 -15 10 -25 10 -29h10z" />
    <glyph glyph-name="apostrophe" unicode="&#x2bc;" horiz-adv-x="109" 
d="M24 557l-24 23c26 31 33 62 33 84c0 27 -27 34 -27 61c0 26 21 41 42 41c28 0 51 -19 51 -71c0 -35 -16 -92 -75 -138z" />
    <glyph glyph-name="quotedbl" unicode="&#x22;" horiz-adv-x="331" 
d="M125 778l13 -19l-41 -245l-43 3l-5 236zM276 778l13 -19l-41 -245l-43 3l-5 236z" />
    <glyph glyph-name="Z" unicode="Z" horiz-adv-x="607" 
d="M120 510l-63 7c-1 21 -2 45 -2 72c0 21 3 71 9 104h509v-26l-382 -586c-6 -9 -13 -19 -22 -23l2 -6h150c127 0 123 5 130 7c10 3 21 22 56 154l55 -5c1 -17 1 -34 1 -51c0 -61 -6 -118 -11 -157h-517v26l381 586c6 9 13 19 22 23l-2 7h-96c-41 0 -158 -3 -179 -6
c-11 -1 -21 -31 -41 -126z" />
    <glyph glyph-name="tilde" unicode="&#x2dc;" horiz-adv-x="361" 
d="M336 715l25 -13c-22 -51 -50 -107 -92 -107c-37 0 -128 42 -174 42c-25 0 -48 -12 -72 -42l-23 17c43 75 70 102 103 102c42 0 130 -42 170 -42c24 0 41 15 63 43z" />
    <glyph glyph-name="ntilde" unicode="&#xf1;" horiz-adv-x="596" 
d="M47 0l-6 39c70 15 70 26 70 57v288c0 31 -3 43 -76 57l6 32l129 13c10 0 22 -51 22 -77v-6l8 -3l12 14c36 42 89 74 154 74c85 0 138 -54 138 -146v-270c0 -12 1 -16 20 -21l49 -12l-4 -39h-214l-6 39c64 13 65 26 65 57v216c0 51 -11 104 -82 104
c-39 0 -75 -16 -109 -39c-15 -10 -22 -15 -22 -46v-258c0 -16 4 -18 20 -22l44 -12l-4 -39h-214zM463 715l25 -13c-22 -51 -50 -107 -92 -107c-37 0 -128 42 -174 42c-25 0 -48 -12 -72 -42l-23 17c43 75 70 102 103 102c42 0 130 -42 170 -42c24 0 41 15 63 43z" />
    <glyph glyph-name="atilde" unicode="&#xe3;" horiz-adv-x="512" 
d="M42 123c0 97 76 148 272 150v32c0 73 -22 130 -94 130c-19 0 -49 -4 -57 -13c-6 -7 -17 -45 -24 -85l-54 6c-6 23 -8 50 -8 76c0 11 0 22 1 32c40 25 109 37 167 37c111 0 159 -44 159 -159v-230c0 -31 3 -43 76 -57l-6 -32l-120 -13c-13 0 -32 30 -32 60c0 6 0 11 1 19
l-8 3l-12 -18c-23 -34 -66 -70 -129 -70c-70 0 -132 45 -132 132zM139 132c0 -50 29 -73 69 -73c36 0 65 20 83 34s23 24 23 38v98c-117 -2 -175 -27 -175 -97zM404 715l25 -13c-22 -51 -50 -107 -92 -107c-37 0 -128 42 -174 42c-25 0 -48 -12 -72 -42l-23 17
c43 75 70 102 103 102c42 0 130 -42 170 -42c24 0 41 15 63 43z" />
    <glyph glyph-name="otilde" unicode="&#xf5;" horiz-adv-x="520" 
d="M32 232c0 153 84 256 234 256c142 0 222 -93 222 -242c0 -153 -84 -255 -234 -255c-142 0 -222 92 -222 241zM269 44c27 0 62 7 82 30c23 26 40 89 40 158c0 113 -45 203 -140 203c-27 0 -62 -7 -82 -30c-23 -26 -40 -89 -40 -158c0 -113 45 -203 140 -203zM415 715
l25 -13c-22 -51 -50 -107 -92 -107c-37 0 -128 42 -174 42c-25 0 -48 -12 -72 -42l-23 17c43 75 70 102 103 102c42 0 130 -42 170 -42c24 0 41 15 63 43z" />
    <glyph glyph-name="ellipsis" unicode="&#x2026;" horiz-adv-x="860" 
d="M703 -9c-32 0 -60 19 -60 62c0 31 23 60 60 60c33 0 62 -16 62 -60c0 -33 -24 -62 -62 -62zM429 -9c-32 0 -60 19 -60 62c0 31 23 60 60 60c33 0 62 -16 62 -60c0 -33 -24 -62 -62 -62zM155 -9c-32 0 -60 19 -60 62c0 31 23 60 60 60c33 0 62 -16 62 -60
c0 -33 -24 -62 -62 -62z" />
    <glyph glyph-name="caron.alt" horiz-adv-x="97" 
d="M85 774l12 -19c-6 -63 -29 -125 -65 -178l-42 14c9 34 14 68 14 103c0 19 -1 38 -4 58z" />
    <glyph glyph-name="dieresis.cap" unicode="&#x308;" horiz-adv-x="230" 
d="M211 775c-30 0 -52 17 -52 56c0 28 20 54 52 54c29 0 53 -14 53 -54c0 -30 -21 -56 -53 -56zM18 775c-30 0 -52 17 -52 56c0 28 20 54 52 54c29 0 53 -14 53 -54c0 -30 -21 -56 -53 -56z" />
    <glyph glyph-name="acute.cap" horiz-adv-x="234" 
d="M234 863l-8 -21l-201 -93l-25 36l174 129z" />
    <glyph glyph-name="S" unicode="S" horiz-adv-x="523" 
d="M445 675c2 -16 3 -33 3 -51c0 -40 -5 -82 -11 -118l-58 -7c-9 94 -16 117 -27 126c-14 12 -56 21 -94 21c-41 0 -71 -10 -90 -24c-15 -11 -37 -34 -37 -76c0 -85 88 -116 173 -152s174 -81 174 -201c0 -122 -90 -202 -237 -202c-88 0 -176 29 -203 43c-3 12 -3 24 -3 44
c0 45 6 90 12 122l57 3c11 -103 17 -113 28 -121c19 -13 76 -35 132 -35c40 0 67 11 84 24c29 22 38 53 38 83c0 94 -88 127 -168 161c-85 36 -170 76 -170 190c0 124 101 197 243 197c65 0 122 -15 154 -27z" />
    <glyph glyph-name="slash" unicode="/" horiz-adv-x="391" 
d="M307 772h69l-291 -832h-70z" />
    <glyph glyph-name="tilde.cap" horiz-adv-x="230" 
d="M271 891l25 -12c-22 -48 -50 -101 -92 -101c-37 0 -128 27 -174 27c-25 0 -48 -10 -72 -34l-23 16c43 71 70 96 103 96c42 0 130 -27 170 -27c24 0 41 12 63 35z" />
    <glyph glyph-name="Ntilde" unicode="&#xd1;" horiz-adv-x="775" 
d="M598 0l-16 189h8v383c0 58 -10 72 -96 82l6 39h235l4 -39l-62 -12c-19 -4 -20 -14 -20 -26v-616h-59zM595 0l-468 693h114l406 -598l-2 -94zM50 0l-6 39c74 13 76 23 76 62v491c0 39 -2 49 -76 62l6 39h136l10 -101h-9v-492c0 -32 10 -48 44 -52l70 -9l-4 -39h-247z
M550 891l25 -12c-22 -48 -50 -101 -92 -101c-37 0 -128 27 -174 27c-25 0 -48 -10 -72 -34l-23 16c43 71 70 96 103 96c42 0 130 -27 170 -27c24 0 41 12 63 35z" />
    <glyph glyph-name="Udieresis" unicode="&#xdc;" horiz-adv-x="736" 
d="M574 573c0 57 -10 71 -96 81l6 39h235l4 -39l-62 -12c-20 -4 -20 -14 -20 -26v-359c0 -158 -84 -266 -268 -266c-166 0 -258 82 -258 258v343c0 39 -2 49 -76 62l6 39h245l4 -39l-62 -12c-19 -4 -20 -14 -20 -26v-352c0 -131 49 -206 177 -206c140 0 185 100 185 191v324
zM477 775c-30 0 -52 17 -52 56c0 28 20 54 52 54c29 0 53 -14 53 -54c0 -30 -21 -56 -53 -56zM284 775c-30 0 -52 17 -52 56c0 28 20 54 52 54c29 0 53 -14 53 -54c0 -30 -21 -56 -53 -56z" />
    <glyph glyph-name="grave.cap" horiz-adv-x="234" 
d="M8 842l-8 21l60 51l174 -129l-25 -36z" />
    <glyph glyph-name="circumflex.cap" horiz-adv-x="328" 
d="M303 749l-139 91l-139 -91l-25 26l136 139h56l136 -139z" />
    <glyph glyph-name="Oacute" unicode="&#xd3;" horiz-adv-x="711" 
d="M35 338c0 217 120 364 328 364c202 0 313 -135 313 -338c0 -223 -120 -373 -328 -373c-202 0 -313 138 -313 347zM364 44c150 0 201 148 201 303c0 170 -72 302 -218 302c-150 0 -201 -146 -201 -294c0 -176 72 -311 218 -311zM497 863l-8 -21l-201 -93l-25 36l174 129z
" />
    <glyph glyph-name="Odieresis" unicode="&#xd6;" horiz-adv-x="711" 
d="M35 338c0 217 120 364 328 364c202 0 313 -135 313 -338c0 -223 -120 -373 -328 -373c-202 0 -313 138 -313 347zM364 44c150 0 201 148 201 303c0 170 -72 302 -218 302c-150 0 -201 -146 -201 -294c0 -176 72 -311 218 -311zM447 775c-30 0 -52 17 -52 56
c0 28 20 54 52 54c29 0 53 -14 53 -54c0 -30 -21 -56 -53 -56zM254 775c-30 0 -52 17 -52 56c0 28 20 54 52 54c29 0 53 -14 53 -54c0 -30 -21 -56 -53 -56z" />
    <glyph glyph-name="Otilde" unicode="&#xd5;" horiz-adv-x="711" 
d="M35 338c0 217 120 364 328 364c202 0 313 -135 313 -338c0 -223 -120 -373 -328 -373c-202 0 -313 138 -313 347zM364 44c150 0 201 148 201 303c0 170 -72 302 -218 302c-150 0 -201 -146 -201 -294c0 -176 72 -311 218 -311zM515 891l25 -12c-22 -48 -50 -101 -92 -101
c-37 0 -128 27 -174 27c-25 0 -48 -10 -72 -34l-23 16c43 71 70 96 103 96c42 0 130 -27 170 -27c24 0 41 12 63 35z" />
    <glyph glyph-name="Ocircumflex" unicode="&#xd4;" horiz-adv-x="711" 
d="M35 338c0 217 120 364 328 364c202 0 313 -135 313 -338c0 -223 -120 -373 -328 -373c-202 0 -313 138 -313 347zM364 44c150 0 201 148 201 303c0 170 -72 302 -218 302c-150 0 -201 -146 -201 -294c0 -176 72 -311 218 -311zM494 749l-139 91l-139 -91l-25 26l136 139
h56l136 -139z" />
    <glyph glyph-name="Ograve" unicode="&#xd2;" horiz-adv-x="711" 
d="M35 338c0 217 120 364 328 364c202 0 313 -135 313 -338c0 -223 -120 -373 -328 -373c-202 0 -313 138 -313 347zM364 44c150 0 201 148 201 303c0 170 -72 302 -218 302c-150 0 -201 -146 -201 -294c0 -176 72 -311 218 -311zM226 842l-8 21l60 51l174 -129l-25 -36z
" />
    <glyph glyph-name="Idieresis" unicode="&#xcf;" horiz-adv-x="337" 
d="M50 0l-6 39c74 13 76 23 76 62v491c0 39 -2 49 -76 62l6 39h245l4 -39l-62 -12c-19 -4 -20 -14 -20 -26v-539c0 -12 1 -22 20 -26l62 -12l-4 -39h-245zM264 775c-30 0 -52 17 -52 56c0 28 20 54 52 54c29 0 53 -14 53 -54c0 -30 -21 -56 -53 -56zM71 775
c-30 0 -52 17 -52 56c0 28 20 54 52 54c29 0 53 -14 53 -54c0 -30 -21 -56 -53 -56z" />
    <glyph glyph-name="Icircumflex" unicode="&#xce;" horiz-adv-x="337" 
d="M50 0l-6 39c74 13 76 23 76 62v491c0 39 -2 49 -76 62l6 39h245l4 -39l-62 -12c-19 -4 -20 -14 -20 -26v-539c0 -12 1 -22 20 -26l62 -12l-4 -39h-245zM307 749l-139 91l-139 -91l-25 26l136 139h56l136 -139z" />
    <glyph glyph-name="Iacute" unicode="&#xcd;" horiz-adv-x="337" 
d="M50 0l-6 39c74 13 76 23 76 62v491c0 39 -2 49 -76 62l6 39h245l4 -39l-62 -12c-19 -4 -20 -14 -20 -26v-539c0 -12 1 -22 20 -26l62 -12l-4 -39h-245zM312 863l-8 -21l-201 -93l-25 36l174 129z" />
    <glyph glyph-name="Igrave" unicode="&#xcc;" horiz-adv-x="337" 
d="M50 0l-6 39c74 13 76 23 76 62v491c0 39 -2 49 -76 62l6 39h245l4 -39l-62 -12c-19 -4 -20 -14 -20 -26v-539c0 -12 1 -22 20 -26l62 -12l-4 -39h-245zM15 842l-8 21l60 51l174 -129l-25 -36z" />
    <glyph glyph-name="Edieresis" unicode="&#xcb;" horiz-adv-x="592" 
d="M50 0l-6 39c74 13 76 23 76 62v491c0 39 -2 49 -76 62l6 39h466c4 -25 6 -63 6 -79c0 -28 -1 -54 -2 -77l-57 -7c-19 94 -23 104 -34 105c-18 2 -33 3 -61 4l-151 3v-269h150c8 0 15 8 32 71l31 -3c0 -112 4 -123 14 -198l-36 -6c-21 73 -24 83 -34 83h-157v-269l89 1
c131 2 135 12 142 14c10 3 20 17 44 118l55 -5c1 -17 1 -34 1 -51c0 -53 -6 -94 -11 -128h-487zM388 775c-30 0 -52 17 -52 56c0 28 20 54 52 54c29 0 53 -14 53 -54c0 -30 -21 -56 -53 -56zM195 775c-30 0 -52 17 -52 56c0 28 20 54 52 54c29 0 53 -14 53 -54
c0 -30 -21 -56 -53 -56z" />
    <glyph glyph-name="Ecircumflex" unicode="&#xca;" horiz-adv-x="592" 
d="M50 0l-6 39c74 13 76 23 76 62v491c0 39 -2 49 -76 62l6 39h466c4 -25 6 -63 6 -79c0 -28 -1 -54 -2 -77l-57 -7c-19 94 -23 104 -34 105c-18 2 -33 3 -61 4l-151 3v-269h150c8 0 15 8 32 71l31 -3c0 -112 4 -123 14 -198l-36 -6c-21 73 -24 83 -34 83h-157v-269l89 1
c131 2 135 12 142 14c10 3 20 17 44 118l55 -5c1 -17 1 -34 1 -51c0 -53 -6 -94 -11 -128h-487zM430 749l-139 91l-139 -91l-25 26l136 139h56l136 -139z" />
    <glyph glyph-name="Eacute" unicode="&#xc9;" horiz-adv-x="592" 
d="M50 0l-6 39c74 13 76 23 76 62v491c0 39 -2 49 -76 62l6 39h466c4 -25 6 -63 6 -79c0 -28 -1 -54 -2 -77l-57 -7c-19 94 -23 104 -34 105c-18 2 -33 3 -61 4l-151 3v-269h150c8 0 15 8 32 71l31 -3c0 -112 4 -123 14 -198l-36 -6c-21 73 -24 83 -34 83h-157v-269l89 1
c131 2 135 12 142 14c10 3 20 17 44 118l55 -5c1 -17 1 -34 1 -51c0 -53 -6 -94 -11 -128h-487zM438 863l-8 -21l-201 -93l-25 36l174 129z" />
    <glyph glyph-name="Egrave" unicode="&#xc8;" horiz-adv-x="592" 
d="M50 0l-6 39c74 13 76 23 76 62v491c0 39 -2 49 -76 62l6 39h466c4 -25 6 -63 6 -79c0 -28 -1 -54 -2 -77l-57 -7c-19 94 -23 104 -34 105c-18 2 -33 3 -61 4l-151 3v-269h150c8 0 15 8 32 71l31 -3c0 -112 4 -123 14 -198l-36 -6c-21 73 -24 83 -34 83h-157v-269l89 1
c131 2 135 12 142 14c10 3 20 17 44 118l55 -5c1 -17 1 -34 1 -51c0 -53 -6 -94 -11 -128h-487zM132 842l-8 21l60 51l174 -129l-25 -36z" />
    <glyph glyph-name="Adieresis" unicode="&#xc4;" horiz-adv-x="670" 
d="M14 0l-7 40c51 13 53 15 63 43l224 619h83l229 -635c4 -11 16 -17 59 -25l-4 -42h-233l-6 40c46 9 70 17 70 33c0 6 -1 11 -4 21l-44 130h-259l-51 -142c-2 -6 -4 -13 -4 -15s1 -6 6 -7l71 -19l-4 -41h-189zM204 277h223l-98 281c-4 12 -7 25 -7 29h-10zM433 775
c-30 0 -52 17 -52 56c0 28 20 54 52 54c29 0 53 -14 53 -54c0 -30 -21 -56 -53 -56zM240 775c-30 0 -52 17 -52 56c0 28 20 54 52 54c29 0 53 -14 53 -54c0 -30 -21 -56 -53 -56z" />
    <glyph glyph-name="Atilde" unicode="&#xc3;" horiz-adv-x="670" 
d="M14 0l-7 40c51 13 53 15 63 43l224 619h83l229 -635c4 -11 16 -17 59 -25l-4 -42h-233l-6 40c46 9 70 17 70 33c0 6 -1 11 -4 21l-44 130h-259l-51 -142c-2 -6 -4 -13 -4 -15s1 -6 6 -7l71 -19l-4 -41h-189zM204 277h223l-98 281c-4 12 -7 25 -7 29h-10zM493 891l25 -12
c-22 -48 -50 -101 -92 -101c-37 0 -128 27 -174 27c-25 0 -48 -10 -72 -34l-23 16c43 71 70 96 103 96c42 0 130 -27 170 -27c24 0 41 12 63 35z" />
    <glyph glyph-name="Acircumflex" unicode="&#xc2;" horiz-adv-x="670" 
d="M14 0l-7 40c51 13 53 15 63 43l224 619h83l229 -635c4 -11 16 -17 59 -25l-4 -42h-233l-6 40c46 9 70 17 70 33c0 6 -1 11 -4 21l-44 130h-259l-51 -142c-2 -6 -4 -13 -4 -15s1 -6 6 -7l71 -19l-4 -41h-189zM204 277h223l-98 281c-4 12 -7 25 -7 29h-10zM476 749l-139 91
l-139 -91l-25 26l136 139h56l136 -139z" />
    <glyph glyph-name="Aacute" unicode="&#xc1;" horiz-adv-x="670" 
d="M14 0l-7 40c51 13 53 15 63 43l224 619h83l229 -635c4 -11 16 -17 59 -25l-4 -42h-233l-6 40c46 9 70 17 70 33c0 6 -1 11 -4 21l-44 130h-259l-51 -142c-2 -6 -4 -13 -4 -15s1 -6 6 -7l71 -19l-4 -41h-189zM204 277h223l-98 281c-4 12 -7 25 -7 29h-10zM504 863l-8 -21
l-201 -93l-25 36l174 129z" />
    <glyph glyph-name="Agrave" unicode="&#xc0;" horiz-adv-x="670" 
d="M14 0l-7 40c51 13 53 15 63 43l224 619h83l229 -635c4 -11 16 -17 59 -25l-4 -42h-233l-6 40c46 9 70 17 70 33c0 6 -1 11 -4 21l-44 130h-259l-51 -142c-2 -6 -4 -13 -4 -15s1 -6 6 -7l71 -19l-4 -41h-189zM204 277h223l-98 281c-4 12 -7 25 -7 29h-10zM178 842l-8 21
l60 51l174 -129l-25 -36z" />
    <glyph glyph-name="Ugrave" unicode="&#xd9;" horiz-adv-x="736" 
d="M574 573c0 57 -10 71 -96 81l6 39h235l4 -39l-62 -12c-20 -4 -20 -14 -20 -26v-359c0 -158 -84 -266 -268 -266c-166 0 -258 82 -258 258v343c0 39 -2 49 -76 62l6 39h245l4 -39l-62 -12c-19 -4 -20 -14 -20 -26v-352c0 -131 49 -206 177 -206c140 0 185 100 185 191v324
zM218 842l-8 21l60 51l174 -129l-25 -36z" />
    <glyph glyph-name="Uacute" unicode="&#xda;" horiz-adv-x="736" 
d="M574 573c0 57 -10 71 -96 81l6 39h235l4 -39l-62 -12c-20 -4 -20 -14 -20 -26v-359c0 -158 -84 -266 -268 -266c-166 0 -258 82 -258 258v343c0 39 -2 49 -76 62l6 39h245l4 -39l-62 -12c-19 -4 -20 -14 -20 -26v-352c0 -131 49 -206 177 -206c140 0 185 100 185 191v324
zM555 863l-8 -21l-201 -93l-25 36l174 129z" />
    <glyph glyph-name="Ucircumflex" unicode="&#xdb;" horiz-adv-x="736" 
d="M574 573c0 57 -10 71 -96 81l6 39h235l4 -39l-62 -12c-20 -4 -20 -14 -20 -26v-359c0 -158 -84 -266 -268 -266c-166 0 -258 82 -258 258v343c0 39 -2 49 -76 62l6 39h245l4 -39l-62 -12c-19 -4 -20 -14 -20 -26v-352c0 -131 49 -206 177 -206c140 0 185 100 185 191v324
zM516 749l-139 91l-139 -91l-25 26l136 139h56l136 -139z" />
    <glyph glyph-name="Yacute" unicode="&#xdd;" horiz-adv-x="598" 
d="M319 361l111 215c12 23 21 38 21 48c0 14 -17 19 -60 29l6 40h198l4 -42c-59 -12 -74 -22 -90 -54l-158 -310v-210c0 -12 1 -23 20 -26l77 -12l-4 -39h-275l-6 39c88 14 91 23 91 62v178l-180 331c-18 29 -23 32 -69 43l7 40h235l4 -41l-67 -18c-5 -1 -7 -4 -7 -7
c0 -5 4 -11 7 -16l115 -221c9 -15 10 -25 10 -29h10zM486 863l-8 -21l-201 -93l-25 36l174 129z" />
    <glyph glyph-name="dcaron" unicode="&#x10f;" horiz-adv-x="569" 
d="M217 -9c-99 0 -181 88 -181 238c0 148 79 259 224 259c46 0 88 -11 108 -26l7 3c-2 8 -4 29 -4 44v168c0 29 -25 40 -94 49l6 32c84 11 143 14 167 14l11 -10v-664c0 -31 3 -43 76 -57l-6 -32l-120 -13c-13 0 -34 31 -34 61c0 6 0 11 1 19l-8 3l-10 -13
c-30 -39 -79 -75 -143 -75zM242 63c27 0 70 13 102 34c22 15 27 27 27 46v239c-20 24 -56 49 -128 49c-14 0 -44 -1 -68 -28c-26 -29 -42 -85 -42 -156c0 -128 53 -184 109 -184zM609 774l12 -19c-6 -63 -29 -125 -65 -178l-42 14c9 34 14 68 14 103c0 19 -1 38 -4 58z" />
    <glyph glyph-name="lcaron" unicode="&#x13e;" horiz-adv-x="303" 
d="M40 0l-6 39c70 15 70 26 70 57v581c0 29 -19 38 -76 49l6 32c84 11 125 14 149 14l11 -10v-690c0 -12 1 -16 20 -21l49 -12l-4 -39h-219zM348 774l12 -19c-6 -63 -29 -125 -65 -178l-42 14c9 34 14 68 14 103c0 19 -1 38 -4 58z" />
    <glyph glyph-name="cacute" unicode="&#x107;" horiz-adv-x="468" 
d="M34 236c0 115 50 252 237 252c75 0 131 -22 146 -28c1 -8 1 -17 1 -28c0 -35 -4 -81 -12 -109l-56 -6c-15 93 -21 103 -30 107c-14 6 -55 9 -75 9c-36 0 -61 -10 -79 -37c-21 -32 -35 -90 -35 -151c0 -138 71 -186 152 -186c45 0 92 15 134 44l28 -33
c-35 -34 -101 -79 -195 -79c-146 0 -216 109 -216 245zM417 735v-23l-152 -151l-35 25l107 179z" />
    <glyph glyph-name="Cacute" unicode="&#x106;" horiz-adv-x="620" 
d="M35 331c0 170 85 371 350 371c81 0 175 -19 196 -28c5 -31 6 -62 6 -94c0 -24 -1 -49 -2 -74l-57 -8c-16 83 -28 120 -39 128c-10 8 -68 23 -121 23c-153 0 -222 -127 -222 -294c0 -222 120 -308 247 -308c58 0 105 18 114 25c8 6 14 19 34 128l55 -2
c0 -52 -6 -123 -11 -162c-36 -19 -127 -45 -221 -45c-228 0 -329 155 -329 340zM521 863l-8 -21l-201 -93l-25 36l174 129z" />
    <glyph glyph-name="jcircumflex" unicode="&#x135;" horiz-adv-x="280" 
d="M165 755l118 -169l-35 -25l-115 118l-114 -118l-35 25l118 169h63zM100 68v315c0 29 -19 38 -76 49l6 32c84 11 125 14 149 14l11 -10v-430c0 -132 -99 -257 -164 -257c-35 0 -53 3 -76 7c-2 8 -3 16 -3 24c0 20 6 40 17 58c28 -7 47 -10 62 -10c13 0 22 2 29 7
c29 19 45 110 45 201z" />
    <glyph glyph-name="itilde" unicode="&#x129;" horiz-adv-x="310" 
d="M296 715l25 -13c-22 -51 -50 -107 -92 -107c-37 0 -128 42 -174 42c-25 0 -48 -12 -72 -42l-23 17c43 75 70 102 103 102c42 0 130 -42 170 -42c24 0 41 15 63 43zM47 0l-6 39c70 15 70 26 70 57v287c0 29 -19 38 -76 49l6 32c84 11 125 14 149 14l11 -10v-396
c0 -12 1 -16 20 -21l49 -12l-4 -39h-219z" />
    <glyph glyph-name="Itilde" unicode="&#x128;" horiz-adv-x="337" 
d="M50 0l-6 39c74 13 76 23 76 62v491c0 39 -2 49 -76 62l6 39h245l4 -39l-62 -12c-19 -4 -20 -14 -20 -26v-539c0 -12 1 -22 20 -26l62 -12l-4 -39h-245zM331 891l25 -12c-22 -48 -50 -101 -92 -101c-37 0 -128 27 -174 27c-25 0 -48 -10 -72 -34l-23 16
c43 71 70 96 103 96c42 0 130 -27 170 -27c24 0 41 12 63 35z" />
    <glyph glyph-name="ccircumflex" unicode="&#x109;" horiz-adv-x="468" 
d="M34 236c0 115 50 252 237 252c75 0 131 -22 146 -28c1 -8 1 -17 1 -28c0 -35 -4 -81 -12 -109l-56 -6c-15 93 -21 103 -30 107c-14 6 -55 9 -75 9c-36 0 -61 -10 -79 -37c-21 -32 -35 -90 -35 -151c0 -138 71 -186 152 -186c45 0 92 15 134 44l28 -33
c-35 -34 -101 -79 -195 -79c-146 0 -216 109 -216 245zM287 755l118 -169l-35 -25l-115 118l-114 -118l-35 25l118 169h63z" />
    <glyph glyph-name="Ccircumflex" unicode="&#x108;" horiz-adv-x="620" 
d="M35 331c0 170 85 371 350 371c81 0 175 -19 196 -28c5 -31 6 -62 6 -94c0 -24 -1 -49 -2 -74l-57 -8c-16 83 -28 120 -39 128c-10 8 -68 23 -121 23c-153 0 -222 -127 -222 -294c0 -222 120 -308 247 -308c58 0 105 18 114 25c8 6 14 19 34 128l55 -2
c0 -52 -6 -123 -11 -162c-36 -19 -127 -45 -221 -45c-228 0 -329 155 -329 340zM490 749l-139 91l-139 -91l-25 26l136 139h56l136 -139z" />
    <glyph glyph-name="Gcircumflex" unicode="&#x11c;" horiz-adv-x="681" 
d="M587 37c-38 -20 -129 -46 -223 -46c-228 0 -329 155 -329 340c0 170 85 371 350 371c81 0 175 -19 196 -28c5 -31 6 -62 6 -94c0 -24 -1 -49 -2 -74l-57 -8c-16 83 -28 120 -39 128c-10 8 -68 23 -121 23c-153 0 -222 -127 -222 -294c0 -222 120 -308 247 -308
c41 0 76 8 97 16v139c0 39 -2 49 -76 62l6 39h234l4 -39l-51 -12c-19 -4 -20 -14 -20 -26v-189zM488 749l-139 91l-139 -91l-25 26l136 139h56l136 -139z" />
    <glyph glyph-name="gcircumflex" unicode="&#x11d;" horiz-adv-x="554" 
d="M392 422l-13 31c41 21 96 36 134 37c6 -10 10 -32 10 -50c0 -9 -1 -17 -3 -23c-21 5 -46 8 -72 8c-19 0 -36 0 -56 -3zM256 162c-101 0 -182 49 -182 159c0 115 89 167 194 167c103 0 182 -51 182 -159c0 -115 -89 -167 -194 -167zM265 211c63 0 93 38 93 110
c0 74 -31 118 -99 118c-63 0 -93 -38 -93 -110c0 -74 31 -118 99 -118zM74 61c0 59 56 111 97 137l15 -14c-23 -24 -39 -56 -39 -79c0 -41 53 -41 103 -41c110 0 235 -1 235 -106c0 -91 -96 -177 -266 -177c-69 0 -164 14 -164 94c0 50 36 81 76 110c-32 10 -57 36 -57 76z
M160 -24c-20 -22 -28 -52 -28 -71c0 -38 32 -74 125 -74c118 0 160 58 160 93c0 60 -127 26 -257 52zM291 755l118 -169l-35 -25l-115 118l-114 -118l-35 25l118 169h63z" />
    <glyph glyph-name="Hcircumflex" unicode="&#x124;" horiz-adv-x="767" 
d="M50 0l-6 39c74 13 76 23 76 62v491c0 39 -2 49 -76 62l6 39h245l4 -39l-62 -12c-19 -4 -20 -14 -20 -26v-229h333v205c0 39 -2 49 -76 62l6 39h245l4 -39l-62 -12c-19 -4 -20 -14 -20 -26v-539c0 -12 1 -22 20 -26l62 -12l-4 -39h-245l-6 39c74 13 76 23 76 62v226h-333
v-250c0 -12 1 -22 20 -26l62 -12l-4 -39h-245zM528 749l-139 91l-139 -91l-25 26l136 139h56l136 -139z" />
    <glyph glyph-name="hcircumflex" unicode="&#x125;" horiz-adv-x="596" 
d="M40 0l-6 39c70 15 70 26 70 57v560c0 29 -19 38 -76 49l6 32c84 11 125 14 149 14l11 -10v-260c0 -25 -1 -58 -7 -78l8 -3l12 14c32 38 86 74 155 74c89 0 142 -55 142 -146v-270c0 -12 1 -16 20 -21l49 -12l-4 -39h-214l-6 39c64 13 65 26 65 57v216
c0 52 -11 104 -86 104c-35 0 -76 -15 -111 -39c-16 -11 -23 -17 -23 -48v-257c0 -12 1 -16 20 -21l44 -12l-4 -39h-214zM263 749l-139 91l-139 -91l-25 26l136 139h56l136 -139z" />
    <glyph glyph-name="Jcircumflex" unicode="&#x134;" horiz-adv-x="336" 
d="M219 622v-494c0 -124 -87 -247 -157 -247c-38 0 -58 3 -83 8c-2 8 -3 17 -3 26c0 21 7 43 19 62c30 -7 50 -11 67 -11c14 0 23 3 31 8c27 19 29 98 29 184v434c0 39 -12 49 -86 62l6 39h265l4 -39l-72 -12c-15 -3 -20 -12 -20 -20zM311 749l-139 91l-139 -91l-25 26
l136 139h56l136 -139z" />
    <glyph glyph-name="lacute" unicode="&#x13a;" horiz-adv-x="302" 
d="M40 0l-6 39c70 15 70 26 70 57v528c0 29 -19 38 -76 49l6 32c84 11 125 14 149 14l11 -10v-637c0 -12 1 -16 20 -21l49 -12l-4 -39h-219zM261 863l-8 -21l-201 -93l-25 36l174 129z" />
    <glyph glyph-name="Lacute" unicode="&#x139;" horiz-adv-x="558" 
d="M50 0l-6 39c74 13 76 23 76 62v491c0 39 -2 49 -76 62l6 39h245l4 -39l-62 -12c-19 -4 -20 -14 -20 -26v-565l89 1c131 2 123 5 130 7c10 3 21 22 56 154l55 -5c1 -17 1 -34 1 -51c0 -61 -6 -118 -11 -157h-487zM340 863l-8 -21l-201 -93l-25 36l174 129z" />
    <glyph glyph-name="dotlessi" unicode="&#x131;" horiz-adv-x="310" 
d="M47 0l-6 39c70 15 70 26 70 57v287c0 29 -19 38 -76 49l6 32c84 11 125 14 149 14l11 -10v-396c0 -12 1 -16 20 -21l49 -12l-4 -39h-219z" />
    <glyph glyph-name="tcaron" unicode="&#x165;" horiz-adv-x="350" 
d="M85 137v275h-65l-4 43l49 12c25 6 26 8 49 134l61 6v-134h139l-8 -47l-131 -15v-244c0 -49 9 -104 64 -104c25 0 52 12 76 30l21 -29c-28 -38 -73 -73 -132 -73c-74 0 -119 55 -119 146zM317 774l12 -19c-6 -63 -29 -125 -65 -178l-42 14c9 34 14 68 14 103
c0 19 -1 38 -4 58z" />
    <glyph glyph-name="Racute" unicode="&#x154;" horiz-adv-x="632" 
d="M50 0l-6 39c74 13 76 23 76 62v491c0 39 -2 49 -76 62l6 39h278c148 0 211 -66 211 -168c0 -91 -55 -172 -156 -206v-5c7 -2 14 -9 22 -22l141 -212c18 -27 29 -37 82 -41l-6 -39h-142l-198 304h-65v-227c0 -12 1 -22 20 -26l55 -12l-4 -39h-238zM217 355h55
c95 0 160 30 160 161c0 107 -79 124 -135 124h-60c-19 0 -20 -12 -20 -24v-261zM440 863l-8 -21l-201 -93l-25 36l174 129z" />
    <glyph glyph-name="racute" unicode="&#x155;" horiz-adv-x="432" 
d="M40 0l-6 39c76 13 77 26 77 57v288c0 31 -3 45 -83 57l6 32l136 13c9 0 23 -31 23 -64c0 -16 -3 -40 -4 -47l8 -3l13 29c25 55 79 87 132 87c16 0 40 -3 66 -16c0 -37 -4 -104 -15 -164l-49 -5c-6 67 -12 90 -18 98c-4 6 -10 9 -20 9c-35 0 -73 -33 -88 -51
c-14 -16 -17 -29 -17 -61v-226c0 -12 1 -18 20 -21l91 -12l-4 -39h-268zM365 735v-23l-152 -151l-35 25l107 179z" />
    <glyph glyph-name="Scircumflex" unicode="&#x15c;" horiz-adv-x="523" 
d="M445 675c2 -16 3 -33 3 -51c0 -40 -5 -82 -11 -118l-58 -7c-9 94 -16 117 -27 126c-14 12 -56 21 -94 21c-41 0 -71 -10 -90 -24c-15 -11 -37 -34 -37 -76c0 -85 88 -116 173 -152s174 -81 174 -201c0 -122 -90 -202 -237 -202c-88 0 -176 29 -203 43c-3 12 -3 24 -3 44
c0 45 6 90 12 122l57 3c11 -103 17 -113 28 -121c19 -13 76 -35 132 -35c40 0 67 11 84 24c29 22 38 53 38 83c0 94 -88 127 -168 161c-85 36 -170 76 -170 190c0 124 101 197 243 197c65 0 122 -15 154 -27zM412 749l-139 91l-139 -91l-25 26l136 139h56l136 -139z" />
    <glyph glyph-name="scircumflex" unicode="&#x15d;" horiz-adv-x="437" 
d="M57 15c-2 13 -2 27 -2 41c0 36 4 73 9 99l52 4c10 -88 12 -92 21 -97c16 -9 48 -18 84 -18c29 0 47 6 59 16c15 12 22 30 22 49c0 56 -64 77 -127 105c-60 27 -118 60 -118 134c0 83 74 140 184 140c56 0 98 -15 122 -25c1 -8 1 -16 1 -24c0 -28 -6 -77 -13 -99l-46 -5
c-6 69 -11 81 -20 87c-14 10 -37 13 -61 13c-34 0 -56 -6 -68 -16c-10 -8 -20 -23 -20 -44c0 -52 64 -73 127 -101c64 -28 125 -61 125 -136c0 -80 -68 -147 -189 -147c-57 0 -121 15 -142 24zM262 755l118 -169l-35 -25l-115 118l-114 -118l-35 25l118 169h63z" />
    <glyph glyph-name="ycircumflex" unicode="&#x177;" horiz-adv-x="500" 
d="M29 -117c16 -2 41 -3 64 -3c26 0 52 3 67 9c14 6 35 31 63 111l-166 398c-10 25 -10 26 -53 36l6 39h206l4 -39l-61 -15c-5 -1 -7 -5 -7 -8c0 -2 2 -7 4 -13l102 -267c4 -11 5 -26 5 -31h8l106 275c3 8 6 16 6 24c0 18 -21 25 -66 35l6 39h178l4 -39
c-42 -10 -44 -11 -47 -17l-158 -392c-55 -137 -91 -216 -247 -244c-14 14 -26 48 -26 82c0 6 1 13 2 20zM299 755l118 -169l-35 -25l-115 118l-114 -118l-35 25l118 169h63z" />
    <glyph glyph-name="Ycircumflex" unicode="&#x176;" horiz-adv-x="598" 
d="M319 361l111 215c12 23 21 38 21 48c0 14 -17 19 -60 29l6 40h198l4 -42c-59 -12 -74 -22 -90 -54l-158 -310v-210c0 -12 1 -23 20 -26l77 -12l-4 -39h-275l-6 39c88 14 91 23 91 62v178l-180 331c-18 29 -23 32 -69 43l7 40h235l4 -41l-67 -18c-5 -1 -7 -4 -7 -7
c0 -5 4 -11 7 -16l115 -221c9 -15 10 -25 10 -29h10zM452 749l-139 91l-139 -91l-25 26l136 139h56l136 -139z" />
    <glyph glyph-name="Ydieresis" unicode="&#x178;" horiz-adv-x="598" 
d="M319 361l111 215c12 23 21 38 21 48c0 14 -17 19 -60 29l6 40h198l4 -42c-59 -12 -74 -22 -90 -54l-158 -310v-210c0 -12 1 -23 20 -26l77 -12l-4 -39h-275l-6 39c88 14 91 23 91 62v178l-180 331c-18 29 -23 32 -69 43l7 40h235l4 -41l-67 -18c-5 -1 -7 -4 -7 -7
c0 -5 4 -11 7 -16l115 -221c9 -15 10 -25 10 -29h10zM414 775c-30 0 -52 17 -52 56c0 28 20 54 52 54c29 0 53 -14 53 -54c0 -30 -21 -56 -53 -56zM221 775c-30 0 -52 17 -52 56c0 28 20 54 52 54c29 0 53 -14 53 -54c0 -30 -21 -56 -53 -56z" />
    <glyph glyph-name="zacute" unicode="&#x17a;" horiz-adv-x="443" 
d="M28 0v26l253 366c7 9 13 19 22 23l-2 7h-114c-18 0 -48 -1 -66 -3c-10 -1 -13 -12 -31 -84l-46 5c-1 16 -2 34 -2 54c0 16 2 54 6 79h366v-28l-250 -364c-6 -9 -13 -19 -22 -23l2 -7l49 1c53 1 119 5 127 7c9 2 20 11 40 99l52 -4c-1 -47 -5 -106 -11 -154h-373zM374 735
v-23l-152 -151l-35 25l107 179z" />
    <glyph glyph-name="Zacute" unicode="&#x179;" horiz-adv-x="607" 
d="M120 510l-63 7c-1 21 -2 45 -2 72c0 21 3 71 9 104h509v-26l-382 -586c-6 -9 -13 -19 -22 -23l2 -6h150c127 0 123 5 130 7c10 3 21 22 56 154l55 -5c1 -17 1 -34 1 -51c0 -61 -6 -118 -11 -157h-517v26l381 586c6 9 13 19 22 23l-2 7h-96c-41 0 -158 -3 -179 -6
c-11 -1 -21 -31 -41 -126zM455 863l-8 -21l-201 -93l-25 36l174 129z" />
    <glyph glyph-name="sacute" unicode="&#x15b;" horiz-adv-x="437" 
d="M57 15c-2 13 -2 27 -2 41c0 36 4 73 9 99l52 4c10 -88 12 -92 21 -97c16 -9 48 -18 84 -18c29 0 47 6 59 16c15 12 22 30 22 49c0 56 -64 77 -127 105c-60 27 -118 60 -118 134c0 83 74 140 184 140c56 0 98 -15 122 -25c1 -8 1 -16 1 -24c0 -28 -6 -77 -13 -99l-46 -5
c-6 69 -11 81 -20 87c-14 10 -37 13 -61 13c-34 0 -56 -6 -68 -16c-10 -8 -20 -23 -20 -44c0 -52 64 -73 127 -101c64 -28 125 -61 125 -136c0 -80 -68 -147 -189 -147c-57 0 -121 15 -142 24zM380 735v-23l-152 -151l-35 25l107 179z" />
    <glyph glyph-name="Sacute" unicode="&#x15a;" horiz-adv-x="523" 
d="M445 675c2 -16 3 -33 3 -51c0 -40 -5 -82 -11 -118l-58 -7c-9 94 -16 117 -27 126c-14 12 -56 21 -94 21c-41 0 -71 -10 -90 -24c-15 -11 -37 -34 -37 -76c0 -85 88 -116 173 -152s174 -81 174 -201c0 -122 -90 -202 -237 -202c-88 0 -176 29 -203 43c-3 12 -3 24 -3 44
c0 45 6 90 12 122l57 3c11 -103 17 -113 28 -121c19 -13 76 -35 132 -35c40 0 67 11 84 24c29 22 38 53 38 83c0 94 -88 127 -168 161c-85 36 -170 76 -170 190c0 124 101 197 243 197c65 0 122 -15 154 -27zM428 863l-8 -21l-201 -93l-25 36l174 129z" />
    <glyph glyph-name="nacute" unicode="&#x144;" horiz-adv-x="596" 
d="M47 0l-6 39c70 15 70 26 70 57v288c0 31 -3 43 -76 57l6 32l129 13c10 0 22 -51 22 -77v-6l8 -3l12 14c36 42 89 74 154 74c85 0 138 -54 138 -146v-270c0 -12 1 -16 20 -21l49 -12l-4 -39h-214l-6 39c64 13 65 26 65 57v216c0 51 -11 104 -82 104
c-39 0 -75 -16 -109 -39c-15 -10 -22 -15 -22 -46v-258c0 -16 4 -18 20 -22l44 -12l-4 -39h-214zM455 735v-23l-152 -151l-35 25l107 179z" />
    <glyph glyph-name="Nacute" unicode="&#x143;" horiz-adv-x="775" 
d="M598 0l-16 189h8v383c0 58 -10 72 -96 82l6 39h235l4 -39l-62 -12c-19 -4 -20 -14 -20 -26v-616h-59zM595 0l-468 693h114l406 -598l-2 -94zM50 0l-6 39c74 13 76 23 76 62v491c0 39 -2 49 -76 62l6 39h136l10 -101h-9v-492c0 -32 10 -48 44 -52l70 -9l-4 -39h-247z
M540 863l-8 -21l-201 -93l-25 36l174 129z" />
    <glyph glyph-name="Wcircumflex" unicode="&#x174;" horiz-adv-x="930" 
d="M591 -9l-108 364c-3 9 -5 21 -5 26h-8c0 -5 -2 -16 -6 -26l-121 -364h-71l-209 619c-10 30 -21 32 -67 43l7 40h223l4 -41l-56 -19c-5 -1 -7 -4 -7 -7c0 -2 2 -9 4 -15l139 -449c4 -14 9 -30 9 -34h10l115 364l-35 118c-9 31 -20 32 -60 43l7 40h211l4 -41l-71 -19
c-5 -1 -7 -4 -7 -7c0 -2 2 -9 4 -15l132 -449c4 -14 9 -30 9 -34h10l140 441c6 20 11 41 11 49c0 17 -25 26 -77 35l6 40h205l4 -42c-58 -12 -63 -22 -74 -56l-200 -604h-72zM604 749l-139 91l-139 -91l-25 26l136 139h56l136 -139z" />
    <glyph glyph-name="wcircumflex" unicode="&#x175;" horiz-adv-x="754" 
d="M207 -9l-145 407c-9 25 -10 26 -54 36l6 39h185l4 -39l-44 -14c-5 -1 -7 -4 -7 -7c0 -2 2 -7 4 -13l92 -288c2 -5 4 -19 4 -24v-4h8c0 5 3 18 8 30l91 227l-19 57c-8 25 -12 27 -44 36l6 39h164l4 -39l-44 -14c-5 -1 -7 -4 -7 -7c0 -2 2 -7 4 -13l91 -288
c2 -6 4 -19 4 -24v-4h8c0 5 4 18 8 30l91 261c3 8 6 16 6 24c0 18 -21 23 -53 35l6 39h164l4 -39c-42 -10 -45 -11 -47 -17l-166 -426h-65l-82 252c-4 12 -5 17 -5 27h-8c0 -11 -4 -21 -6 -26l-101 -253h-65zM411 755l118 -169l-35 -25l-115 118l-114 -118l-35 25l118 169
h63z" />
    <glyph glyph-name="utilde" unicode="&#x169;" horiz-adv-x="577" 
d="M92 124v264c0 29 -19 38 -76 49l6 32c84 11 125 14 149 14l11 -10v-306c0 -51 11 -104 79 -104c32 0 68 12 106 39c16 11 21 18 21 46v240c0 29 -19 38 -76 49l6 32c84 11 125 14 149 14l11 -10v-374c0 -31 3 -43 76 -57l-6 -32l-129 -14c-10 -1 -22 50 -22 74v6l-8 3
l-12 -14c-36 -42 -83 -74 -154 -74c-78 0 -131 39 -131 133zM444 715l25 -13c-22 -51 -50 -107 -92 -107c-37 0 -128 42 -174 42c-25 0 -48 -12 -72 -42l-23 17c43 75 70 102 103 102c42 0 130 -42 170 -42c24 0 41 15 63 43z" />
    <glyph glyph-name="Utilde" unicode="&#x168;" horiz-adv-x="736" 
d="M574 573c0 57 -10 71 -96 81l6 39h235l4 -39l-62 -12c-20 -4 -20 -14 -20 -26v-359c0 -158 -84 -266 -268 -266c-166 0 -258 82 -258 258v343c0 39 -2 49 -76 62l6 39h245l4 -39l-62 -12c-19 -4 -20 -14 -20 -26v-352c0 -131 49 -206 177 -206c140 0 185 100 185 191v324
zM540 891l25 -12c-22 -48 -50 -101 -92 -101c-37 0 -128 27 -174 27c-25 0 -48 -10 -72 -34l-23 16c43 71 70 96 103 96c42 0 130 -27 170 -27c24 0 41 12 63 35z" />
    <glyph glyph-name="Eng" unicode="&#x14a;" horiz-adv-x="775" 
d="M639 91l-57 98h8v383c0 58 -10 72 -96 82l6 39h235l4 -39l-62 -12c-19 -4 -20 -14 -20 -26v-447zM595 0l-468 693h114l406 -598l-2 -94zM186 693l10 -101h-9v-492c0 -32 10 -48 44 -52l70 -9l-4 -39h-247l-6 39c74 13 76 23 76 62v491c0 39 -2 49 -76 62l6 39h136z
M590 68v555l67 45v-565c0 -237 -68 -322 -165 -322c-17 0 -37 3 -52 7c-2 8 -3 16 -3 24c0 20 6 40 17 58c28 -7 47 -10 62 -10c13 0 22 2 29 7c29 19 45 110 45 201z" />
    <glyph glyph-name="eng" unicode="&#x14b;" horiz-adv-x="594" 
d="M414 68v244c0 51 -11 104 -82 104c-39 0 -75 -16 -109 -39c-15 -10 -22 -15 -22 -46v-258c0 -16 4 -18 20 -22l44 -12l-4 -39h-214l-6 39c70 15 70 26 70 57v288c0 31 -3 43 -76 57l6 32l129 13c10 0 22 -51 22 -77v-6l8 -3l12 14c36 42 89 74 154 74
c85 0 138 -54 138 -146v-304c0 -132 -99 -257 -164 -257c-35 0 -53 3 -76 7c-2 8 -3 16 -3 24c0 20 6 40 17 58c28 -7 47 -10 62 -10c13 0 22 2 29 7c29 19 45 110 45 201z" />
    <glyph glyph-name="question" unicode="?" horiz-adv-x="424" 
d="M199 204l-47 -14c-20 28 -46 70 -46 106c0 103 207 127 207 256c0 71 -64 97 -119 97c-33 0 -63 -9 -76 -16c-10 -5 -14 -12 -21 -89l-54 6c-6 23 -8 52 -8 78c0 11 0 22 1 32c37 22 111 42 176 42c103 0 188 -51 188 -156c0 -166 -211 -188 -211 -282
c0 -17 7 -48 10 -60zM180 -9c-32 0 -58 19 -58 54c0 32 21 54 59 54c31 0 56 -15 56 -51c0 -33 -21 -57 -57 -57z" />
    <glyph glyph-name="questiondown" unicode="&#xbf;" horiz-adv-x="424" 
d="M244 492c32 0 58 -19 58 -54c0 -32 -21 -54 -59 -54c-31 0 -56 15 -56 51c0 33 21 57 57 57zM225 279l47 14c20 -28 46 -70 46 -106c0 -103 -207 -127 -207 -256c0 -71 64 -97 119 -97c33 0 63 9 76 16c10 5 14 12 21 89l54 -6c6 -23 8 -52 8 -78c0 -11 0 -22 -1 -32
c-37 -22 -111 -42 -176 -42c-103 0 -188 51 -188 156c0 166 211 188 211 282c0 17 -7 48 -10 60z" />
    <glyph glyph-name="exclam" unicode="!" horiz-adv-x="226" 
d="M167 703l12 -19l-52 -507l-50 2l-13 494zM98 -9c-32 0 -58 18 -58 55c0 30 21 53 58 53c32 0 57 -14 57 -53c0 -30 -21 -55 -57 -55z" />
    <glyph glyph-name="exclamdown" unicode="&#xa1;" horiz-adv-x="226" 
d="M128 492c32 0 58 -18 58 -55c0 -30 -21 -53 -58 -53c-32 0 -57 14 -57 53c0 30 21 55 57 55zM59 -220l-12 19l52 507l50 -2l13 -494z" />
    <glyph glyph-name="asterisk" unicode="*" horiz-adv-x="391" 
d="M222 744l9 -12l-16 -114c-2 -13 -5 -26 -8 -30l7 -4c2 4 11 16 20 23l85 63l47 -40l-5 -13l-106 -44c-12 -5 -25 -8 -30 -8v-8c5 0 20 -1 29 -5l97 -42l-11 -61l-14 -2l-91 70c-10 8 -20 17 -22 22l-7 -4c2 -4 9 -18 10 -29l13 -105l-59 -21l-9 11l16 114c2 13 5 26 8 30
l-7 4c-2 -4 -11 -16 -21 -23l-84 -63l-48 40l5 13l107 43c12 5 25 8 30 8v8c-5 0 -19 2 -30 6l-97 41l11 62l14 2l91 -71c10 -8 20 -17 22 -22l7 4c-2 4 -8 18 -9 30l-13 105z" />
    <glyph glyph-name="parenleft" unicode="(" horiz-adv-x="291" 
d="M245 -189c-84 84 -203 266 -203 488c0 202 119 380 203 462l34 -28c-90 -104 -155 -278 -155 -434c0 -174 65 -354 155 -460z" />
    <glyph glyph-name="parenright" unicode=")" horiz-adv-x="291" 
d="M46 -189l-34 28c90 106 155 286 155 460c0 156 -65 330 -155 434l34 28c84 -82 203 -260 203 -462c0 -222 -119 -404 -203 -488z" />
    <glyph glyph-name="bracketleft" unicode="[" horiz-adv-x="284" 
d="M70 -164v930h161v-53h-91v-824h91v-53h-161z" />
    <glyph glyph-name="bracketright" unicode="]" horiz-adv-x="284" 
d="M214 766v-930h-161v53h91v824h-91v53h161z" />
    <glyph glyph-name="guillemotleft" unicode="&#xab;" horiz-adv-x="460" 
d="M244 414l-105 -162l105 -174l-21 -16l-163 182v16l163 170zM420 414l-105 -162l105 -174l-21 -16l-163 182v16l163 170z" />
    <glyph glyph-name="guillemotright" unicode="&#xbb;" horiz-adv-x="460" 
d="M145 252l-105 162l21 16l163 -170v-16l-163 -182l-21 16zM321 252l-105 162l21 16l163 -170v-16l-163 -182l-21 16z" />
    <glyph glyph-name="guilsinglleft" unicode="&#x2039;" horiz-adv-x="284" 
d="M244 414l-105 -162l105 -174l-21 -16l-163 182v16l163 170z" />
    <glyph glyph-name="guilsinglright" unicode="&#x203a;" horiz-adv-x="284" 
d="M145 252l-105 162l21 16l163 -170v-16l-163 -182l-21 16z" />
    <glyph glyph-name="quotedblbase" unicode="&#x201e;" horiz-adv-x="425" 
d="M273 -139l-27 26c31 37 47 81 47 106c0 35 -32 40 -32 73c0 29 25 47 52 47c31 0 57 -25 57 -76c0 -54 -29 -124 -97 -176zM82 -139l-27 26c31 37 47 81 47 106c0 35 -32 40 -32 73c0 29 25 47 52 47c31 0 57 -25 57 -76c0 -54 -29 -124 -97 -176z" />
    <glyph glyph-name="quotesinglbase" unicode="&#x201a;" horiz-adv-x="234" 
d="M82 -139l-27 26c31 37 47 81 47 106c0 35 -32 40 -32 73c0 29 25 47 52 47c31 0 57 -25 57 -76c0 -54 -29 -124 -97 -176z" />
    <glyph glyph-name="backslash" unicode="\" horiz-adv-x="391" 
d="M15 772h69l292 -832h-70z" />
    <glyph glyph-name="oslash" unicode="&#xf8;" horiz-adv-x="520" 
d="M254 -9c-34 0 -65 5 -91 15l-37 -72l-54 20l41 80c-53 41 -81 109 -81 198c0 153 84 256 234 256c27 0 52 -4 74 -10l49 94l55 -20l-51 -98c62 -40 95 -112 95 -208c0 -153 -84 -255 -234 -255zM251 435c-27 0 -62 -7 -82 -30c-23 -26 -40 -89 -40 -158
c0 -50 8 -95 26 -130l156 303c-17 9 -37 15 -60 15zM391 232c0 58 -12 109 -36 146l-160 -310c20 -16 44 -24 74 -24c27 0 62 7 82 30c23 26 40 89 40 158z" />
    <glyph glyph-name="Oslash" unicode="&#xd8;" horiz-adv-x="709" 
d="M348 -9c-47 0 -89 8 -126 21l-48 -92l-54 20l50 98c-88 58 -135 164 -135 300c0 217 120 364 328 364c51 0 96 -9 135 -26l50 96l55 -20l-54 -104c83 -59 127 -163 127 -294c0 -217 -120 -363 -328 -363zM146 355c0 -97 22 -181 65 -237l253 492c-31 25 -70 39 -117 39
c-150 0 -201 -145 -201 -294zM364 44c150 0 201 144 201 293c0 91 -20 171 -59 228l-251 -489c30 -20 66 -32 109 -32z" />
    <glyph glyph-name="periodcentered" unicode="&#xb7;" horiz-adv-x="240" 
d="M119 193c-34 0 -64 20 -64 66c0 33 25 64 64 64c35 0 66 -17 66 -64c0 -35 -26 -66 -66 -66z" />
    <glyph glyph-name="minus" unicode="&#x2212;" horiz-adv-x="466" 
d="M45 244v53h376v-53h-376z" />
    <glyph glyph-name="caron" unicode="&#x2c7;" horiz-adv-x="299" 
d="M118 566l-118 169l35 25l115 -118l114 118l35 -25l-118 -169h-63z" />
    <glyph glyph-name="caron.cap" horiz-adv-x="328" 
d="M25 917l139 -91l139 91l25 -26l-136 -139h-56l-136 139z" />
    <glyph glyph-name="scaron" unicode="&#x161;" horiz-adv-x="437" 
d="M57 15c-2 13 -2 27 -2 41c0 36 4 73 9 99l52 4c10 -88 12 -92 21 -97c16 -9 48 -18 84 -18c29 0 47 6 59 16c15 12 22 30 22 49c0 56 -64 77 -127 105c-60 27 -118 60 -118 134c0 83 74 140 184 140c56 0 98 -15 122 -25c1 -8 1 -16 1 -24c0 -28 -6 -77 -13 -99l-46 -5
c-6 69 -11 81 -20 87c-14 10 -37 13 -61 13c-34 0 -56 -6 -68 -16c-10 -8 -20 -23 -20 -44c0 -52 64 -73 127 -101c64 -28 125 -61 125 -136c0 -80 -68 -147 -189 -147c-57 0 -121 15 -142 24zM187 566l-118 169l35 25l115 -118l114 118l35 -25l-118 -169h-63z" />
    <glyph glyph-name="Scaron" unicode="&#x160;" horiz-adv-x="523" 
d="M445 675c2 -16 3 -33 3 -51c0 -40 -5 -82 -11 -118l-58 -7c-9 94 -16 117 -27 126c-14 12 -56 21 -94 21c-41 0 -71 -10 -90 -24c-15 -11 -37 -34 -37 -76c0 -85 88 -116 173 -152s174 -81 174 -201c0 -122 -90 -202 -237 -202c-88 0 -176 29 -203 43c-3 12 -3 24 -3 44
c0 45 6 90 12 122l57 3c11 -103 17 -113 28 -121c19 -13 76 -35 132 -35c40 0 67 11 84 24c29 22 38 53 38 83c0 94 -88 127 -168 161c-85 36 -170 76 -170 190c0 124 101 197 243 197c65 0 122 -15 154 -27zM142 917l139 -91l139 91l25 -26l-136 -139h-56l-136 139z" />
    <glyph glyph-name="rcaron" unicode="&#x159;" horiz-adv-x="432" 
d="M40 0l-6 39c76 13 77 26 77 57v288c0 31 -3 45 -83 57l6 32l136 13c9 0 23 -31 23 -64c0 -16 -3 -40 -4 -47l8 -3l13 29c25 55 79 87 132 87c16 0 40 -3 66 -16c0 -37 -4 -104 -15 -164l-49 -5c-6 67 -12 90 -18 98c-4 6 -10 9 -20 9c-35 0 -73 -33 -88 -51
c-14 -16 -17 -29 -17 -61v-226c0 -12 1 -18 20 -21l91 -12l-4 -39h-268zM164 566l-118 169l35 25l115 -118l114 118l35 -25l-118 -169h-63z" />
    <glyph glyph-name="Rcaron" unicode="&#x158;" horiz-adv-x="632" 
d="M50 0l-6 39c74 13 76 23 76 62v491c0 39 -2 49 -76 62l6 39h278c148 0 211 -66 211 -168c0 -91 -55 -172 -156 -206v-5c7 -2 14 -9 22 -22l141 -212c18 -27 29 -37 82 -41l-6 -39h-142l-198 304h-65v-227c0 -12 1 -22 20 -26l55 -12l-4 -39h-238zM217 355h55
c95 0 160 30 160 161c0 107 -79 124 -135 124h-60c-19 0 -20 -12 -20 -24v-261zM152 917l139 -91l139 91l25 -26l-136 -139h-56l-136 139z" />
    <glyph glyph-name="ncaron" unicode="&#x148;" horiz-adv-x="596" 
d="M47 0l-6 39c70 15 70 26 70 57v288c0 31 -3 43 -76 57l6 32l129 13c10 0 22 -51 22 -77v-6l8 -3l12 14c36 42 89 74 154 74c85 0 138 -54 138 -146v-270c0 -12 1 -16 20 -21l49 -12l-4 -39h-214l-6 39c64 13 65 26 65 57v216c0 51 -11 104 -82 104
c-39 0 -75 -16 -109 -39c-15 -10 -22 -15 -22 -46v-258c0 -16 4 -18 20 -22l44 -12l-4 -39h-214zM257 566l-118 169l35 25l115 -118l114 118l35 -25l-118 -169h-63z" />
    <glyph glyph-name="Ncaron" unicode="&#x147;" horiz-adv-x="775" 
d="M598 0l-16 189h8v383c0 58 -10 72 -96 82l6 39h235l4 -39l-62 -12c-19 -4 -20 -14 -20 -26v-616h-59zM595 0l-468 693h114l406 -598l-2 -94zM50 0l-6 39c74 13 76 23 76 62v491c0 39 -2 49 -76 62l6 39h136l10 -101h-9v-492c0 -32 10 -48 44 -52l70 -9l-4 -39h-247z
M235 917l139 -91l139 91l25 -26l-136 -139h-56l-136 139z" />
    <glyph glyph-name="Lcaron" unicode="&#x13d;" horiz-adv-x="558" 
d="M50 0l-6 39c74 13 76 23 76 62v491c0 39 -2 49 -76 62l6 39h245l4 -39l-62 -12c-19 -4 -20 -14 -20 -26v-565l89 1c131 2 123 5 130 7c10 3 21 22 56 154l55 -5c1 -17 1 -34 1 -51c0 -61 -6 -118 -11 -157h-487zM450 774l12 -19c-6 -63 -29 -125 -65 -178l-42 14
c9 34 14 68 14 103c0 19 -1 38 -4 58z" />
    <glyph glyph-name="anoteleia" unicode="&#x387;" horiz-adv-x="232" 
d="M115 334c-30 0 -57 18 -57 59c0 29 22 56 57 56c31 0 58 -15 58 -56c0 -31 -22 -59 -58 -59z" />
    <glyph glyph-name="ldot" unicode="&#x140;" horiz-adv-x="339" 
d="M40 0l-6 39c70 15 70 26 70 57v581c0 29 -19 38 -76 49l6 32c84 11 125 14 149 14l11 -10v-690c0 -12 1 -16 20 -21l49 -12l-4 -39h-219zM312 334c-30 0 -57 18 -57 59c0 29 22 56 57 56c31 0 58 -15 58 -56c0 -31 -22 -59 -58 -59z" />
    <glyph glyph-name="ecaron" unicode="&#x11b;" horiz-adv-x="478" 
d="M34 230c0 143 90 258 233 258c124 0 173 -86 178 -209l-26 -19l-290 -16c0 -144 72 -185 158 -185c46 0 92 12 135 34l21 -33c-36 -29 -112 -69 -197 -69c-142 0 -212 113 -212 239zM132 290l207 18c9 1 10 9 10 19c0 47 -20 108 -102 108s-107 -61 -115 -145zM218 566
l-118 169l35 25l115 -118l114 118l35 -25l-118 -169h-63z" />
    <glyph glyph-name="Ecaron" unicode="&#x11a;" horiz-adv-x="592" 
d="M50 0l-6 39c74 13 76 23 76 62v491c0 39 -2 49 -76 62l6 39h466c4 -25 6 -63 6 -79c0 -28 -1 -54 -2 -77l-57 -7c-19 94 -23 104 -34 105c-18 2 -33 3 -61 4l-151 3v-269h150c8 0 15 8 32 71l31 -3c0 -112 4 -123 14 -198l-36 -6c-21 73 -24 83 -34 83h-157v-269l89 1
c131 2 135 12 142 14c10 3 20 17 44 118l55 -5c1 -17 1 -34 1 -51c0 -53 -6 -94 -11 -128h-487zM150 917l139 -91l139 91l25 -26l-136 -139h-56l-136 139z" />
    <glyph glyph-name="Gcaron" unicode="&#x1e6;" horiz-adv-x="681" 
d="M587 37c-38 -20 -129 -46 -223 -46c-228 0 -329 155 -329 340c0 170 85 371 350 371c81 0 175 -19 196 -28c5 -31 6 -62 6 -94c0 -24 -1 -49 -2 -74l-57 -8c-16 83 -28 120 -39 128c-10 8 -68 23 -121 23c-153 0 -222 -127 -222 -294c0 -222 120 -308 247 -308
c41 0 76 8 97 16v139c0 39 -2 49 -76 62l6 39h234l4 -39l-51 -12c-19 -4 -20 -14 -20 -26v-189zM213 917l139 -91l139 91l25 -26l-136 -139h-56l-136 139z" />
    <glyph glyph-name="gcaron" unicode="&#x1e7;" horiz-adv-x="554" 
d="M392 422l-13 31c41 21 96 36 134 37c6 -10 10 -32 10 -50c0 -9 -1 -17 -3 -23c-21 5 -46 8 -72 8c-19 0 -36 0 -56 -3zM256 162c-101 0 -182 49 -182 159c0 115 89 167 194 167c103 0 182 -51 182 -159c0 -115 -89 -167 -194 -167zM265 211c63 0 93 38 93 110
c0 74 -31 118 -99 118c-63 0 -93 -38 -93 -110c0 -74 31 -118 99 -118zM74 61c0 59 56 111 97 137l15 -14c-23 -24 -39 -56 -39 -79c0 -41 53 -41 103 -41c110 0 235 -1 235 -106c0 -91 -96 -177 -266 -177c-69 0 -164 14 -164 94c0 50 36 81 76 110c-32 10 -57 36 -57 76z
M160 -24c-20 -22 -28 -52 -28 -71c0 -38 32 -74 125 -74c118 0 160 58 160 93c0 60 -127 26 -257 52zM218 566l-118 169l35 25l115 -118l114 118l35 -25l-118 -169h-63z" />
    <glyph glyph-name="napostrophe" unicode="&#x149;" horiz-adv-x="596" 
d="M47 0l-6 39c70 15 70 26 70 57v288c0 31 -3 43 -76 57l6 32l129 13c10 0 22 -51 22 -77v-6l8 -3l12 14c36 42 89 74 154 74c85 0 138 -54 138 -146v-270c0 -12 1 -16 20 -21l49 -12l-4 -39h-214l-6 39c64 13 65 26 65 57v216c0 51 -11 104 -82 104
c-39 0 -75 -16 -109 -39c-15 -10 -22 -15 -22 -46v-258c0 -16 4 -18 20 -22l44 -12l-4 -39h-214zM86 557l-24 23c26 31 33 62 33 84c0 27 -27 34 -27 61c0 26 21 41 42 41c28 0 51 -19 51 -71c0 -35 -16 -92 -75 -138z" />
    <glyph glyph-name="dotlessj" unicode="&#x237;" horiz-adv-x="280" 
d="M100 68v315c0 29 -19 38 -76 49l6 32c84 11 125 14 149 14l11 -10v-430c0 -132 -99 -257 -164 -257c-35 0 -53 3 -76 7c-2 8 -3 16 -3 24c0 20 6 40 17 58c28 -7 47 -10 62 -10c13 0 22 2 29 7c29 19 45 110 45 201z" />
    <glyph glyph-name="Dcaron" unicode="&#x10e;" horiz-adv-x="713" 
d="M50 0l-6 39c74 13 76 23 76 62v491c0 39 -2 49 -76 62l6 39h313c238 0 315 -164 315 -325c0 -175 -91 -368 -337 -368h-291zM217 93c0 -12 1 -22 21 -26c25 -5 64 -14 106 -14c154 0 223 122 223 290c0 232 -132 297 -227 297h-123v-547zM172 917l139 -91l139 91l25 -26
l-136 -139h-56l-136 139z" />
    <glyph glyph-name="ccaron" unicode="&#x10d;" horiz-adv-x="468" 
d="M34 236c0 115 50 252 237 252c75 0 131 -22 146 -28c1 -8 1 -17 1 -28c0 -35 -4 -81 -12 -109l-56 -6c-15 93 -21 103 -30 107c-14 6 -55 9 -75 9c-36 0 -61 -10 -79 -37c-21 -32 -35 -90 -35 -151c0 -138 71 -186 152 -186c45 0 92 15 134 44l28 -33
c-35 -34 -101 -79 -195 -79c-146 0 -216 109 -216 245zM227 566l-118 169l35 25l115 -118l114 118l35 -25l-118 -169h-63z" />
    <glyph glyph-name="Ccaron" unicode="&#x10c;" horiz-adv-x="620" 
d="M35 331c0 170 85 371 350 371c81 0 175 -19 196 -28c5 -31 6 -62 6 -94c0 -24 -1 -49 -2 -74l-57 -8c-16 83 -28 120 -39 128c-10 8 -68 23 -121 23c-153 0 -222 -127 -222 -294c0 -222 120 -308 247 -308c58 0 105 18 114 25c8 6 14 19 34 128l55 -2
c0 -52 -6 -123 -11 -162c-36 -19 -127 -45 -221 -45c-228 0 -329 155 -329 340zM233 917l139 -91l139 91l25 -26l-136 -139h-56l-136 139z" />
    <glyph glyph-name="zcaron" unicode="&#x17e;" horiz-adv-x="443" 
d="M28 0v26l253 366c7 9 13 19 22 23l-2 7h-114c-18 0 -48 -1 -66 -3c-10 -1 -13 -12 -31 -84l-46 5c-1 16 -2 34 -2 54c0 16 2 54 6 79h366v-28l-250 -364c-6 -9 -13 -19 -22 -23l2 -7l49 1c53 1 119 5 127 7c9 2 20 11 40 99l52 -4c-1 -47 -5 -106 -11 -154h-373zM193 566
l-118 169l35 25l115 -118l114 118l35 -25l-118 -169h-63z" />
    <glyph glyph-name="Zcaron" unicode="&#x17d;" horiz-adv-x="607" 
d="M120 510l-63 7c-1 21 -2 45 -2 72c0 21 3 71 9 104h509v-26l-382 -586c-6 -9 -13 -19 -22 -23l2 -6h150c127 0 123 5 130 7c10 3 21 22 56 154l55 -5c1 -17 1 -34 1 -51c0 -61 -6 -118 -11 -157h-517v26l381 586c6 9 13 19 22 23l-2 7h-96c-41 0 -158 -3 -179 -6
c-11 -1 -21 -31 -41 -126zM185 917l139 -91l139 91l25 -26l-136 -139h-56l-136 139z" />
    <glyph glyph-name="longs" unicode="&#x17f;" horiz-adv-x="350" 
d="M423 749c0 -42 -4 -90 -13 -121l-53 -5c-16 79 -17 81 -24 86c-8 5 -28 10 -42 10c-62 0 -86 -101 -86 -253v-394c0 -12 2 -18 22 -21l75 -12l-4 -39h-247l-6 39c70 15 70 26 70 57v309h-65l-4 43l49 12c19 5 21 17 22 35c3 54 17 277 192 277c45 0 93 -15 114 -23z" />
    <glyph glyph-name="thorn" unicode="&#xfe;" horiz-adv-x="566" 
d="M32 -210l-6 39c70 15 70 26 70 57v791c0 29 -19 38 -76 49l6 32c84 11 125 14 149 14l11 -10v-281c0 -25 -1 -58 -7 -78l8 -3l10 13c30 39 79 75 143 75c99 0 181 -88 181 -238c0 -148 -79 -259 -224 -259c-46 0 -89 11 -108 26l-7 -3c2 -11 4 -29 4 -44v-108
c0 -12 1 -18 20 -21l91 -12l-4 -39h-261zM186 336v-239c20 -24 56 -49 128 -49c14 0 44 1 68 28c26 29 42 85 42 156c0 128 -53 184 -109 184c-27 0 -70 -13 -102 -34c-22 -15 -27 -27 -27 -46z" />
    <glyph glyph-name="Thorn" unicode="&#xde;" horiz-adv-x="567" 
d="M120 101v491c0 39 -2 49 -76 62l6 39h245l4 -39l-62 -12c-19 -4 -20 -14 -20 -26v-59h107c155 0 225 -75 225 -180c0 -116 -95 -215 -290 -215h-42v-85c0 -12 1 -24 20 -26l87 -12l-4 -39h-270l-6 39c74 13 76 23 76 62zM294 504h-57c-19 0 -20 -11 -20 -22v-267h24
c80 0 197 24 197 149c0 117 -87 140 -144 140z" />
    <glyph glyph-name="percent" unicode="%" horiz-adv-x="808" 
d="M611 -9c-104 0 -162 94 -162 201c0 112 62 215 172 215c104 0 162 -96 162 -202c0 -112 -63 -214 -172 -214zM609 364c-52 0 -78 -60 -78 -157c0 -118 37 -173 91 -173c52 0 79 50 79 150c0 115 -36 180 -92 180zM589 693h65l-446 -693h-66zM187 286
c-104 0 -162 94 -162 201c0 112 62 215 172 215c104 0 162 -96 162 -202c0 -112 -63 -214 -172 -214zM185 659c-52 0 -78 -60 -78 -157c0 -118 37 -173 91 -173c52 0 79 50 79 150c0 115 -36 180 -92 180z" />
    <glyph glyph-name="plus" unicode="+" horiz-adv-x="466" 
d="M45 244v53h163v167h50v-167h163v-53h-163v-171h-50v171h-163z" />
    <glyph glyph-name="equal" unicode="=" horiz-adv-x="466" 
d="M45 173v53h376v-53h-376zM45 310v53h376v-53h-376z" />
    <glyph glyph-name="bar" unicode="|" horiz-adv-x="255" 
d="M95 772h65v-982h-65v982z" />
    <glyph glyph-name="dotaccent" unicode="&#x2d9;" horiz-adv-x="312" 
d="M145 597c-32 0 -58 19 -58 59c0 31 21 56 58 56c32 0 57 -15 57 -56c0 -32 -21 -59 -57 -59z" />
    <glyph glyph-name="ampersand" unicode="&#x26;" horiz-adv-x="685" 
d="M578 396c-3 -87 -23 -177 -66 -251l72 -77c17 -17 37 -26 81 -29l-6 -39h-144l-64 68c-50 -47 -117 -77 -202 -77c-132 0 -209 72 -209 181c0 92 56 158 138 194c-64 69 -82 123 -82 173c0 96 74 163 188 163c54 0 102 -15 128 -25c1 -8 1 -16 1 -24
c0 -28 -6 -77 -13 -99l-46 -5c-6 69 -11 81 -20 87c-17 12 -58 13 -70 13c-36 0 -56 -10 -69 -23c-11 -11 -20 -28 -20 -59c0 -41 16 -75 90 -155l208 -225c30 55 45 118 45 172c0 49 -13 66 -96 75l6 39h228l4 -39l-62 -12c-19 -4 -20 -14 -20 -26zM282 54
c53 0 97 21 133 54l-200 217c-43 -25 -71 -70 -71 -130c0 -77 46 -141 138 -141z" />
    <glyph glyph-name="fraction" unicode="&#x2044;" horiz-adv-x="45" 
d="M211 693h65l-446 -693h-66z" />
    <glyph glyph-name="zero.subpercent" horiz-adv-x="384" 
d="M187 -9c-104 0 -162 94 -162 201c0 112 62 215 172 215c104 0 162 -96 162 -202c0 -112 -63 -214 -172 -214zM185 364c-52 0 -78 -60 -78 -157c0 -118 37 -173 91 -173c52 0 79 50 79 150c0 115 -36 180 -92 180z" />
    <glyph glyph-name="zero.suppercent" horiz-adv-x="384" 
d="M187 286c-104 0 -162 94 -162 201c0 112 62 215 172 215c104 0 162 -96 162 -202c0 -112 -63 -214 -172 -214zM185 659c-52 0 -78 -60 -78 -157c0 -118 37 -173 91 -173c52 0 79 50 79 150c0 115 -36 180 -92 180z" />
    <glyph glyph-name="perthousand" unicode="&#x2030;" horiz-adv-x="1187" 
d="M589 693h65l-446 -693h-66zM990 -9c-104 0 -162 94 -162 201c0 112 62 215 172 215c104 0 162 -96 162 -202c0 -112 -63 -214 -172 -214zM988 364c-52 0 -78 -60 -78 -157c0 -118 37 -173 91 -173c52 0 79 50 79 150c0 115 -36 180 -92 180zM611 -9
c-104 0 -162 94 -162 201c0 112 62 215 172 215c104 0 162 -96 162 -202c0 -112 -63 -214 -172 -214zM609 364c-52 0 -78 -60 -78 -157c0 -118 37 -173 91 -173c52 0 79 50 79 150c0 115 -36 180 -92 180zM187 286c-104 0 -162 94 -162 201c0 112 62 215 172 215
c104 0 162 -96 162 -202c0 -112 -63 -214 -172 -214zM185 659c-52 0 -78 -60 -78 -157c0 -118 37 -173 91 -173c52 0 79 50 79 150c0 115 -36 180 -92 180z" />
    <glyph glyph-name="divide" unicode="&#xf7;" horiz-adv-x="466" 
d="M226 376c-31 0 -57 18 -57 59c0 30 22 57 57 57c31 0 59 -15 59 -57c0 -31 -23 -59 -59 -59zM226 64c-31 0 -57 18 -57 59c0 30 22 57 57 57c31 0 59 -15 59 -57c0 -31 -23 -59 -59 -59zM45 244v53h376v-53h-376z" />
    <glyph glyph-name="Eth" unicode="&#xd0;" horiz-adv-x="713" 
d="M27 338v60h93v194c0 39 -2 49 -76 62l6 39h313c238 0 315 -164 315 -325c0 -175 -91 -368 -337 -368h-291l-6 39c74 13 76 23 76 62v237h-93zM238 67c25 -5 64 -14 106 -14c154 0 223 122 223 290c0 232 -132 297 -227 297h-123v-242h167v-60h-167v-245
c0 -12 1 -22 21 -26z" />
    <glyph glyph-name="eth" unicode="&#xf0;" horiz-adv-x="533" 
d="M416 774l40 -36l-132 -54c104 -119 164 -271 164 -438c0 -153 -84 -255 -234 -255c-142 0 -222 92 -222 241c0 153 84 256 234 256c34 0 65 -6 92 -16c-22 73 -55 135 -96 186l-113 -46l-39 35l119 49c-18 19 -38 37 -59 53l52 28c21 -15 44 -34 67 -56zM251 435
c-27 0 -62 -7 -82 -30c-23 -26 -40 -89 -40 -158c0 -113 45 -203 140 -203c27 0 62 7 82 30c23 26 40 89 40 158c0 117 -48 203 -140 203z" />
    <glyph glyph-name="florin" unicode="&#x192;" horiz-adv-x="350" 
d="M390 638l-53 -5c-15 67 -17 72 -24 76c-8 5 -20 10 -37 10c-56 0 -71 -105 -71 -253h118l-8 -47l-110 -15v-285c0 -119 -17 -338 -174 -338c-45 0 -93 15 -114 23c0 39 4 83 13 111l53 5c15 -67 17 -72 24 -76c8 -5 20 -10 37 -10c56 0 71 105 71 253v318h-65l-4 43
l49 12c19 5 21 17 22 35c3 54 15 277 172 277c45 0 93 -15 114 -23c0 -39 -4 -83 -13 -111z" />
    <glyph glyph-name="Euro" unicode="&#x20ac;" horiz-adv-x="585" 
d="M385 368h-375v51h74c22 144 101 283 283 283c67 0 145 -19 162 -28c5 -31 6 -62 6 -94c0 -24 -1 -49 -2 -74l-57 -8c-16 83 -28 120 -39 128c-7 8 -49 23 -87 23c-97 0 -147 -96 -158 -230h193v-51zM10 297h375v-51h-188c25 -142 99 -199 178 -199c41 0 74 18 80 25
c8 6 14 19 34 128l55 -2c0 -52 -6 -123 -11 -162c-30 -19 -107 -45 -187 -45c-157 0 -240 110 -262 255h-74v51z" />
    <glyph glyph-name="estimated" unicode="&#x212e;" horiz-adv-x="831" 
d="M811 336h-641c-3 0 -5 -1 -5 -5v-193c0 -9 3 -16 8 -23c63 -63 148 -105 242 -105c103 0 194 47 255 118h58c-70 -83 -186 -137 -314 -137c-218 0 -394 159 -394 354c0 197 176 357 394 357c220 0 397 -160 397 -357v-9zM665 362v194c0 9 -3 17 -9 23
c-62 61 -147 101 -241 101s-178 -41 -240 -103c-7 -7 -10 -15 -10 -25v-190c0 -3 2 -7 5 -7h491c3 0 4 4 4 7z" />
    <glyph glyph-name="notequal" unicode="&#x2260;" horiz-adv-x="466" 
d="M322 493l55 -20l-222 -430l-54 20zM45 173v53h376v-53h-376zM45 310v53h376v-53h-376z" />
    <glyph glyph-name="multiply" unicode="&#xd7;" 
d="M121 75l-36 36l139 139l-138 138l36 35l137 -137l138 137l37 -36l-139 -137l139 -140l-36 -35l-138 139z" />
    <glyph glyph-name="mu" unicode="&#xb5;" horiz-adv-x="577" 
d="M223 -9c-18 0 -45 2 -62 12l-7 -6l34 -180l-81 -40l-15 17v594c0 29 -19 38 -76 49l6 32c84 11 125 14 149 14l11 -10v-306c0 -51 11 -104 79 -104c32 0 68 12 106 39c16 11 21 18 21 46v240c0 29 -19 38 -76 49l6 32c84 11 125 14 149 14l11 -10v-378
c0 -31 3 -43 76 -57l-6 -32l-129 -13c-10 -1 -22 52 -22 77v6l-8 3l-12 -14c-36 -42 -83 -74 -154 -74z" />
    <glyph glyph-name="germandbls" unicode="&#xdf;" horiz-adv-x="677" 
d="M362 772c90 0 178 -57 178 -164c0 -119 -150 -144 -150 -235c0 -51 58 -72 117 -100c60 -28 121 -61 121 -136c0 -79 -69 -146 -185 -146c-55 0 -113 15 -132 24c-2 10 -2 21 -2 32c0 29 0 58 9 79l48 3c10 -66 12 -68 20 -71c12 -5 37 -14 74 -14c31 0 49 6 60 16
c15 12 22 30 22 50c0 57 -69 77 -129 107c-55 27 -103 61 -103 134c0 108 140 140 140 246c0 74 -48 122 -109 122c-94 0 -136 -101 -136 -253v-466h-154l-6 39c70 15 70 26 70 57v309h-65l-4 43l49 12c19 5 21 17 22 35c4 52 22 277 245 277z" />
    <glyph glyph-name="cedilla" unicode="&#xb8;" horiz-adv-x="485" 
d="M205 -89l38 129l49 -13l-32 -113zM210 -217l-4 31c58 8 95 28 95 58c0 20 -15 38 -46 38c-13 0 -30 -4 -41 -10l-9 11l48 37c16 5 32 7 45 7c54 0 85 -25 85 -64c0 -53 -62 -102 -173 -108z" />
    <glyph glyph-name="cedilla.cap" horiz-adv-x="477" 
d="M205 -89l38 129l49 -13l-32 -113zM210 -217l-4 31c58 7 95 28 95 58c0 20 -15 38 -46 38c-13 0 -30 -4 -41 -10l-9 11l48 37c16 5 32 7 45 7c54 0 85 -25 85 -64c0 -53 -62 -102 -173 -108z" />
    <glyph glyph-name="Ccedilla" unicode="&#xc7;" horiz-adv-x="620" 
d="M35 331c0 170 85 371 350 371c81 0 175 -19 196 -28c5 -31 6 -62 6 -94c0 -24 -1 -49 -2 -74l-57 -8c-16 83 -28 120 -39 128c-10 8 -68 23 -121 23c-153 0 -222 -127 -222 -294c0 -222 120 -308 247 -308c58 0 105 18 114 25c8 6 14 19 34 128l55 -2
c0 -52 -6 -123 -11 -162c-36 -19 -127 -45 -221 -45c-228 0 -329 155 -329 340zM291 -89l38 129l49 -13l-32 -113zM296 -217l-4 31c58 7 95 28 95 58c0 20 -15 38 -46 38c-13 0 -30 -4 -41 -10l-9 11l48 37c16 5 32 7 45 7c54 0 85 -25 85 -64c0 -53 -62 -102 -173 -108z
" />
    <glyph glyph-name="ccedilla" unicode="&#xe7;" horiz-adv-x="468" 
d="M34 236c0 115 50 252 237 252c75 0 131 -22 146 -28c1 -8 1 -17 1 -28c0 -35 -4 -81 -12 -109l-56 -6c-15 93 -21 103 -30 107c-14 6 -55 9 -75 9c-36 0 -61 -10 -79 -37c-21 -32 -35 -90 -35 -151c0 -138 71 -186 152 -186c45 0 92 15 134 44l28 -33
c-35 -34 -101 -79 -195 -79c-146 0 -216 109 -216 245zM196 -89l38 129l49 -13l-32 -113zM201 -217l-4 31c58 8 95 28 95 58c0 20 -15 38 -46 38c-13 0 -30 -4 -41 -10l-9 11l48 37c16 5 32 7 45 7c54 0 85 -25 85 -64c0 -53 -62 -102 -173 -108z" />
    <glyph glyph-name="yen" unicode="&#xa5;" horiz-adv-x="594" 
d="M370 349h-145l-142 261c-18 29 -23 32 -69 43l7 40h235l4 -41l-67 -18c-5 -1 -7 -4 -7 -7c0 -5 4 -11 7 -16l104 -201c9 -15 10 -25 10 -29h10l101 195c12 23 21 38 21 48c0 14 -17 19 -60 29l6 40h198l4 -42c-59 -12 -74 -22 -90 -54zM252 215l97 2v-140
c0 -12 1 -23 20 -26l77 -12l-4 -39h-275l-6 39c88 14 91 23 91 62v114zM112 314v53h376v-53h-376zM112 192v53h376v-53h-376z" />
    <glyph glyph-name="filledbox" unicode="&#x25a0;" horiz-adv-x="1000" 
d="M919 838v-838h-838v838h838z" />
    <glyph glyph-name="H22073" unicode="&#x25a1;" horiz-adv-x="1000" 
d="M919 838v-838h-838v838h838zM859 60v718h-718v-718h718z" />
    <glyph glyph-name="uni25CC" unicode="&#x25cc;" horiz-adv-x="500" 
d="M376 401c-32 23 -67 37 -107 41v43c50 -4 97 -22 138 -56zM121 401l-32 28c42 34 88 52 138 56v-43c-40 -4 -75 -18 -106 -41zM452 265c-3 41 -19 76 -45 105l30 31c34 -39 54 -85 59 -136h-44zM43 265h-43c4 50 23 95 58 136l30 -32c-25 -29 -40 -64 -45 -104zM496 225
c-4 -54 -22 -102 -55 -141l-31 30c23 32 39 69 42 111h44zM55 84c-32 38 -51 84 -55 141h43c3 -41 17 -77 42 -110zM410 55c-44 -36 -91 -55 -141 -59v43c40 3 78 19 112 45zM227 -4c-50 4 -98 23 -142 59l28 29c34 -26 72 -42 114 -45v-43z" />
    <glyph glyph-name="afii61352" unicode="&#x2116;" horiz-adv-x="974" 
d="M21 0l-6 39c74 13 76 23 76 62v491c0 39 -2 49 -76 62l6 39h180l227 -410c8 -15 17 -31 17 -37h8v326c0 58 -10 72 -96 82l6 39h228l4 -39l-62 -12c-19 -4 -20 -14 -20 -26v-616l-46 -9l-291 528c-10 18 -16 30 -17 37h-8v-456c0 -32 10 -48 44 -52l70 -9l-4 -39h-240z
M758 286c-104 0 -163 67 -163 177c0 112 61 187 171 187c104 0 163 -68 163 -177c0 -112 -62 -187 -171 -187zM756 604c-18 0 -41 -5 -53 -21c-15 -18 -27 -62 -27 -109c0 -79 30 -143 92 -143c18 0 41 6 54 22c14 18 25 62 25 110c0 78 -30 141 -91 141zM597 175v53h330
v-53h-330z" />
    <glyph glyph-name="Lslash" unicode="&#x141;" horiz-adv-x="558" 
d="M62 215l-28 43l348 229l28 -43zM50 0l-6 39c74 13 76 23 76 62v491c0 39 -2 49 -76 62l6 39h245l4 -39l-62 -12c-19 -4 -20 -14 -20 -26v-565l89 1c131 2 123 5 130 7c10 3 21 22 56 154l55 -5c1 -17 1 -34 1 -51c0 -61 -6 -118 -11 -157h-487z" />
    <glyph glyph-name="lslash" unicode="&#x142;" horiz-adv-x="303" 
d="M43 286l-28 43l260 170l28 -43zM40 0l-6 39c70 15 70 26 70 57v581c0 29 -19 38 -76 49l6 32c84 11 125 14 149 14l11 -10v-690c0 -12 1 -16 20 -21l49 -12l-4 -39h-219z" />
    <glyph glyph-name="plusminus" unicode="&#xb1;" horiz-adv-x="466" 
d="M45 306v53h163v167h50v-167h163v-53h-163v-171h-50v171h-163zM45 -1v53h376v-53h-376z" />
    <glyph glyph-name="paragraph.alt2" horiz-adv-x="597" 
d="M190 39c74 13 76 23 76 62v177c-133 4 -201 106 -201 225c0 110 66 190 202 190h288l4 -39l-62 -12c-19 -4 -20 -14 -20 -26v-539c0 -12 1 -22 20 -26l62 -12l-4 -39h-160v640h-47v-640h-152z" />
    <glyph glyph-name="numbersign" unicode="#" horiz-adv-x="551" 
d="M194 693h58l-27 -201h132l27 201h58l-27 -201h100v-59h-107l-20 -152h106v-59h-113l-29 -222h-59l29 222h-131l-29 -222h-59l29 222h-97v59h105l20 152h-104v59h111zM218 433l-20 -152h132l20 152h-132z" />
    <glyph glyph-name="paragraph.alt3" horiz-adv-x="597" 
d="M559 654l-62 -12c-19 -4 -20 -14 -20 -26v-539c0 -12 1 -22 20 -26l62 -12l-4 -39h-191c-228 0 -312 193 -312 368c0 161 72 325 290 325h213zM348 640v-587h47v587h-47z" />
    <glyph glyph-name="paragraph.alt4" horiz-adv-x="597" 
d="M395 0v640h-47v-512c0 -124 -79 -247 -142 -247c-38 0 -58 3 -83 8c-2 8 -3 17 -3 26c0 21 7 43 19 62c30 -7 50 -11 67 -11c14 0 23 3 31 8c27 19 29 98 29 184v120c-133 4 -201 106 -201 225c0 110 66 190 202 190h288l4 -39l-62 -12c-19 -4 -20 -14 -20 -26v-539
c0 -12 1 -22 20 -26l62 -12l-4 -39h-160z" />
    <glyph glyph-name="cent.alt" horiz-adv-x="424" 
d="M375 523c1 -6 1 -14 1 -23c0 -28 -3 -66 -10 -89l-48 -5c-12 73 -17 82 -24 85c-13 5 -48 7 -64 7c-31 0 -52 -8 -67 -30c-18 -25 -29 -72 -29 -121c0 -111 58 -150 124 -150c39 0 81 13 117 37l26 -30c-28 -26 -78 -58 -148 -64l3 -140h-65l3 141
c-102 16 -150 98 -150 199c0 82 33 177 150 200l-3 128h65l-4 -122c64 0 111 -18 123 -23z" />
    <glyph glyph-name="paragraph.alt1" horiz-adv-x="597" 
d="M348 34c-16 -3 -52 -6 -71 -6l-11 10v240c-154 4 -231 106 -231 225c0 110 57 190 172 190h348l4 -39l-62 -12c-19 -4 -20 -14 -20 -26v-488c0 -124 -79 -247 -144 -247c-38 0 -58 3 -83 8c-2 8 -3 17 -3 26c0 21 7 43 19 62c30 -7 50 -11 67 -11c14 0 23 3 31 8
c29 19 31 98 31 184v482h-47v-606zM251 640h-11c-37 0 -94 -25 -94 -150c0 -133 67 -159 120 -159v294c0 8 -6 15 -15 15z" />
    <glyph glyph-name="brokenbar" unicode="&#xa6;" horiz-adv-x="255" 
d="M95 772h65v-417h-65v417zM95 208h65v-418h-65v418z" />
    <glyph glyph-name="less" unicode="&#x3c;" horiz-adv-x="517" 
d="M26 225v50l464 230v-69l-386 -186l386 -185v-69z" />
    <glyph glyph-name="greater" unicode="&#x3e;" horiz-adv-x="517" 
d="M490 275v-50l-464 -229v69l386 185l-386 186v69z" />
    <glyph glyph-name="currency" unicode="&#xa4;" horiz-adv-x="603" 
d="M296 138c-47 0 -86 9 -118 25l-97 -97l-46 46l91 91c-28 33 -42 78 -42 132c0 51 13 95 39 130l-87 88l46 45l88 -89c36 23 82 36 138 36c52 0 95 -11 128 -32l85 85l47 -46l-84 -83c24 -32 36 -73 36 -122c0 -57 -16 -105 -47 -140l95 -96l-46 -45l-101 100
c-34 -18 -76 -28 -125 -28zM293 492c-27 0 -61 -7 -81 -27c-17 -19 -31 -65 -31 -117c0 -87 42 -157 130 -157c27 0 61 7 81 27c17 19 31 65 31 117c0 87 -42 157 -130 157z" />
    <glyph glyph-name="summation" unicode="&#x2211;" horiz-adv-x="607" 
d="M486 134l52 -5c1 -16 2 -36 2 -50c0 -29 -5 -113 -16 -146h-482v33l242 319l-242 382v26h478c6 -33 9 -83 9 -104c0 -27 -1 -51 -2 -72l-63 -7c-20 95 -30 125 -41 126c-21 3 -107 6 -148 6h-96l-2 -7c9 -4 16 -14 22 -23l182 -287l-238 -315h218c37 0 75 3 84 4
c13 1 19 12 41 120z" />
    <glyph glyph-name="product" unicode="&#x220f;" horiz-adv-x="681" 
d="M217 607v-597c0 -12 1 -22 20 -26l62 -12l-4 -39h-245l-6 39c74 13 76 23 76 62v558c0 39 -2 49 -76 62l6 39h589l4 -39l-62 -12c-19 -4 -20 -14 -20 -26v-606c0 -12 1 -22 20 -26l62 -12l-4 -39h-245l-6 39c74 13 76 23 76 62v549c0 39 -2 50 -76 50h-153
c-15 0 -18 -15 -18 -26z" />
    <glyph glyph-name="Delta" unicode="&#x2206;" horiz-adv-x="641" 
d="M287 702h69l235 -660v-42h-544v40zM298 587l-184 -534h362l-165 505c-4 12 -6 25 -6 29h-7z" />
    <glyph glyph-name="Omega" unicode="&#x2126;" horiz-adv-x="718" 
d="M632 171l51 -5c-6 -57 -22 -118 -44 -166h-236l-10 32c82 106 151 220 151 364c0 142 -64 253 -196 253c-133 0 -179 -122 -179 -246c0 -157 84 -258 157 -371l-10 -32h-237c-22 51 -37 111 -44 166l51 5c38 -81 44 -89 57 -90c7 -1 36 -4 64 -4h26l3 7
c-8 3 -19 9 -29 19c-111 111 -149 205 -149 309c0 173 113 290 306 290c187 0 291 -106 291 -267c0 -112 -42 -216 -146 -329c-12 -13 -24 -19 -31 -22l3 -7h31c29 0 57 3 64 4c13 1 19 9 56 90z" />
    <glyph glyph-name="ae" unicode="&#xe6;" horiz-adv-x="763" 
d="M139 337l-54 6c-6 23 -8 50 -8 76c0 11 0 22 1 32c40 25 109 37 167 37c74 0 121 -20 143 -68c40 42 96 68 164 68c124 0 173 -86 178 -209l-26 -19l-290 -16c0 -144 72 -185 158 -185c46 0 92 12 135 34l21 -33c-36 -29 -112 -69 -197 -69c-89 0 -149 43 -182 107h-6
c-30 -55 -87 -107 -169 -107c-70 0 -132 45 -132 132c0 97 76 147 272 159v23c0 73 -22 130 -94 130c-19 0 -49 -4 -57 -13c-6 -7 -17 -45 -24 -85zM417 290l207 18c9 1 10 9 10 19c0 47 -20 108 -102 108s-107 -61 -115 -145zM314 131v107c-117 -12 -175 -36 -175 -106
c0 -49 29 -72 69 -72c36 0 65 19 83 33s23 24 23 38z" />
    <glyph glyph-name="AE" unicode="&#xc6;" horiz-adv-x="880" 
d="M328 693h497c4 -25 6 -63 6 -79c0 -28 -1 -54 -2 -77l-57 -7c-19 94 -23 104 -34 105c-18 2 -33 3 -61 4l-152 3v-269h151c8 0 15 8 32 71l31 -3c0 -112 4 -123 14 -198l-36 -6c-21 73 -24 83 -34 83h-158v-269l85 1c132 2 140 9 147 14c8 6 12 15 42 117l55 -4
c1 -13 1 -26 1 -39c0 -46 -4 -93 -11 -140h-486l-6 39c74 13 76 23 76 62v219h-153l-134 -233c-4 -7 -9 -14 -9 -19c0 -4 3 -7 11 -9l68 -18l-4 -41h-186l-7 40c45 12 46 13 63 43l300 523c4 7 6 12 6 17c0 14 -16 23 -61 31zM422 587l-117 -214h123v214h-6z" />
    <glyph glyph-name="OE" unicode="&#x152;" horiz-adv-x="993" 
d="M348 -9c-202 0 -313 138 -313 347c0 217 120 364 328 364c71 0 101 -9 554 -9c4 -25 6 -63 6 -79c0 -28 -1 -54 -2 -77l-57 -7c-19 94 -23 104 -34 105c-18 2 -33 3 -61 4l-151 3v-269h150c8 0 15 8 32 71l31 -3c0 -112 4 -123 14 -198l-36 -6c-21 73 -24 83 -34 83h-157
v-269l86 1c132 2 140 9 147 14c8 6 12 15 42 117l55 -4c1 -13 1 -26 1 -39c0 -46 -4 -93 -11 -140c-446 0 -531 -9 -590 -9zM364 44c95 0 157 2 157 106v399c0 88 -44 100 -149 100c-177 0 -226 -133 -226 -294c0 -176 72 -311 218 -311z" />
    <glyph glyph-name="oe" unicode="&#x153;" horiz-adv-x="835" 
d="M802 279l-26 -19l-290 -16c0 -144 60 -185 152 -185c46 0 92 12 135 34l21 -33c-36 -29 -112 -69 -197 -69c-79 0 -133 36 -165 91c-36 -57 -92 -91 -178 -91c-142 0 -222 92 -222 241c0 153 84 256 234 256c87 0 140 -35 175 -97c38 59 101 97 183 97
c124 0 173 -86 178 -209zM489 290l207 18c9 1 10 9 10 19c0 47 -20 108 -102 108s-107 -61 -115 -145zM251 435c-27 0 -62 -7 -82 -30c-23 -26 -40 -89 -40 -158c0 -113 45 -203 140 -203c27 0 62 7 82 30c22 26 38 89 38 158c0 113 -44 203 -138 203z" />
    <glyph glyph-name="section" unicode="&#xa7;" horiz-adv-x="437" 
d="M25 280c0 39 13 90 104 147c-37 28 -69 64 -69 136s65 139 179 139c57 0 107 -15 128 -24c2 -13 2 -27 2 -41c0 -36 -4 -73 -9 -99l-52 -4c-5 87 -12 97 -20 102c-16 10 -33 13 -62 13c-26 0 -48 -4 -62 -12c-19 -11 -25 -33 -25 -52c0 -59 35 -91 84 -117l61 -33
c64 -35 144 -62 144 -147c0 -39 -13 -88 -102 -146c35 -25 62 -59 62 -115c0 -79 -72 -146 -199 -146c-57 0 -121 15 -142 24c-2 13 -2 27 -2 41c0 36 0 73 9 99l52 4c10 -88 11 -92 21 -97c16 -9 48 -18 84 -18c34 0 55 6 69 16c15 12 22 30 22 49c0 58 -47 87 -101 116
l-32 18c-64 35 -144 62 -144 147zM215 207l67 -37c34 26 67 57 67 91c0 47 -56 68 -111 99l-67 38c-41 -32 -67 -60 -67 -91c0 -47 56 -69 111 -100z" />
    <glyph glyph-name="lessequal" unicode="&#x2264;" horiz-adv-x="466" 
d="M45 313v75l375 213v-69l-319 -182l319 -180v-69zM45 0v51h376v-51h-376z" />
    <glyph glyph-name="greaterequal" unicode="&#x2265;" horiz-adv-x="466" 
d="M421 388v-75l-375 -212v69l319 180l-319 182v69zM421 51v-51h-376v51h376z" />
    <glyph glyph-name="asciitilde" unicode="~" horiz-adv-x="485" 
d="M422 324l35 -24c-28 -45 -62 -100 -108 -100c-16 0 -28 3 -44 8c-21 7 -103 38 -122 44c-15 5 -31 8 -42 8c-24 0 -44 -13 -76 -49l-35 24c44 74 71 100 108 100c12 0 29 -3 48 -9c29 -9 93 -34 112 -41c14 -5 33 -10 48 -10c31 0 50 21 76 49z" />
    <glyph glyph-name="braceleft" unicode="{" horiz-adv-x="323" 
d="M30 282v38c35 14 61 25 72 54c4 12 7 29 7 43c0 78 -10 156 -10 235c0 71 46 114 107 114c18 0 39 -2 64 -4v-43c-52 -6 -91 -14 -91 -76v-253c0 -17 -1 -29 -7 -44c-7 -19 -28 -34 -52 -41l-11 -3v-2l11 -3c24 -6 45 -22 52 -41c7 -15 7 -27 7 -44v-253
c0 -62 39 -70 91 -76v-43c-25 -2 -46 -4 -64 -4c-61 0 -107 43 -107 114c0 78 10 156 10 235c0 14 -3 31 -7 43c-11 29 -37 40 -72 54z" />
    <glyph glyph-name="braceright" unicode="}" horiz-adv-x="323" 
d="M293 320v-38c-35 -14 -61 -25 -72 -54c-4 -12 -7 -29 -7 -43c0 -79 10 -157 10 -235c0 -71 -46 -114 -107 -114c-18 0 -39 2 -64 4v43c52 6 91 14 91 76v253c0 17 0 29 7 44c7 19 28 35 52 41l11 3v2l-11 3c-24 7 -45 22 -52 41c-6 15 -7 27 -7 44v253
c0 62 -39 70 -91 76v43c25 2 46 4 64 4c61 0 107 -43 107 -114c0 -79 -10 -157 -10 -235c0 -14 3 -31 7 -43c11 -29 37 -40 72 -54z" />
    <glyph glyph-name="sterling" unicode="&#xa3;" horiz-adv-x="521" 
d="M16 314v53h74c-3 19 -5 38 -5 62c0 183 108 273 256 273c31 0 65 -4 122 -25c1 -8 1 -16 1 -24c0 -28 -6 -77 -13 -99l-46 -5c-5 58 -8 76 -17 84c-10 10 -37 16 -65 16c-99 0 -127 -62 -127 -210c0 -24 1 -48 3 -72h193v-53h-190c1 -12 1 -23 1 -34
c0 -63 -10 -124 -55 -179l3 -5c13 9 38 20 71 20c66 0 138 -36 179 -36c30 0 49 20 73 41l35 -23c-26 -49 -55 -107 -131 -107c-70 0 -124 43 -212 43c-52 0 -77 -19 -112 -44l-25 33c77 85 81 133 81 178c0 47 -6 81 -11 113h-83z" />
    <glyph glyph-name="at" unicode="@" horiz-adv-x="795" 
d="M31 185c0 238 167 405 404 405c178 0 329 -89 329 -281c0 -87 -38 -212 -122 -296c-37 -4 -87 -8 -119 -14c-30 5 -44 26 -44 66c0 18 3 39 5 52l6 42l-7 2c-35 -88 -85 -159 -165 -159c-75 0 -108 63 -108 161c0 167 96 292 219 292c32 0 67 -8 100 -19l40 10l19 -12
c-10 -70 -40 -222 -40 -319c0 -40 5 -65 32 -65c74 0 108 187 108 260c0 124 -98 230 -268 230c-220 0 -307 -174 -307 -347c0 -153 69 -261 261 -261c18 0 40 1 120 20c0 -13 11 -25 11 -40l-9 -12c-101 -20 -135 -21 -154 -21c-216 0 -311 126 -311 306zM343 63
c72 0 148 189 153 315c-20 10 -56 26 -91 26c-23 0 -52 -7 -59 -15c-29 -36 -51 -142 -51 -220c0 -65 15 -106 48 -106z" />
    <glyph glyph-name="asciicircum" unicode="^" horiz-adv-x="501" 
d="M205 693h77l195 -369h-68l-166 313l-151 -313h-68z" />
    <glyph glyph-name="infinity" unicode="&#x221e;" horiz-adv-x="759" 
d="M535 128c-65 0 -126 30 -167 96c-32 -47 -85 -96 -161 -96c-78 0 -155 49 -155 150c0 107 74 173 172 173c65 0 126 -30 167 -96c32 47 85 96 161 96c78 0 155 -49 155 -150c0 -108 -74 -173 -172 -173zM553 186c51 0 95 44 95 106c0 57 -32 107 -97 107
c-57 0 -106 -41 -132 -89c36 -65 73 -124 134 -124zM207 393c-52 0 -96 -45 -96 -104c0 -60 41 -109 105 -109c62 0 103 48 124 89c-36 64 -73 124 -133 124z" />
    <glyph glyph-name="logicalnot" unicode="&#xac;" horiz-adv-x="516" 
d="M471 164h-57v171h-369v53h426v-224z" />
    <glyph glyph-name="approxequal" unicode="&#x2248;" horiz-adv-x="466" 
d="M412 424l35 -24c-28 -45 -62 -100 -108 -100c-16 0 -28 3 -44 8c-21 7 -103 38 -122 44c-15 5 -31 8 -42 8c-24 0 -44 -13 -76 -49l-35 24c44 74 71 100 108 100c12 0 29 -3 48 -9c29 -9 93 -34 112 -41c14 -5 33 -10 48 -10c31 0 50 21 76 49zM412 274l35 -24
c-28 -45 -62 -100 -108 -100c-16 0 -28 3 -44 8c-21 7 -103 38 -122 44c-15 5 -31 8 -42 8c-24 0 -44 -13 -76 -49l-35 24c44 74 71 100 108 100c12 0 29 -3 48 -9c29 -9 93 -34 112 -41c14 -5 33 -10 48 -10c31 0 50 21 76 49z" />
    <glyph glyph-name="dagger" unicode="&#x2020;" horiz-adv-x="508" 
d="M269 -219h-40l-30 386l24 189c3 20 8 39 13 46l-9 11c-6 -3 -28 -11 -46 -14l-112 -20l-34 90l18 14l126 -24c20 -4 40 -8 46 -13l11 9c-3 6 -12 28 -14 46l-20 173l90 34l14 -18l-24 -187c-3 -20 -8 -40 -13 -46l11 -12c7 3 28 12 45 15l116 20l32 -90l-17 -14l-130 24
c-20 4 -39 8 -46 13l-12 -11c3 -7 13 -28 15 -45l20 -175z" />
    <glyph glyph-name="daggerdbl" unicode="&#x2021;" horiz-adv-x="508" 
d="M35 92l18 14l126 -24c20 -4 40 -8 46 -13l11 9c-3 6 -11 28 -14 46l-21 113l22 119c4 20 8 39 13 46l-9 11c-6 -3 -28 -11 -46 -14l-112 -20l-34 90l18 14l126 -24c20 -4 40 -8 46 -13l11 9c-3 6 -12 28 -14 46l-20 173l90 34l14 -18l-24 -187c-3 -20 -8 -40 -13 -46
l11 -12c7 3 28 12 45 15l116 20l32 -90l-17 -14l-130 24c-20 4 -39 8 -46 13l-12 -11c3 -7 12 -28 15 -45l22 -104l-23 -127c-3 -20 -8 -40 -13 -46l11 -12c7 3 28 12 45 15l116 20l32 -90l-17 -14l-130 24c-20 4 -39 8 -46 13l-12 -11c3 -7 13 -28 15 -45l20 -167l-90 -32
l-14 17l24 181c3 20 8 39 13 46l-9 11c-6 -3 -28 -11 -46 -14l-112 -20z" />
    <glyph glyph-name="ordmasculine" unicode="&#xba;" horiz-adv-x="384" 
d="M188 338c-104 0 -163 67 -163 177c0 112 61 187 171 187c104 0 163 -68 163 -177c0 -112 -62 -187 -171 -187zM186 656c-18 0 -41 -5 -53 -21c-15 -18 -27 -62 -27 -109c0 -79 30 -143 92 -143c18 0 41 6 54 22c14 18 25 62 25 110c0 78 -30 141 -91 141zM27 227v53h330
v-53h-330z" />
    <glyph glyph-name="ordfeminine" unicode="&#xaa;" horiz-adv-x="378" 
d="M117 586l-50 4c-5 17 -7 37 -7 56c0 8 0 18 1 29c29 18 80 27 122 27c82 0 117 -31 117 -114v-166c0 -21 2 -30 55 -40l-4 -30l-88 -9c-9 0 -23 22 -23 45v14l-5 2l-9 -13c-17 -26 -49 -53 -95 -53c-51 0 -96 33 -96 98c0 72 52 110 188 112v21c0 50 -13 88 -57 88
c-12 0 -30 -3 -35 -9c-3 -5 -10 -33 -14 -62zM223 443v67c-71 -2 -106 -19 -106 -66c0 -33 17 -49 41 -49c23 0 40 13 51 22c11 10 14 17 14 26zM29 227v53h330v-53h-330z" />
    <glyph glyph-name="copyright" unicode="&#xa9;" horiz-adv-x="841" 
d="M418 -9c-241 0 -373 138 -373 347c0 217 142 364 388 364c241 0 373 -135 373 -338c0 -223 -142 -373 -388 -373zM434 44c205 0 275 148 275 303c0 170 -97 302 -292 302c-205 0 -275 -146 -275 -294c0 -176 97 -311 292 -311zM450 578c69 0 133 -42 147 -51v-22
c0 -37 -3 -70 -9 -95l-68 -6c-10 87 -10 97 -17 101c-8 11 -35 20 -60 20c-89 0 -130 -73 -130 -177c0 -129 80 -181 146 -181c24 0 51 7 54 15c4 4 10 13 18 83l59 -4c6 -19 10 -52 10 -78c0 -9 0 -22 -1 -30c-22 -20 -101 -39 -137 -39c-189 0 -246 109 -246 234
c0 103 64 230 234 230z" />
    <glyph glyph-name="registered" unicode="&#xae;" horiz-adv-x="841" 
d="M418 -9c-241 0 -373 138 -373 347c0 217 142 364 388 364c241 0 373 -135 373 -338c0 -223 -142 -373 -388 -373zM434 44c205 0 275 148 275 303c0 170 -97 302 -292 302c-205 0 -275 -146 -275 -294c0 -176 97 -311 292 -311zM253 124l-4 37c29 8 39 14 39 37v301
c0 23 -1 29 -41 37l4 36h193c102 0 146 -41 146 -105c0 -46 -36 -105 -103 -132v-4c6 -1 10 -6 16 -14l80 -130c11 -17 21 -22 43 -26l-4 -37h-99l-110 190h-38v-130c0 -8 0 -13 13 -16l35 -7l-2 -37h-168zM412 526h-25c-12 0 -12 -7 -12 -13v-151h22c59 0 99 18 99 92
c0 62 -48 72 -84 72z" />
    <glyph glyph-name="uni2042" unicode="&#x2042;" horiz-adv-x="771" 
d="M412 744l9 -12l-16 -114c-2 -13 -5 -26 -8 -30l7 -4c2 4 11 16 20 23l85 63l47 -40l-5 -13l-106 -44c-12 -5 -25 -8 -30 -8v-8c5 0 20 -1 29 -5l97 -42l-11 -61l-14 -2l-91 70c-10 8 -20 17 -22 22l-7 -4c2 -4 9 -18 10 -29l13 -105l-59 -21l-9 11l16 114c2 13 5 26 8 30
l-7 4c-2 -4 -11 -16 -21 -23l-84 -63l-48 40l5 13l107 43c12 5 25 8 30 8v8c-5 0 -19 2 -30 6l-97 41l11 62l14 2l91 -71c10 -8 20 -17 22 -22l7 4c-2 4 -8 18 -9 30l-13 105zM222 406l9 -12l-16 -114c-2 -13 -5 -26 -8 -30l7 -4c2 4 11 16 20 23l85 63l47 -40l-5 -13
l-106 -44c-12 -5 -25 -8 -30 -8v-8c5 0 20 -1 29 -5l97 -42l-11 -61l-14 -2l-91 70c-10 8 -20 17 -22 22l-7 -4c2 -4 9 -18 10 -29l13 -105l-59 -21l-9 11l16 114c2 13 5 26 8 30l-7 4c-2 -4 -11 -16 -21 -23l-84 -63l-48 40l5 13l107 43c12 5 25 8 30 8v8c-5 0 -19 2 -30 6
l-97 41l11 62l14 2l91 -71c10 -8 20 -17 22 -22l7 4c-2 4 -8 18 -9 30l-13 105zM602 406l9 -12l-16 -114c-2 -13 -5 -26 -8 -30l7 -4c2 4 11 16 20 23l85 63l47 -40l-5 -13l-106 -44c-12 -5 -25 -8 -30 -8v-8c5 0 20 -1 29 -5l97 -42l-11 -61l-14 -2l-91 70
c-10 8 -20 17 -22 22l-7 -4c2 -4 9 -18 10 -29l13 -105l-59 -21l-9 11l16 114c2 13 5 26 8 30l-7 4c-2 -4 -11 -16 -21 -23l-84 -63l-48 40l5 13l107 43c12 5 25 8 30 8v8c-5 0 -19 2 -30 6l-97 41l11 62l14 2l91 -71c10 -8 20 -17 22 -22l7 4c-2 4 -8 18 -9 30l-13 105z
" />
    <glyph glyph-name="prescription" unicode="&#x211e;" horiz-adv-x="652" 
d="M50 0l-6 39c74 13 76 23 76 62v491c0 39 -2 49 -76 62l6 39h280c148 0 209 -66 209 -168c0 -65 -44 -149 -125 -193l79 -120l43 55c5 4 6 8 6 11c0 11 -17 15 -31 18l4 26h126l4 -26c-32 -5 -35 -8 -38 -11l-91 -108l64 -97c14 -28 39 -37 92 -41l-6 -39h-156l-66 101
l-38 -45c-3 -5 -4 -9 -4 -12c0 -10 17 -15 30 -18l-4 -26h-127l-2 26c32 6 36 8 39 10l84 98l-111 170h-13h-81v-227c0 -12 1 -20 20 -26l35 -12l-4 -39h-218zM299 640h-66c-15 -2 -16 -13 -16 -24v-261h55c95 0 160 30 160 161c0 107 -77 124 -133 124z" />
    <glyph glyph-name="integral" unicode="&#x222b;" horiz-adv-x="382" 
d="M151 127c0 158 -10 316 -10 476c0 130 94 251 154 251c35 0 53 -3 76 -7c2 -8 3 -16 3 -24c0 -20 -5 -40 -17 -58c-27 7 -47 10 -62 10c-17 0 -30 -2 -39 -7c-15 -18 -25 -97 -25 -180c0 -157 10 -314 10 -474c0 -130 -94 -251 -154 -251c-35 0 -53 3 -76 7
c-2 8 -3 16 -3 24c0 20 5 40 17 58c27 -7 46 -10 62 -10c19 0 28 2 39 7c16 17 25 95 25 178z" />
    <glyph glyph-name="lozenge" unicode="&#x25ca;" horiz-adv-x="494" 
d="M202 772h86l192 -419l-192 -420h-86l-180 420zM244 -3l159 356l-159 355l-145 -355z" />
    <glyph glyph-name="degree" unicode="&#xb0;" horiz-adv-x="365" 
d="M178 435c-85 0 -133 49 -133 130c0 82 50 137 140 137c86 0 134 -50 134 -130c0 -82 -51 -137 -141 -137zM178 486c54 0 84 35 84 86c0 49 -28 79 -77 79c-53 0 -83 -35 -83 -86c0 -49 27 -79 76 -79z" />
    <glyph glyph-name="ring" unicode="&#x2da;" horiz-adv-x="518" 
d="M229 564c-62 0 -96 34 -96 93c0 60 36 98 101 98c62 0 96 -36 96 -92c0 -59 -36 -99 -101 -99zM229 607c33 0 51 23 51 56c0 30 -16 49 -46 49c-33 0 -52 -22 -52 -55c0 -32 17 -50 47 -50z" />
    <glyph glyph-name="ring.cap" horiz-adv-x="518" 
d="M322 739c-52 0 -96 32 -96 88s46 92 101 92c52 0 96 -34 96 -87c0 -55 -46 -93 -101 -93zM322 782c30 0 51 21 51 50c0 27 -19 44 -46 44c-35 0 -52 -20 -52 -49s20 -45 47 -45z" />
    <glyph glyph-name="Aring" unicode="&#xc5;" horiz-adv-x="670" 
d="M14 0l-7 40c51 13 53 15 63 43l224 619h83l229 -635c4 -11 16 -17 59 -25l-4 -42h-233l-6 40c46 9 70 17 70 33c0 6 -1 11 -4 21l-44 130h-259l-51 -142c-2 -6 -4 -13 -4 -15s1 -6 6 -7l71 -19l-4 -41h-189zM204 277h223l-98 281c-4 12 -7 25 -7 29h-10zM339 739
c-52 0 -96 32 -96 88s46 92 101 92c52 0 96 -34 96 -87c0 -55 -46 -93 -101 -93zM339 782c30 0 51 21 51 50c0 27 -19 44 -46 44c-35 0 -52 -20 -52 -49s20 -45 47 -45z" />
    <glyph glyph-name="aring" unicode="&#xe5;" horiz-adv-x="512" 
d="M42 123c0 97 76 148 272 150v32c0 73 -22 130 -94 130c-19 0 -49 -4 -57 -13c-6 -7 -17 -45 -24 -85l-54 6c-6 23 -8 50 -8 76c0 11 0 22 1 32c40 25 109 37 167 37c111 0 159 -44 159 -159v-230c0 -31 3 -43 76 -57l-6 -32l-120 -13c-13 0 -32 30 -32 60c0 6 0 11 1 19
l-8 3l-12 -18c-23 -34 -66 -70 -129 -70c-70 0 -132 45 -132 132zM139 132c0 -50 29 -73 69 -73c36 0 65 20 83 34s23 24 23 38v98c-117 -2 -175 -27 -175 -97zM241 564c-62 0 -96 34 -96 93c0 60 36 98 101 98c62 0 96 -36 96 -92c0 -59 -36 -99 -101 -99zM241 607
c33 0 51 23 51 56c0 30 -16 49 -46 49c-33 0 -52 -22 -52 -55c0 -32 17 -50 47 -50z" />
    <glyph glyph-name="Uring" unicode="&#x16e;" horiz-adv-x="736" 
d="M574 573c0 57 -10 71 -96 81l6 39h235l4 -39l-62 -12c-20 -4 -20 -14 -20 -26v-359c0 -158 -84 -266 -268 -266c-166 0 -258 82 -258 258v343c0 39 -2 49 -76 62l6 39h245l4 -39l-62 -12c-19 -4 -20 -14 -20 -26v-352c0 -131 49 -206 177 -206c140 0 185 100 185 191v324
zM371 739c-52 0 -96 32 -96 88s46 92 101 92c52 0 96 -34 96 -87c0 -55 -46 -93 -101 -93zM371 782c30 0 51 21 51 50c0 27 -19 44 -46 44c-35 0 -52 -20 -52 -49s20 -45 47 -45z" />
    <glyph glyph-name="uring" unicode="&#x16f;" horiz-adv-x="577" 
d="M92 124v264c0 29 -19 38 -76 49l6 32c84 11 125 14 149 14l11 -10v-306c0 -51 11 -104 79 -104c32 0 68 12 106 39c16 11 21 18 21 46v240c0 29 -19 38 -76 49l6 32c84 11 125 14 149 14l11 -10v-374c0 -31 3 -43 76 -57l-6 -32l-129 -14c-10 -1 -22 50 -22 74v6l-8 3
l-12 -14c-36 -42 -83 -74 -154 -74c-78 0 -131 39 -131 133zM263 564c-62 0 -96 34 -96 93c0 60 36 98 101 98c62 0 96 -36 96 -92c0 -59 -36 -99 -101 -99zM263 607c33 0 51 23 51 56c0 30 -16 49 -46 49c-33 0 -52 -22 -52 -55c0 -32 17 -50 47 -50z" />
    <glyph glyph-name="hungarumlaut" unicode="&#x2dd;" horiz-adv-x="396" 
d="M396 735v-23l-167 -151l-35 25l107 179zM198 735v-23l-167 -151l-35 25l107 179z" />
    <glyph glyph-name="hungarumlaut.cap" horiz-adv-x="265" 
d="M333 885v-23l-177 -111l-35 25l117 139zM135 885v-23l-177 -111l-35 25l117 139z" />
    <glyph glyph-name="Ohungarumlaut" unicode="&#x150;" horiz-adv-x="711" 
d="M35 338c0 217 120 364 328 364c202 0 313 -135 313 -338c0 -223 -120 -373 -328 -373c-202 0 -313 138 -313 347zM364 44c150 0 201 148 201 303c0 170 -72 302 -218 302c-150 0 -201 -146 -201 -294c0 -176 72 -311 218 -311zM620 885v-23l-177 -111l-35 25l117 139z
M422 885v-23l-177 -111l-35 25l117 139z" />
    <glyph glyph-name="ohungarumlaut" unicode="&#x151;" horiz-adv-x="520" 
d="M32 232c0 153 84 256 234 256c142 0 222 -93 222 -242c0 -153 -84 -255 -234 -255c-142 0 -222 92 -222 241zM269 44c27 0 62 7 82 30c23 26 40 89 40 158c0 113 -45 203 -140 203c-27 0 -62 -7 -82 -30c-23 -26 -40 -89 -40 -158c0 -113 45 -203 140 -203zM490 735v-23
l-167 -151l-35 25l107 179zM292 735v-23l-167 -151l-35 25l107 179z" />
    <glyph glyph-name="Uhungarumlaut" unicode="&#x170;" horiz-adv-x="736" 
d="M574 573c0 57 -10 71 -96 81l6 39h235l4 -39l-62 -12c-20 -4 -20 -14 -20 -26v-359c0 -158 -84 -266 -268 -266c-166 0 -258 82 -258 258v343c0 39 -2 49 -76 62l6 39h245l4 -39l-62 -12c-19 -4 -20 -14 -20 -26v-352c0 -131 49 -206 177 -206c140 0 185 100 185 191v324
zM643 885v-23l-177 -111l-35 25l117 139zM445 885v-23l-177 -111l-35 25l117 139z" />
    <glyph glyph-name="uhungarumlaut" unicode="&#x171;" horiz-adv-x="577" 
d="M92 124v264c0 29 -19 38 -76 49l6 32c84 11 125 14 149 14l11 -10v-306c0 -51 11 -104 79 -104c32 0 68 12 106 39c16 11 21 18 21 46v240c0 29 -19 38 -76 49l6 32c84 11 125 14 149 14l11 -10v-374c0 -31 3 -43 76 -57l-6 -32l-129 -14c-10 -1 -22 50 -22 74v6l-8 3
l-12 -14c-36 -42 -83 -74 -154 -74c-78 0 -131 39 -131 133zM506 735v-23l-167 -151l-35 25l107 179zM308 735v-23l-167 -151l-35 25l107 179z" />
    <glyph glyph-name="macron" unicode="&#xaf;" horiz-adv-x="378" 
d="M22 642v60h249v-60h-249z" />
    <glyph glyph-name="Amacron" unicode="&#x100;" horiz-adv-x="670" 
d="M14 0l-7 40c51 13 53 15 63 43l224 619h83l229 -635c4 -11 16 -17 59 -25l-4 -42h-233l-6 40c46 9 70 17 70 33c0 6 -1 11 -4 21l-44 130h-259l-51 -142c-2 -6 -4 -13 -4 -15s1 -6 6 -7l71 -19l-4 -41h-189zM204 277h223l-98 281c-4 12 -7 25 -7 29h-10zM213 776v60h249
v-60h-249z" />
    <glyph glyph-name="amacron" unicode="&#x101;" horiz-adv-x="512" 
d="M42 123c0 97 76 148 272 150v32c0 73 -22 130 -94 130c-19 0 -49 -4 -57 -13c-6 -7 -17 -45 -24 -85l-54 6c-6 23 -8 50 -8 76c0 11 0 22 1 32c40 25 109 37 167 37c111 0 159 -44 159 -159v-230c0 -31 3 -43 76 -57l-6 -32l-120 -13c-13 0 -32 30 -32 60c0 6 0 11 1 19
l-8 3l-12 -18c-23 -34 -66 -70 -129 -70c-70 0 -132 45 -132 132zM139 132c0 -50 29 -73 69 -73c36 0 65 20 83 34s23 24 23 38v98c-117 -2 -175 -27 -175 -97zM120 642v60h249v-60h-249z" />
    <glyph glyph-name="Emacron" unicode="&#x112;" horiz-adv-x="592" 
d="M50 0l-6 39c74 13 76 23 76 62v491c0 39 -2 49 -76 62l6 39h466c4 -25 6 -63 6 -79c0 -28 -1 -54 -2 -77l-57 -7c-19 94 -23 104 -34 105c-18 2 -33 3 -61 4l-151 3v-269h150c8 0 15 8 32 71l31 -3c0 -112 4 -123 14 -198l-36 -6c-21 73 -24 83 -34 83h-157v-269l89 1
c131 2 135 12 142 14c10 3 20 17 44 118l55 -5c1 -17 1 -34 1 -51c0 -53 -6 -94 -11 -128h-487zM182 776v60h249v-60h-249z" />
    <glyph glyph-name="emacron" unicode="&#x113;" horiz-adv-x="478" 
d="M34 230c0 143 90 258 233 258c124 0 173 -86 178 -209l-26 -19l-290 -16c0 -144 72 -185 158 -185c46 0 92 12 135 34l21 -33c-36 -29 -112 -69 -197 -69c-142 0 -212 113 -212 239zM132 290l207 18c9 1 10 9 10 19c0 47 -20 108 -102 108s-107 -61 -115 -145zM138 642
v60h249v-60h-249z" />
    <glyph glyph-name="imacron" unicode="&#x12b;" horiz-adv-x="310" 
d="M47 0l-6 39c70 15 70 26 70 57v287c0 29 -19 38 -76 49l6 32c84 11 125 14 149 14l11 -10v-396c0 -12 1 -16 20 -21l49 -12l-4 -39h-219zM11 642v60h249v-60h-249z" />
    <glyph glyph-name="Imacron" unicode="&#x12a;" horiz-adv-x="337" 
d="M50 0l-6 39c74 13 76 23 76 62v491c0 39 -2 49 -76 62l6 39h245l4 -39l-62 -12c-19 -4 -20 -14 -20 -26v-539c0 -12 1 -22 20 -26l62 -12l-4 -39h-245zM46 776v60h249v-60h-249z" />
    <glyph glyph-name="Omacron" unicode="&#x14c;" horiz-adv-x="711" 
d="M35 338c0 217 120 364 328 364c202 0 313 -135 313 -338c0 -223 -120 -373 -328 -373c-202 0 -313 138 -313 347zM364 44c150 0 201 148 201 303c0 170 -72 302 -218 302c-150 0 -201 -146 -201 -294c0 -176 72 -311 218 -311zM239 776v60h249v-60h-249z" />
    <glyph glyph-name="omacron" unicode="&#x14d;" horiz-adv-x="520" 
d="M32 232c0 153 84 256 234 256c142 0 222 -93 222 -242c0 -153 -84 -255 -234 -255c-142 0 -222 92 -222 241zM269 44c27 0 62 7 82 30c23 26 40 89 40 158c0 113 -45 203 -140 203c-27 0 -62 -7 -82 -30c-23 -26 -40 -89 -40 -158c0 -113 45 -203 140 -203zM141 642v60
h249v-60h-249z" />
    <glyph glyph-name="Umacron" unicode="&#x16a;" horiz-adv-x="736" 
d="M574 573c0 57 -10 71 -96 81l6 39h235l4 -39l-62 -12c-20 -4 -20 -14 -20 -26v-359c0 -158 -84 -266 -268 -266c-166 0 -258 82 -258 258v343c0 39 -2 49 -76 62l6 39h245l4 -39l-62 -12c-19 -4 -20 -14 -20 -26v-352c0 -131 49 -206 177 -206c140 0 185 100 185 191v324
zM251 776v60h249v-60h-249z" />
    <glyph glyph-name="umacron" unicode="&#x16b;" horiz-adv-x="577" 
d="M92 124v264c0 29 -19 38 -76 49l6 32c84 11 125 14 149 14l11 -10v-306c0 -51 11 -104 79 -104c32 0 68 12 106 39c16 11 21 18 21 46v240c0 29 -19 38 -76 49l6 32c84 11 125 14 149 14l11 -10v-374c0 -31 3 -43 76 -57l-6 -32l-129 -14c-10 -1 -22 50 -22 74v6l-8 3
l-12 -14c-36 -42 -83 -74 -154 -74c-78 0 -131 39 -131 133zM152 642v60h249v-60h-249z" />
    <glyph glyph-name="Scedilla" unicode="&#x15e;" horiz-adv-x="523" 
d="M445 675c2 -16 3 -33 3 -51c0 -40 -5 -82 -11 -118l-58 -7c-9 94 -16 117 -27 126c-14 12 -56 21 -94 21c-41 0 -71 -10 -90 -24c-15 -11 -37 -34 -37 -76c0 -85 88 -116 173 -152s174 -81 174 -201c0 -122 -90 -202 -237 -202c-88 0 -176 29 -203 43c-3 12 -3 24 -3 44
c0 45 6 90 12 122l57 3c11 -103 17 -113 28 -121c19 -13 76 -35 132 -35c40 0 67 11 84 24c29 22 38 53 38 83c0 94 -88 127 -168 161c-85 36 -170 76 -170 190c0 124 101 197 243 197c65 0 122 -15 154 -27zM201 -89l38 129l49 -13l-32 -113zM206 -217l-4 31
c58 7 95 28 95 58c0 20 -15 38 -46 38c-13 0 -30 -4 -41 -10l-9 11l48 37c16 5 32 7 45 7c54 0 85 -25 85 -64c0 -53 -62 -102 -173 -108z" />
    <glyph glyph-name="scedilla" unicode="&#x15f;" horiz-adv-x="437" 
d="M57 15c-2 13 -2 27 -2 41c0 36 4 73 9 99l52 4c10 -88 12 -92 21 -97c16 -9 48 -18 84 -18c29 0 47 6 59 16c15 12 22 30 22 49c0 56 -64 77 -127 105c-60 27 -118 60 -118 134c0 83 74 140 184 140c56 0 98 -15 122 -25c1 -8 1 -16 1 -24c0 -28 -6 -77 -13 -99l-46 -5
c-6 69 -11 81 -20 87c-14 10 -37 13 -61 13c-34 0 -56 -6 -68 -16c-10 -8 -20 -23 -20 -44c0 -52 64 -73 127 -101c64 -28 125 -61 125 -136c0 -80 -68 -147 -189 -147c-57 0 -121 15 -142 24zM155 -89l38 129l49 -13l-32 -113zM160 -217l-4 31c58 8 95 28 95 58
c0 20 -15 38 -46 38c-13 0 -30 -4 -41 -10l-9 11l48 37c16 5 32 7 45 7c54 0 85 -25 85 -64c0 -53 -62 -102 -173 -108z" />
    <glyph glyph-name="Dcroat" unicode="&#x110;" horiz-adv-x="713" 
d="M27 338v60h93v194c0 39 -2 49 -76 62l6 39h313c238 0 315 -164 315 -325c0 -175 -91 -368 -337 -368h-291l-6 39c74 13 76 23 76 62v237h-93zM238 67c25 -5 64 -14 106 -14c154 0 223 122 223 290c0 232 -132 297 -227 297h-123v-242h167v-60h-167v-245
c0 -12 1 -22 21 -26z" />
    <glyph glyph-name="dcroat" unicode="&#x111;" horiz-adv-x="569" 
d="M217 -9c-99 0 -181 88 -181 238c0 148 79 259 224 259c46 0 88 -11 108 -26l7 3c-2 8 -4 29 -4 44v168c0 29 -25 40 -94 49l6 32c84 11 143 14 167 14l11 -10v-664c0 -31 3 -43 76 -57l-6 -32l-120 -13c-13 0 -34 31 -34 61c0 6 0 11 1 19l-8 3l-10 -13
c-30 -39 -79 -75 -143 -75zM242 63c27 0 70 13 102 34c22 15 27 27 27 46v239c-20 24 -56 49 -128 49c-14 0 -44 -1 -68 -28c-26 -29 -42 -85 -42 -156c0 -128 53 -184 109 -184zM241 585v53h301v-53h-301z" />
    <glyph glyph-name="ogonek" unicode="&#x2db;" horiz-adv-x="620" 
d="M450 -169c-41 -37 -86 -46 -110 -46c-50 0 -98 37 -98 101c0 69 56 128 187 194l12 -22c-70 -50 -118 -94 -118 -161c0 -35 24 -56 55 -56c19 0 32 0 60 10z" />
    <glyph glyph-name="Aogonek" unicode="&#x104;" horiz-adv-x="670" 
d="M14 0l-7 40c51 13 53 15 63 43l224 619h83l229 -635c4 -11 16 -17 59 -25l-4 -42h-233l-6 40c46 9 70 17 70 33c0 6 -1 11 -4 21l-44 130h-259l-51 -142c-2 -6 -4 -13 -4 -15s1 -6 6 -7l71 -19l-4 -41h-189zM204 277h223l-98 281c-4 12 -7 25 -7 29h-10zM628 -169
c-41 -37 -86 -46 -110 -46c-50 0 -98 36 -98 90c0 70 79 151 223 151v-26c-78 -3 -142 -46 -142 -105c0 -36 24 -54 55 -54c25 0 34 1 60 10z" />
    <glyph glyph-name="aogonek" unicode="&#x105;" horiz-adv-x="512" 
d="M482 -169c-41 -37 -86 -46 -110 -46c-50 0 -98 36 -98 90c0 73 70 161 199 161v-26c-64 -3 -118 -49 -118 -115c0 -36 24 -54 55 -54c25 0 34 1 60 10zM42 123c0 97 76 148 272 150v32c0 73 -22 130 -94 130c-19 0 -49 -4 -57 -13c-6 -7 -17 -45 -24 -85l-54 6
c-6 23 -8 50 -8 76c0 11 0 22 1 32c40 25 109 37 167 37c111 0 159 -44 159 -159v-230c0 -31 3 -43 76 -57l-6 -32l-120 -13c-13 0 -32 30 -32 60c0 6 0 11 1 19l-8 3l-12 -18c-23 -34 -66 -70 -129 -70c-70 0 -132 45 -132 132zM139 132c0 -50 29 -73 69 -73
c36 0 65 20 83 34s23 24 23 38v98c-117 -2 -175 -27 -175 -97z" />
    <glyph glyph-name="Eogonek" unicode="&#x118;" horiz-adv-x="592" 
d="M50 0l-6 39c74 13 76 23 76 62v491c0 39 -2 49 -76 62l6 39h466c4 -25 6 -63 6 -79c0 -28 -1 -54 -2 -77l-57 -7c-19 94 -23 104 -34 105c-18 2 -33 3 -61 4l-151 3v-269h150c8 0 15 8 32 71l31 -3c0 -112 4 -123 14 -198l-36 -6c-21 73 -24 83 -34 83h-157v-269l89 1
c131 2 135 12 142 14c10 3 20 17 44 118l55 -5c1 -17 1 -34 1 -51c0 -53 -6 -94 -11 -128h-487zM521 -169c-41 -37 -86 -46 -110 -46c-50 0 -98 36 -98 90c0 70 79 151 223 151v-26c-78 -3 -142 -46 -142 -105c0 -36 24 -54 55 -54c25 0 34 1 60 10z" />
    <glyph glyph-name="eogonek" unicode="&#x119;" horiz-adv-x="478" 
d="M34 230c0 143 90 258 233 258c124 0 173 -86 178 -209l-26 -19l-290 -16c0 -144 72 -185 158 -185c46 0 92 12 135 34l21 -33c-36 -29 -112 -69 -197 -69c-142 0 -212 113 -212 239zM132 290l207 18c9 1 10 9 10 19c0 47 -20 108 -102 108s-107 -61 -115 -145zM449 -169
c-41 -37 -86 -46 -110 -46c-50 0 -98 37 -98 101c0 69 56 128 187 194l12 -22c-70 -50 -118 -94 -118 -161c0 -35 24 -56 55 -56c19 0 32 0 60 10z" />
    <glyph glyph-name="Iogonek" unicode="&#x12e;" horiz-adv-x="337" 
d="M50 0l-6 39c74 13 76 23 76 62v491c0 39 -2 49 -76 62l6 39h245l4 -39l-62 -12c-19 -4 -20 -14 -20 -26v-539c0 -12 1 -22 20 -26l62 -12l-4 -39h-245zM262 -169c-41 -37 -86 -46 -110 -46c-50 0 -98 36 -98 90c0 70 79 151 223 151v-26c-78 -3 -142 -46 -142 -105
c0 -36 24 -54 55 -54c25 0 34 1 60 10z" />
    <glyph glyph-name="iogonek" unicode="&#x12f;" horiz-adv-x="310" 
d="M47 0l-6 39c70 15 70 26 70 57v287c0 29 -19 38 -76 49l6 32c84 11 125 14 149 14l11 -10v-396c0 -12 1 -16 20 -21l49 -12l-4 -39h-219zM145 597c-32 0 -58 19 -58 59c0 31 21 56 58 56c32 0 57 -15 57 -56c0 -32 -21 -59 -57 -59zM242 -169c-41 -37 -86 -46 -110 -46
c-50 0 -98 36 -98 90c0 70 79 151 223 151v-26c-78 -3 -142 -46 -142 -105c0 -36 24 -54 55 -54c25 0 34 1 60 10z" />
    <glyph glyph-name="Uogonek" unicode="&#x172;" horiz-adv-x="736" 
d="M473 31l4 -26c-71 -23 -110 -62 -110 -108c0 -35 24 -56 55 -56c25 0 34 1 60 10l12 -20c-41 -37 -86 -46 -110 -46c-50 0 -98 39 -98 96c0 61 54 118 187 150zM574 573c0 57 -10 71 -96 81l6 39h235l4 -39l-62 -12c-20 -4 -20 -14 -20 -26v-359
c0 -158 -84 -266 -268 -266c-166 0 -258 82 -258 258v343c0 39 -2 49 -76 62l6 39h245l4 -39l-62 -12c-19 -4 -20 -14 -20 -26v-352c0 -131 49 -206 177 -206c140 0 185 100 185 191v324z" />
    <glyph glyph-name="uogonek" unicode="&#x173;" horiz-adv-x="577" 
d="M556 -169c-41 -37 -86 -46 -110 -46c-50 0 -98 36 -98 90c0 73 70 161 199 161v-26c-64 -3 -118 -49 -118 -115c0 -36 24 -54 55 -54c25 0 34 1 60 10zM92 124v264c0 29 -19 38 -76 49l6 32c84 11 125 14 149 14l11 -10v-306c0 -51 11 -104 79 -104c32 0 68 12 106 39
c16 11 21 18 21 46v240c0 29 -19 38 -76 49l6 32c84 11 125 14 149 14l11 -10v-374c0 -31 3 -43 76 -57l-6 -32l-129 -14c-10 -1 -22 50 -22 74v6l-8 3l-12 -14c-36 -42 -83 -74 -154 -74c-78 0 -131 39 -131 133z" />
    <glyph glyph-name="breve" unicode="&#x2d8;" horiz-adv-x="512" 
d="M351 720h37c-5 -83 -49 -153 -149 -153s-144 70 -149 153h37c11 -56 47 -85 112 -85s101 29 112 85z" />
    <glyph glyph-name="breve.cap" horiz-adv-x="730" 
d="M479 900h37c-5 -76 -49 -140 -149 -140s-144 64 -149 140h37c11 -47 47 -72 112 -72s101 25 112 72z" />
    <glyph glyph-name="Abreve" unicode="&#x102;" horiz-adv-x="670" 
d="M14 0l-7 40c51 13 53 15 63 43l224 619h83l229 -635c4 -11 16 -17 59 -25l-4 -42h-233l-6 40c46 9 70 17 70 33c0 6 -1 11 -4 21l-44 130h-259l-51 -142c-2 -6 -4 -13 -4 -15s1 -6 6 -7l71 -19l-4 -41h-189zM204 277h223l-98 281c-4 12 -7 25 -7 29h-10zM451 900h37
c-5 -76 -49 -140 -149 -140s-144 64 -149 140h37c11 -47 47 -72 112 -72s101 25 112 72z" />
    <glyph glyph-name="abreve" unicode="&#x103;" horiz-adv-x="512" 
d="M42 123c0 97 76 148 272 150v32c0 73 -22 130 -94 130c-19 0 -49 -4 -57 -13c-6 -7 -17 -45 -24 -85l-54 6c-6 23 -8 50 -8 76c0 11 0 22 1 32c40 25 109 37 167 37c111 0 159 -44 159 -159v-230c0 -31 3 -43 76 -57l-6 -32l-120 -13c-13 0 -32 30 -32 60c0 6 0 11 1 19
l-8 3l-12 -18c-23 -34 -66 -70 -129 -70c-70 0 -132 45 -132 132zM139 132c0 -50 29 -73 69 -73c36 0 65 20 83 34s23 24 23 38v98c-117 -2 -175 -27 -175 -97zM364 720h37c-5 -83 -49 -153 -149 -153s-144 70 -149 153h37c11 -56 47 -85 112 -85s101 29 112 85z" />
    <glyph glyph-name="Ebreve" unicode="&#x114;" horiz-adv-x="592" 
d="M50 0l-6 39c74 13 76 23 76 62v491c0 39 -2 49 -76 62l6 39h466c4 -25 6 -63 6 -79c0 -28 -1 -54 -2 -77l-57 -7c-19 94 -23 104 -34 105c-18 2 -33 3 -61 4l-151 3v-269h150c8 0 15 8 32 71l31 -3c0 -112 4 -123 14 -198l-36 -6c-21 73 -24 83 -34 83h-157v-269l89 1
c131 2 135 12 142 14c10 3 20 17 44 118l55 -5c1 -17 1 -34 1 -51c0 -53 -6 -94 -11 -128h-487zM413 900h37c-5 -76 -49 -140 -149 -140s-144 64 -149 140h37c11 -47 47 -72 112 -72s101 25 112 72z" />
    <glyph glyph-name="ebreve" unicode="&#x115;" horiz-adv-x="478" 
d="M34 230c0 143 90 258 233 258c124 0 173 -86 178 -209l-26 -19l-290 -16c0 -144 72 -185 158 -185c46 0 92 12 135 34l21 -33c-36 -29 -112 -69 -197 -69c-142 0 -212 113 -212 239zM132 290l207 18c9 1 10 9 10 19c0 47 -20 108 -102 108s-107 -61 -115 -145zM368 720
h37c-5 -83 -49 -153 -149 -153s-144 70 -149 153h37c11 -56 47 -85 112 -85s101 29 112 85z" />
    <glyph glyph-name="Gbreve" unicode="&#x11e;" horiz-adv-x="681" 
d="M587 37c-38 -20 -129 -46 -223 -46c-228 0 -329 155 -329 340c0 170 85 371 350 371c81 0 175 -19 196 -28c5 -31 6 -62 6 -94c0 -24 -1 -49 -2 -74l-57 -8c-16 83 -28 120 -39 128c-10 8 -68 23 -121 23c-153 0 -222 -127 -222 -294c0 -222 120 -308 247 -308
c41 0 76 8 97 16v139c0 39 -2 49 -76 62l6 39h234l4 -39l-51 -12c-19 -4 -20 -14 -20 -26v-189zM490 900h37c-5 -76 -49 -140 -149 -140s-144 64 -149 140h37c11 -47 47 -72 112 -72s101 25 112 72z" />
    <glyph glyph-name="gbreve" unicode="&#x11f;" horiz-adv-x="554" 
d="M392 422l-13 31c41 21 96 36 134 37c6 -10 10 -32 10 -50c0 -9 -1 -17 -3 -23c-21 5 -46 8 -72 8c-19 0 -36 0 -56 -3zM256 162c-101 0 -182 49 -182 159c0 115 89 167 194 167c103 0 182 -51 182 -159c0 -115 -89 -167 -194 -167zM265 211c63 0 93 38 93 110
c0 74 -31 118 -99 118c-63 0 -93 -38 -93 -110c0 -74 31 -118 99 -118zM74 61c0 59 56 111 97 137l15 -14c-23 -24 -39 -56 -39 -79c0 -41 53 -41 103 -41c110 0 235 -1 235 -106c0 -91 -96 -177 -266 -177c-69 0 -164 14 -164 94c0 50 36 81 76 110c-32 10 -57 36 -57 76z
M160 -24c-20 -22 -28 -52 -28 -71c0 -38 32 -74 125 -74c118 0 160 58 160 93c0 60 -127 26 -257 52zM378 720h37c-5 -83 -49 -153 -149 -153s-144 70 -149 153h37c11 -56 47 -85 112 -85s101 29 112 85z" />
    <glyph glyph-name="Ibreve" unicode="&#x12c;" horiz-adv-x="337" 
d="M50 0l-6 39c74 13 76 23 76 62v491c0 39 -2 49 -76 62l6 39h245l4 -39l-62 -12c-19 -4 -20 -14 -20 -26v-539c0 -12 1 -22 20 -26l62 -12l-4 -39h-245zM281 900h37c-5 -76 -49 -140 -149 -140s-144 64 -149 140h37c11 -47 47 -72 112 -72s101 25 112 72z" />
    <glyph glyph-name="ibreve" unicode="&#x12d;" horiz-adv-x="310" 
d="M47 0l-6 39c70 15 70 26 70 57v287c0 29 -19 38 -76 49l6 32c84 11 125 14 149 14l11 -10v-396c0 -12 1 -16 20 -21l49 -12l-4 -39h-219zM255 720h37c-5 -83 -49 -153 -149 -153s-144 70 -149 153h37c11 -56 47 -85 112 -85s101 29 112 85z" />
    <glyph glyph-name="Obreve" unicode="&#x14e;" horiz-adv-x="711" 
d="M35 338c0 217 120 364 328 364c202 0 313 -135 313 -338c0 -223 -120 -373 -328 -373c-202 0 -313 138 -313 347zM364 44c150 0 201 148 201 303c0 170 -72 302 -218 302c-150 0 -201 -146 -201 -294c0 -176 72 -311 218 -311zM478 900h37c-5 -76 -49 -140 -149 -140
s-144 64 -149 140h37c11 -47 47 -72 112 -72s101 25 112 72z" />
    <glyph glyph-name="obreve" unicode="&#x14f;" horiz-adv-x="520" 
d="M32 232c0 153 84 256 234 256c142 0 222 -93 222 -242c0 -153 -84 -255 -234 -255c-142 0 -222 92 -222 241zM269 44c27 0 62 7 82 30c23 26 40 89 40 158c0 113 -45 203 -140 203c-27 0 -62 -7 -82 -30c-23 -26 -40 -89 -40 -158c0 -113 45 -203 140 -203zM379 720h37
c-5 -83 -49 -153 -149 -153s-144 70 -149 153h37c11 -56 47 -85 112 -85s101 29 112 85z" />
    <glyph glyph-name="Ubreve" unicode="&#x16c;" horiz-adv-x="736" 
d="M574 573c0 57 -10 71 -96 81l6 39h235l4 -39l-62 -12c-20 -4 -20 -14 -20 -26v-359c0 -158 -84 -266 -268 -266c-166 0 -258 82 -258 258v343c0 39 -2 49 -76 62l6 39h245l4 -39l-62 -12c-19 -4 -20 -14 -20 -26v-352c0 -131 49 -206 177 -206c140 0 185 100 185 191v324
zM491 900h37c-5 -76 -49 -140 -149 -140s-144 64 -149 140h37c11 -47 47 -72 112 -72s101 25 112 72z" />
    <glyph glyph-name="ubreve" unicode="&#x16d;" horiz-adv-x="577" 
d="M92 124v264c0 29 -19 38 -76 49l6 32c84 11 125 14 149 14l11 -10v-306c0 -51 11 -104 79 -104c32 0 68 12 106 39c16 11 21 18 21 46v240c0 29 -19 38 -76 49l6 32c84 11 125 14 149 14l11 -10v-374c0 -31 3 -43 76 -57l-6 -32l-129 -14c-10 -1 -22 50 -22 74v6l-8 3
l-12 -14c-36 -42 -83 -74 -154 -74c-78 0 -131 39 -131 133zM390 720h37c-5 -83 -49 -153 -149 -153s-144 70 -149 153h37c11 -56 47 -85 112 -85s101 29 112 85z" />
    <glyph glyph-name="pi" unicode="&#x3c0;" horiz-adv-x="596" 
d="M498 52l5 -39c-37 -12 -77 -22 -103 -22c-51 0 -58 38 -58 71c0 20 2 115 20 334h-137c-5 -119 -28 -324 -45 -396h-116l-6 39c23 5 43 12 54 27c17 25 35 110 46 329c-24 -1 -50 -1 -56 -3c-10 -3 -14 -8 -31 -80l-46 5c-1 16 -2 36 -2 50c0 21 2 81 6 106h376
c33 0 51 2 58 4c9 3 19 8 39 78l46 -4c1 -9 1 -20 1 -30c0 -37 -9 -100 -16 -124h-104c-8 -79 -13 -202 -13 -276c0 -53 3 -72 31 -72c7 0 38 1 51 3z" />
    <glyph glyph-name="partialdiff" unicode="&#x2202;" horiz-adv-x="506" 
d="M32 628c39 43 96 74 173 74c178 0 275 -163 275 -345c0 -170 -84 -367 -267 -367c-115 0 -192 78 -192 195c0 131 97 236 210 236c50 0 103 -21 139 -49c0 197 -68 277 -147 277c-58 0 -91 -44 -117 -77c-17 4 -53 25 -74 56zM218 42c118 0 146 199 146 263
c-17 38 -64 64 -108 64c-101 0 -138 -134 -138 -202c0 -67 36 -125 100 -125z" />
    <glyph glyph-name="Hbar" unicode="&#x126;" horiz-adv-x="767" 
d="M50 0l-6 39c74 13 76 23 76 62v491c0 39 -2 49 -76 62l6 39h245l4 -39l-62 -12c-19 -4 -20 -14 -20 -26v-229h333v205c0 39 -2 49 -76 62l6 39h245l4 -39l-62 -12c-19 -4 -20 -14 -20 -26v-539c0 -12 1 -22 20 -26l62 -12l-4 -39h-245l-6 39c74 13 76 23 76 62v226h-333
v-250c0 -12 1 -22 20 -26l62 -12l-4 -39h-245zM50 492v53h673v-53h-673z" />
    <glyph glyph-name="hbar" unicode="&#x127;" horiz-adv-x="596" 
d="M40 0l-6 39c70 15 70 26 70 57v581c0 29 -19 38 -76 49l6 32c84 11 125 14 149 14l11 -10v-281c0 -25 -1 -58 -7 -78l8 -3l12 14c32 38 86 74 155 74c89 0 142 -55 142 -146v-270c0 -12 1 -16 20 -21l49 -12l-4 -39h-214l-6 39c64 13 65 26 65 57v216
c0 52 -11 104 -86 104c-35 0 -76 -15 -111 -39c-16 -11 -23 -17 -23 -48v-257c0 -12 1 -16 20 -21l44 -12l-4 -39h-214zM23 585v53h301v-53h-301z" />
    <glyph glyph-name="Tbar" unicode="&#x166;" horiz-adv-x="577" 
d="M149 39c88 14 91 23 91 62v540c-131 -2 -134 -4 -141 -7c-10 -4 -20 -10 -40 -121l-51 4c-1 15 -1 29 -1 43c0 52 5 100 9 133h545c4 -33 9 -81 9 -133c0 -14 0 -28 -1 -43l-51 -4c-20 111 -30 117 -40 121c-7 3 -10 5 -141 7v-564c0 -12 1 -23 20 -26l77 -12l-4 -39
h-275zM63 344v53h451v-53h-451z" />
    <glyph glyph-name="tbar" unicode="&#x167;" horiz-adv-x="350" 
d="M85 137v275h-65l-4 43l49 12c25 6 26 8 49 134l61 6v-134h139l-8 -47l-131 -15v-244c0 -49 9 -104 64 -104c25 0 52 12 76 30l21 -29c-28 -38 -73 -73 -132 -73c-74 0 -119 55 -119 146zM18 252v53h293v-53h-293z" />
    <glyph glyph-name="radical" unicode="&#x221a;" horiz-adv-x="590" 
d="M379 -99l-20 -6l-236 487c-12 26 -33 26 -89 11l-9 32c71 46 107 66 129 77l14 -5l190 -399l6 2l165 799l49 -9z" />
    <glyph glyph-name="zero.tabonum" 
d="M253 -9c-147 0 -229 104 -229 272c0 173 87 289 241 289c147 0 229 -105 229 -273c0 -173 -87 -288 -241 -288zM269 44c24 0 63 6 86 35c24 30 42 104 42 185c0 129 -46 235 -148 235c-24 0 -63 -6 -86 -35c-24 -30 -42 -104 -42 -185c0 -129 46 -235 148 -235z" />
    <glyph glyph-name="one.tabonum" 
d="M104 0l-6 39c102 12 127 26 127 57v307c0 69 -4 70 -29 70c-28 0 -69 -3 -97 -5l-8 38c44 16 158 40 213 41l11 -10v-465c0 -12 1 -19 20 -21l107 -12l-4 -39h-334z" />
    <glyph glyph-name="two.tabonum" 
d="M44 0v53c184 149 277 224 277 326c0 65 -37 120 -118 120c-29 0 -53 -7 -63 -15c-6 -5 -13 -19 -23 -108l-54 6c-6 27 -8 52 -8 82c0 11 0 32 1 42c40 32 112 46 170 46c123 0 192 -64 192 -157c0 -103 -83 -196 -259 -317l2 -7l60 2c90 3 133 5 144 7c9 2 19 8 39 78
l46 -4c1 -9 1 -20 1 -30c0 -37 -9 -100 -16 -124h-391z" />
    <glyph glyph-name="three.tabonum" 
d="M57 15l54 5c6 -89 11 -92 20 -97c11 -5 30 -8 51 -8c93 0 165 61 165 156c0 79 -42 129 -141 129c-14 0 -33 -1 -52 -4l3 48c125 20 167 88 167 150c0 66 -48 105 -107 105c-29 0 -53 -3 -67 -13c-11 -8 -20 -13 -27 -110l-53 6c-5 25 -9 51 -9 82c0 12 0 32 1 42
c36 23 86 46 171 46c108 0 186 -53 186 -140c0 -73 -57 -135 -113 -160l1 -8c74 -9 145 -64 145 -156c0 -111 -108 -225 -284 -225c-56 0 -112 14 -128 21c3 41 9 96 17 131z" />
    <glyph glyph-name="four.tabonum" 
d="M28 45l-23 61l317 428c26 6 66 13 86 13l11 -10v-434l102 -2l-9 -57h-93v-166c-16 -3 -59 -6 -79 -6l-11 10v162h-300zM76 115l4 -7l249 -4v313c0 8 0 21 2 30l-6 3l-231 -313c-6 -9 -13 -17 -18 -22z" />
    <glyph glyph-name="five.tabonum" 
d="M40 -116c0 42 8 99 20 144l53 3c8 -88 10 -103 20 -108c15 -7 48 -8 61 -8c90 0 164 64 164 176c0 76 -45 140 -141 140c-38 0 -89 -10 -124 -23l-22 26l22 303h256c8 0 14 4 27 73l51 -7c-2 -47 -7 -110 -14 -147h-260l-12 -179c38 13 79 17 111 17
c133 0 210 -70 210 -183c0 -150 -131 -248 -287 -248c-71 0 -118 14 -135 21z" />
    <glyph glyph-name="six.tabonum" 
d="M483 213c0 -122 -86 -222 -221 -222s-214 100 -214 255c0 226 168 389 352 434l20 -41c-138 -58 -232 -145 -263 -281l8 -3c31 40 80 66 133 66c96 0 185 -83 185 -208zM388 195c0 99 -46 157 -102 157c-20 0 -77 -7 -110 -29c-18 -12 -26 -26 -29 -38
c-4 -16 -4 -29 -4 -31c0 -141 44 -214 139 -214c11 0 43 1 68 28s38 74 38 127z" />
    <glyph glyph-name="seven.tabonum" 
d="M132 -121c20 121 132 390 268 577l-2 7l-177 -3c-40 -1 -80 -3 -90 -4s-14 -8 -31 -80l-46 5c-1 16 -2 36 -2 50c0 21 2 81 6 106h411v-60c-151 -235 -221 -447 -232 -611c-7 -2 -17 -3 -29 -3c-26 0 -59 5 -76 16z" />
    <glyph glyph-name="eight.tabonum" 
d="M57 495c0 107 84 182 203 182c64 0 202 -27 202 -157c0 -66 -31 -113 -78 -148c-10 -7 -23 -16 -37 -16v-9c3 0 8 -1 16 -5c72 -37 124 -83 124 -164c0 -110 -94 -187 -233 -187c-73 0 -222 21 -222 158c0 81 52 132 97 162c10 6 24 16 38 16v9c-3 0 -8 1 -16 5
c-56 34 -94 81 -94 154zM144 517c0 -77 75 -111 150 -144c31 21 84 67 84 138c0 77 -53 116 -124 116c-82 0 -110 -63 -110 -110zM393 156c0 85 -94 119 -171 150c-9 -3 -106 -52 -106 -146c0 -76 63 -114 144 -114c102 0 133 62 133 110z" />
    <glyph glyph-name="nine.tabonum" 
d="M36 332c0 121 89 220 220 220c134 0 215 -104 215 -257c0 -171 -101 -407 -373 -432l-7 45c155 36 235 118 271 272l-8 3c-31 -38 -80 -58 -129 -58c-101 0 -189 86 -189 207zM131 353c0 -112 66 -159 117 -159c13 0 59 3 94 22c24 13 26 23 29 37c3 12 6 29 6 59
c0 108 -39 191 -136 191c-28 0 -51 -7 -71 -28c-25 -26 -39 -71 -39 -122z" />
    <glyph glyph-name="dollar.tabonum" 
d="M429 524c1 -9 1 -18 1 -27c0 -32 -7 -87 -14 -112l-50 -6c-6 82 -14 97 -24 104c-14 9 -39 13 -59 14v-176c78 -33 163 -71 163 -165c0 -78 -59 -145 -163 -161v-123h-57v119c-63 1 -131 17 -154 27c-2 15 -2 31 -2 46c0 41 5 83 9 112l57 5c12 -105 14 -109 26 -115
c13 -8 36 -15 64 -19v186c-75 32 -154 69 -154 161c0 79 60 137 154 153v121h57v-116c65 -1 117 -17 146 -28zM152 429c0 -39 31 -63 74 -83v150c-24 -2 -40 -8 -50 -16c-12 -9 -24 -27 -24 -51zM359 119c0 42 -33 67 -76 89v-162c23 2 39 8 50 17c18 14 26 35 26 56z" />
    <glyph glyph-name="cent.tabonum" 
d="M231 668h57v-122c64 0 111 -18 123 -23c1 -6 1 -14 1 -23c0 -28 -3 -66 -10 -89l-43 -5c-13 73 -16 82 -24 85c-10 3 -29 5 -47 6v-300h6c39 0 81 13 117 37l26 -30c-29 -26 -78 -59 -149 -65v-139h-57v141c-110 16 -161 98 -161 199c0 82 35 178 161 201v127zM160 347
c0 -73 29 -115 71 -135v281c-14 -3 -25 -10 -34 -21c-22 -27 -37 -76 -37 -125z" />
    <glyph glyph-name="zero.tab" 
d="M251 -9c-151 0 -236 155 -236 332c0 184 91 354 253 354c152 0 237 -158 237 -333c0 -185 -93 -353 -254 -353zM248 624c-86 0 -128 -106 -128 -277c0 -206 61 -303 150 -303c85 0 130 89 130 265c0 202 -59 315 -152 315z" />
    <glyph glyph-name="one.tab" 
d="M91 0l-6 39c102 12 127 26 127 57v433c0 69 -4 70 -29 70c-28 0 -69 -3 -97 -5l-8 38c44 16 159 40 213 41l11 -10v-591c0 -12 1 -16 20 -21l107 -12l-4 -39h-334z" />
    <glyph glyph-name="two.tab" 
d="M35 0v53c187 189 300 300 300 434c0 79 -39 136 -124 136c-37 0 -65 -9 -78 -20c-6 -5 -13 -26 -23 -123l-59 6c-6 27 -8 52 -8 82c0 12 0 38 1 52c44 39 126 56 190 56c131 0 205 -65 205 -175c0 -130 -101 -248 -292 -421l2 -7l80 3c133 5 134 3 148 6c9 2 9 8 29 78
l46 -4c1 -10 1 -22 1 -34c0 -43 -4 -96 -10 -122h-408z" />
    <glyph glyph-name="three.tab" 
d="M59 143l54 5c6 -86 11 -92 20 -95c19 -6 44 -10 81 -10c75 0 135 54 135 138c0 88 -42 144 -141 144c-14 0 -33 -1 -52 -4l3 48c125 20 167 88 167 150c0 66 -48 105 -107 105c-29 0 -53 -3 -67 -13c-11 -8 -20 -13 -27 -110l-53 6c-5 25 -9 51 -9 82c0 12 0 32 1 42
c36 23 86 46 171 46c108 0 186 -53 186 -140c0 -73 -57 -135 -113 -160l1 -8c74 -11 145 -70 145 -171c0 -102 -96 -207 -254 -207c-68 0 -139 14 -158 21c3 41 9 96 17 131z" />
    <glyph glyph-name="four.tab" 
d="M241 0l-6 39c78 12 97 26 97 57v74h-300l-1 1l-23 61l317 428c26 6 66 13 86 13l11 -10v-434l102 -2l-9 -57h-93v-98c0 -12 1 -17 20 -21l57 -12l-4 -39h-254zM79 241l4 -7l249 -4v313c0 8 0 21 2 30l-6 3l-231 -313c-6 -9 -13 -17 -18 -22z" />
    <glyph glyph-name="five.tab" 
d="M158 588l-12 -179c38 13 79 17 111 17c133 0 210 -74 210 -193c0 -146 -126 -242 -277 -242c-76 0 -127 17 -145 25c0 42 8 99 20 144l53 3c8 -88 10 -103 20 -108c17 -11 56 -12 71 -12c83 0 153 71 153 170c0 81 -45 150 -140 150c-38 0 -89 -10 -124 -23l-22 26
l22 303h326l10 -11c0 -20 -8 -54 -16 -70h-260z" />
    <glyph glyph-name="six.tab" 
d="M478 213c0 -122 -86 -222 -221 -222s-214 100 -214 255c0 226 168 389 352 434l20 -41c-138 -58 -232 -145 -263 -281l8 -3c31 40 80 66 133 66c96 0 185 -83 185 -208zM383 195c0 99 -46 157 -102 157c-20 0 -77 -7 -110 -29c-18 -12 -26 -26 -29 -38
c-4 -16 -4 -29 -4 -31c0 -141 44 -214 139 -214c11 0 43 1 68 28s38 74 38 127z" />
    <glyph glyph-name="seven.tab" 
d="M143 7c20 122 132 393 268 581l-2 7l-177 -3c-40 -1 -80 -3 -90 -4s-14 -8 -31 -80l-46 5c-1 16 -2 36 -2 50c0 21 2 81 6 106h411v-60c-151 -237 -221 -450 -232 -615c-7 -2 -17 -3 -29 -3c-26 0 -59 5 -76 16z" />
    <glyph glyph-name="eight.tab" 
d="M57 495c0 107 84 182 203 182c64 0 202 -27 202 -157c0 -66 -31 -113 -78 -148c-10 -7 -23 -16 -37 -16v-9c3 0 8 -1 16 -5c72 -37 124 -83 124 -164c0 -110 -94 -187 -233 -187c-73 0 -222 21 -222 158c0 81 52 132 97 162c10 6 24 16 38 16v9c-3 0 -8 1 -16 5
c-56 34 -94 81 -94 154zM144 517c0 -77 75 -111 150 -144c31 21 84 67 84 138c0 77 -53 116 -124 116c-82 0 -110 -63 -110 -110zM393 156c0 85 -94 119 -171 150c-9 -3 -106 -52 -106 -146c0 -76 63 -114 144 -114c102 0 133 62 133 110z" />
    <glyph glyph-name="nine.tab" 
d="M41 457c0 121 89 220 220 220c134 0 215 -104 215 -257c0 -171 -101 -407 -373 -432l-7 45c155 36 235 118 271 272l-8 3c-31 -38 -80 -58 -129 -58c-101 0 -189 86 -189 207zM136 478c0 -112 66 -159 117 -159c13 0 59 3 94 22c24 13 26 23 29 37c3 12 6 29 6 59
c0 108 -39 191 -136 191c-28 0 -51 -7 -71 -28c-25 -26 -39 -71 -39 -122z" />
    <glyph glyph-name="dollar.tab" 
d="M241 772h57v-852h-57v852zM452 649c2 -16 3 -33 3 -51c0 -40 -5 -82 -11 -118l-58 -7c-9 94 -16 117 -27 126c-14 12 -56 21 -94 21c-41 0 -71 -10 -90 -23c-15 -10 -37 -32 -37 -72c0 -170 347 -107 347 -340c0 -117 -91 -194 -236 -194c-89 0 -177 29 -204 43
c-3 12 -3 24 -3 44c0 45 6 90 12 122l57 3c11 -103 17 -113 28 -121c19 -13 75 -35 133 -35c37 0 64 9 83 23c29 21 38 50 38 78c0 178 -338 119 -338 337c0 120 101 191 243 191c65 0 122 -15 154 -27z" />
    <glyph glyph-name="cent.tab" 
d="M241 668h57v-122c64 0 111 -18 123 -23c1 -6 1 -14 1 -23c0 -28 -3 -66 -10 -89l-43 -5c-13 73 -16 82 -24 85c-10 3 -29 5 -47 6v-300h6c39 0 81 13 117 37l26 -30c-29 -26 -78 -59 -149 -65v-139h-57v141c-110 16 -161 98 -161 199c0 82 35 178 161 201v127zM170 347
c0 -73 29 -115 71 -135v281c-14 -3 -25 -10 -34 -21c-22 -27 -37 -76 -37 -125z" />
    <glyph glyph-name="zero.fitted" horiz-adv-x="554" 
d="M268 -9c-151 0 -236 155 -236 332c0 184 91 354 253 354c152 0 237 -158 237 -333c0 -185 -93 -353 -254 -353zM265 624c-86 0 -128 -106 -128 -277c0 -206 61 -303 150 -303c85 0 130 89 130 265c0 202 -59 315 -152 315z" />
    <glyph glyph-name="one.fitted" horiz-adv-x="414" 
d="M81 0l-6 39c78 12 97 26 97 57v433c0 69 -4 70 -29 70s-62 -3 -87 -5l-8 38c42 16 151 40 203 41l11 -10v-591c0 -12 1 -16 20 -21l77 -12l-4 -39h-274z" />
    <glyph glyph-name="two.fitted" horiz-adv-x="495" 
d="M24 0v53c187 189 300 300 300 434c0 79 -39 136 -124 136c-37 0 -65 -9 -78 -20c-6 -5 -13 -26 -23 -123l-59 6c-6 27 -8 52 -8 82c0 12 0 38 1 52c44 39 126 56 190 56c131 0 205 -65 205 -175c0 -130 -101 -248 -292 -421l2 -7l80 3c133 5 134 3 148 6c9 2 9 8 29 78
l46 -4c1 -10 1 -22 1 -34c0 -43 -4 -96 -10 -122h-408z" />
    <glyph glyph-name="three.fitted" horiz-adv-x="469" 
d="M29 143l54 5c6 -86 11 -92 20 -95c19 -6 44 -10 81 -10c75 0 135 54 135 138c0 88 -42 144 -141 144c-14 0 -33 -1 -52 -4l3 48c125 20 167 88 167 150c0 66 -48 105 -107 105c-29 0 -53 -3 -67 -13c-11 -8 -20 -13 -27 -110l-53 6c-5 25 -9 51 -9 82c0 12 0 32 1 42
c36 23 86 46 171 46c108 0 186 -53 186 -140c0 -73 -57 -135 -113 -160l1 -8c74 -11 145 -70 145 -171c0 -102 -96 -207 -254 -207c-68 0 -139 14 -158 21c3 41 9 96 17 131z" />
    <glyph glyph-name="four.fitted" horiz-adv-x="534" 
d="M241 0l-6 39c78 12 97 26 97 57v74h-300l-1 1l-23 61l317 428c26 6 66 13 86 13l11 -10v-434l102 -2l-9 -57h-93v-98c0 -12 1 -17 20 -21l57 -12l-4 -39h-254zM79 241l4 -7l249 -4v313c0 8 0 21 2 30l-6 3l-231 -313c-6 -9 -13 -17 -18 -22z" />
    <glyph glyph-name="five.fitted" horiz-adv-x="499" 
d="M145 588l-12 -179c38 13 79 17 111 17c133 0 210 -74 210 -193c0 -146 -126 -242 -277 -242c-76 0 -127 17 -145 25c0 42 8 99 20 144l53 3c8 -88 10 -103 20 -108c17 -11 56 -12 71 -12c83 0 153 71 153 170c0 81 -45 150 -140 150c-38 0 -89 -10 -124 -23l-22 26
l22 303h326l10 -11c0 -20 -8 -54 -16 -70h-260z" />
    <glyph glyph-name="six.fitted" horiz-adv-x="515" 
d="M483 213c0 -122 -86 -222 -221 -222s-214 100 -214 255c0 226 168 389 352 434l20 -41c-138 -58 -232 -145 -263 -281l8 -3c31 40 80 66 133 66c96 0 185 -83 185 -208zM388 195c0 99 -46 157 -102 157c-20 0 -77 -7 -110 -29c-18 -12 -26 -26 -29 -38
c-4 -16 -4 -29 -4 -31c0 -141 44 -214 139 -214c11 0 43 1 68 28s38 74 38 127z" />
    <glyph glyph-name="seven.fitted" horiz-adv-x="450" 
d="M103 7c20 122 132 393 268 581l-2 7l-177 -3c-40 -1 -80 -3 -90 -4s-14 -8 -31 -80l-46 5c-1 16 -2 36 -2 50c0 21 2 81 6 106h411v-60c-151 -237 -221 -450 -232 -615c-7 -2 -17 -3 -29 -3c-26 0 -59 5 -76 16z" />
    <glyph glyph-name="eight.fitted" 
d="M57 495c0 107 84 182 203 182c64 0 202 -27 202 -157c0 -66 -31 -113 -78 -148c-10 -7 -23 -16 -37 -16v-9c3 0 8 -1 16 -5c72 -37 124 -83 124 -164c0 -110 -94 -187 -233 -187c-73 0 -222 21 -222 158c0 81 52 132 97 162c10 6 24 16 38 16v9c-3 0 -8 1 -16 5
c-56 34 -94 81 -94 154zM144 517c0 -77 75 -111 150 -144c31 21 84 67 84 138c0 77 -53 116 -124 116c-82 0 -110 -63 -110 -110zM393 156c0 85 -94 119 -171 150c-9 -3 -106 -52 -106 -146c0 -76 63 -114 144 -114c102 0 133 62 133 110z" />
    <glyph glyph-name="nine.fitted" horiz-adv-x="516" 
d="M36 457c0 121 89 220 220 220c134 0 215 -104 215 -257c0 -171 -101 -407 -373 -432l-7 45c155 36 235 118 271 272l-8 3c-31 -38 -80 -58 -129 -58c-101 0 -189 86 -189 207zM131 478c0 -112 66 -159 117 -159c13 0 59 3 94 22c24 13 26 23 29 37c3 12 6 29 6 59
c0 108 -39 191 -136 191c-28 0 -51 -7 -71 -28c-25 -26 -39 -71 -39 -122z" />
    <glyph glyph-name="cent.fitted" horiz-adv-x="430" 
d="M201 668h57v-122c64 0 111 -18 123 -23c1 -6 1 -14 1 -23c0 -28 -3 -66 -10 -89l-43 -5c-13 73 -16 82 -24 85c-10 3 -29 5 -47 6v-300h6c39 0 81 13 117 37l26 -30c-29 -26 -78 -59 -149 -65v-139h-57v141c-110 16 -161 98 -161 199c0 82 35 178 161 201v127zM130 347
c0 -73 29 -115 71 -135v281c-14 -3 -25 -10 -34 -21c-22 -27 -37 -76 -37 -125z" />
    <glyph glyph-name="dollar.fitted" horiz-adv-x="547" 
d="M249 772h57v-852h-57v852zM460 649c2 -16 3 -33 3 -51c0 -40 -5 -82 -11 -118l-58 -7c-9 94 -16 117 -27 126c-14 12 -56 21 -94 21c-41 0 -71 -10 -90 -23c-15 -10 -37 -32 -37 -72c0 -170 347 -107 347 -340c0 -117 -91 -194 -236 -194c-89 0 -177 29 -204 43
c-3 12 -3 24 -3 44c0 45 6 90 12 122l57 3c11 -103 17 -113 28 -121c19 -13 75 -35 133 -35c37 0 64 9 83 23c29 21 38 50 38 78c0 178 -338 119 -338 337c0 120 101 191 243 191c65 0 122 -15 154 -27z" />
    <glyph glyph-name="dollar" unicode="$" horiz-adv-x="480" 
d="M414 524c1 -9 1 -18 1 -27c0 -32 -7 -87 -14 -112l-50 -6c-6 82 -14 97 -24 104c-14 9 -39 13 -59 14v-176c78 -33 163 -71 163 -165c0 -78 -59 -145 -163 -161v-123h-57v119c-63 1 -131 17 -154 27c-2 15 -2 31 -2 46c0 41 5 83 9 112l57 5c12 -105 14 -109 26 -115
c13 -8 36 -15 64 -19v186c-75 32 -154 69 -154 161c0 79 60 137 154 153v121h57v-116c65 -1 117 -17 146 -28zM137 429c0 -39 31 -63 74 -83v150c-24 -2 -40 -8 -50 -16c-12 -9 -24 -27 -24 -51zM344 119c0 42 -33 67 -76 89v-162c23 2 39 8 50 17c18 14 26 35 26 56z" />
    <glyph glyph-name="cent" unicode="&#xa2;" horiz-adv-x="424" 
d="M195 668h57v-122c64 0 111 -18 123 -23c1 -6 1 -14 1 -23c0 -28 -3 -66 -10 -89l-43 -5c-13 73 -16 82 -24 85c-10 3 -29 5 -47 6v-300h6c39 0 81 13 117 37l26 -30c-29 -26 -78 -59 -149 -65v-139h-57v141c-110 16 -161 98 -161 199c0 82 35 178 161 201v127zM124 347
c0 -73 29 -115 71 -135v281c-14 -3 -25 -10 -34 -21c-22 -27 -37 -76 -37 -125z" />
    <glyph glyph-name="zero" unicode="0" horiz-adv-x="534" 
d="M261 -9c-147 0 -229 104 -229 272c0 173 87 289 241 289c147 0 229 -105 229 -273c0 -173 -87 -288 -241 -288zM277 44c24 0 63 6 86 35c24 30 42 104 42 185c0 129 -46 235 -148 235c-24 0 -63 -6 -86 -35c-24 -30 -42 -104 -42 -185c0 -129 46 -235 148 -235z" />
    <glyph glyph-name="one" unicode="1" horiz-adv-x="354" 
d="M51 0l-6 39c78 12 97 26 97 57v307c0 69 -4 70 -29 70c-19 0 -48 -3 -67 -5l-8 38c38 16 137 40 183 41l11 -10v-465c0 -12 1 -16 20 -21l77 -12l-4 -39h-274z" />
    <glyph glyph-name="two" unicode="2" horiz-adv-x="473" 
d="M30 0v53c184 149 277 224 277 326c0 65 -37 120 -118 120c-29 0 -53 -7 -63 -15c-6 -5 -13 -19 -23 -108l-54 6c-6 27 -8 52 -8 82c0 11 0 32 1 42c40 32 112 46 170 46c123 0 192 -64 192 -157c0 -103 -83 -196 -259 -317l2 -7l60 2c90 3 133 5 144 7c9 2 19 8 39 78
l46 -4c1 -9 1 -20 1 -30c0 -37 -9 -100 -16 -124h-391z" />
    <glyph glyph-name="three" unicode="3" horiz-adv-x="469" 
d="M55 -138l-5 56c162 22 279 80 279 179c0 59 -42 103 -141 103c-14 0 -33 -1 -52 -4l3 48c125 20 167 88 167 150c0 55 -33 105 -115 105c-23 0 -45 -4 -59 -13c-11 -7 -20 -14 -27 -110l-53 6c-5 25 -9 51 -9 82c0 12 0 32 1 42c32 21 87 46 166 46
c114 0 191 -53 191 -137c0 -72 -47 -124 -99 -149l1 -8c68 -13 131 -56 131 -141c0 -136 -158 -233 -379 -255z" />
    <glyph glyph-name="four" unicode="4" horiz-adv-x="534" 
d="M31 45l-23 61l317 428c26 6 66 13 86 13l11 -10v-434l102 -2l-9 -57h-93v-166c-16 -3 -59 -6 -79 -6l-11 10v162h-300zM79 115l4 -7l249 -4v313c0 8 0 21 2 30l-6 3l-231 -313c-6 -9 -13 -17 -18 -22z" />
    <glyph glyph-name="five" unicode="5" horiz-adv-x="482" 
d="M55 -138l-5 56c182 24 300 95 300 198c0 60 -45 115 -141 115c-38 0 -89 -10 -124 -23l-22 26l22 303h256c8 0 14 4 27 73l51 -7c-2 -47 -7 -110 -14 -147h-260l-12 -179c38 13 79 17 111 17c133 0 210 -61 210 -158c0 -140 -160 -252 -399 -274z" />
    <glyph glyph-name="six" unicode="6" horiz-adv-x="516" 
d="M480 213c0 -122 -86 -222 -221 -222s-214 100 -214 255c0 226 168 389 352 434l20 -41c-138 -58 -232 -145 -263 -281l8 -3c31 40 80 66 133 66c96 0 185 -83 185 -208zM385 195c0 99 -46 157 -102 157c-20 0 -77 -7 -110 -29c-18 -12 -26 -26 -29 -38
c-4 -16 -4 -29 -4 -31c0 -141 44 -214 139 -214c11 0 43 1 68 28s38 74 38 127z" />
    <glyph glyph-name="seven" unicode="7" horiz-adv-x="450" 
d="M103 -121c20 121 132 390 268 577l-2 7l-177 -3c-40 -1 -80 -3 -90 -4s-14 -8 -31 -80l-46 5c-1 16 -2 36 -2 50c0 21 2 81 6 106h411v-60c-151 -235 -221 -447 -232 -611c-7 -2 -17 -3 -29 -3c-26 0 -59 5 -76 16z" />
    <glyph glyph-name="eight" unicode="8" 
d="M57 495c0 107 84 182 203 182c64 0 202 -27 202 -157c0 -66 -31 -113 -78 -148c-10 -7 -23 -16 -37 -16v-9c3 0 8 -1 16 -5c72 -37 124 -83 124 -164c0 -110 -94 -187 -233 -187c-73 0 -222 21 -222 158c0 81 52 132 97 162c10 6 24 16 38 16v9c-3 0 -8 1 -16 5
c-56 34 -94 81 -94 154zM144 517c0 -77 75 -111 150 -144c31 21 84 67 84 138c0 77 -53 116 -124 116c-82 0 -110 -63 -110 -110zM393 156c0 85 -94 119 -171 150c-9 -3 -106 -52 -106 -146c0 -76 63 -114 144 -114c102 0 133 62 133 110z" />
    <glyph glyph-name="nine" unicode="9" horiz-adv-x="516" 
d="M36 332c0 121 89 220 220 220c134 0 215 -104 215 -257c0 -171 -101 -407 -373 -432l-7 45c155 36 235 118 271 272l-8 3c-31 -38 -80 -58 -129 -58c-101 0 -189 86 -189 207zM131 353c0 -112 66 -159 117 -159c13 0 59 3 94 22c24 13 26 23 29 37c3 12 6 29 6 59
c0 108 -39 191 -136 191c-28 0 -51 -7 -71 -28c-25 -26 -39 -71 -39 -122z" />
    <glyph glyph-name="sterling.tab" 
d="M38 314v53h74c-3 19 -5 38 -5 62c0 183 100 273 236 273c30 0 65 -4 122 -25c1 -8 1 -16 1 -24c0 -28 -4 -77 -13 -99l-46 -5c-5 58 -7 76 -17 84c-9 10 -37 16 -65 16c-83 0 -107 -62 -107 -210c0 -24 1 -48 3 -72h173v-53h-170c1 -12 1 -23 1 -34
c0 -63 -10 -124 -55 -179l3 -5c13 9 38 20 71 20c58 0 122 -36 159 -36c30 0 49 20 73 41l35 -23c-26 -49 -55 -107 -131 -107c-64 0 -112 43 -192 43c-52 0 -77 -19 -112 -44l-25 33c77 85 81 133 81 178c0 47 -6 81 -11 113h-83z" />
    <glyph glyph-name="yen.tab" 
d="M332 349h-145l-142 261c-18 29 -23 32 -69 43l7 40h235l4 -41l-67 -18c-5 -1 -7 -4 -7 -7c0 -5 4 -11 7 -16l104 -201c9 -15 10 -25 10 -29h10l101 195c12 23 21 38 21 48c0 14 -17 19 -60 29l6 40h198l4 -42c-59 -12 -74 -22 -90 -54zM214 215l97 2v-140
c0 -12 1 -23 20 -26l77 -12l-4 -39h-275l-6 39c88 14 91 23 91 62v114zM76 314v53h376v-53h-376zM76 192v53h376v-53h-376z" />
    <glyph glyph-name="Euro.tab" 
d="M343 368h-326v51h45c20 144 96 283 270 283c64 0 139 -19 155 -28c5 -31 6 -62 6 -94c0 -24 -1 -49 -2 -74l-57 -8c-16 83 -28 120 -39 128c-6 8 -45 23 -80 23c-89 0 -135 -96 -146 -230h174v-51zM17 297h326v-51h-168c23 -142 92 -199 165 -199c37 0 68 18 73 25
c8 6 14 19 34 128l55 -2c0 -52 -6 -123 -11 -162c-29 -19 -103 -45 -180 -45c-149 0 -228 110 -249 255h-45v51z" />
    <glyph glyph-name="zeroslash" horiz-adv-x="534" 
d="M261 -9c-147 0 -229 104 -229 272c0 173 87 289 241 289c147 0 229 -105 229 -273c0 -173 -87 -288 -241 -288zM277 44c24 0 63 6 86 35c24 30 42 104 42 185c0 129 -46 235 -148 235c-24 0 -63 -6 -86 -35c-24 -30 -42 -104 -42 -185c0 -129 46 -235 148 -235zM265 204
c-34 0 -64 20 -64 66c0 33 25 64 64 64c35 0 66 -17 66 -64c0 -35 -26 -66 -66 -66z" />
    <glyph glyph-name="zeroslash.tabonum" 
d="M253 -9c-147 0 -229 104 -229 272c0 173 87 289 241 289c147 0 229 -105 229 -273c0 -173 -87 -288 -241 -288zM269 44c24 0 63 6 86 35c24 30 42 104 42 185c0 129 -46 235 -148 235c-24 0 -63 -6 -86 -35c-24 -30 -42 -104 -42 -185c0 -129 46 -235 148 -235zM257 207
c-34 0 -64 20 -64 66c0 33 25 64 64 64c35 0 66 -17 66 -64c0 -35 -26 -66 -66 -66z" />
    <glyph glyph-name="zeroslash.tab" 
d="M251 -9c-151 0 -236 155 -236 332c0 184 91 354 253 354c152 0 237 -158 237 -333c0 -185 -93 -353 -254 -353zM248 624c-86 0 -128 -106 -128 -277c0 -206 61 -303 150 -303c85 0 130 89 130 265c0 202 -59 315 -152 315zM257 270c-34 0 -64 20 -64 66c0 33 25 64 64 64
c35 0 66 -17 66 -64c0 -35 -26 -66 -66 -66z" />
    <glyph glyph-name="zeroslash.fitted" horiz-adv-x="554" 
d="M268 -9c-151 0 -236 155 -236 332c0 184 91 354 253 354c152 0 237 -158 237 -333c0 -185 -93 -353 -254 -353zM265 624c-86 0 -128 -106 -128 -277c0 -206 61 -303 150 -303c85 0 130 89 130 265c0 202 -59 315 -152 315zM274 270c-34 0 -64 20 -64 66c0 33 25 64 64 64
c35 0 66 -17 66 -64c0 -35 -26 -66 -66 -66z" />
    <glyph glyph-name="zero.dnom" horiz-adv-x="382" 
d="M185 -6c-103 0 -167 97 -167 206c0 115 67 221 178 221c104 0 168 -98 168 -208c0 -114 -69 -219 -179 -219zM183 382c-51 0 -76 -64 -76 -167c0 -123 37 -181 90 -181c51 0 78 53 78 158c0 122 -36 190 -92 190z" />
    <glyph glyph-name="one.dnom" horiz-adv-x="267" 
d="M41 0l-4 31c51 8 64 16 64 35v258c0 43 -3 43 -19 43c-13 0 -32 -1 -44 -3l-5 31c29 10 97 26 133 26l8 -7v-362c0 -8 0 -11 13 -13l50 -8l-3 -31h-193z" />
    <glyph glyph-name="two.dnom" horiz-adv-x="330" 
d="M8 0v42c133 106 204 189 204 260c0 40 -24 78 -85 78c-22 0 -42 -7 -50 -16c-8 -8 -11 -12 -15 -68l-44 4c-4 19 -6 35 -6 55c0 9 0 24 1 31c30 23 91 35 129 35c108 0 161 -52 161 -120c0 -82 -69 -149 -217 -254l1 -5l61 2c47 1 81 1 86 4c5 1 13 7 26 61l40 -2v-19
c0 -26 -5 -71 -10 -88h-282z" />
    <glyph glyph-name="three.dnom" horiz-adv-x="313" 
d="M12 96l44 3c2 -40 6 -57 13 -59c12 -4 27 -6 51 -6c45 0 82 30 82 78c0 53 -26 86 -86 86c-9 0 -22 -1 -34 -2l2 36c78 12 104 53 104 90s-29 60 -65 60c-19 0 -35 -2 -44 -8c-7 -5 -12 -8 -17 -69l-43 4c-3 16 -6 32 -6 51c0 10 0 25 1 33c25 14 60 28 119 28
c80 0 137 -33 137 -88c0 -45 -38 -84 -77 -99l1 -5c50 -7 98 -44 98 -106c0 -63 -69 -129 -181 -129c-48 0 -97 9 -110 13c3 28 7 65 11 89z" />
    <glyph glyph-name="four.dnom" horiz-adv-x="355" 
d="M152 0l-4 31c51 8 63 16 63 35v43h-191l-15 46l202 258c23 4 52 8 70 8l7 -6v-255l67 -1l-6 -50h-61v-57c0 -6 2 -11 13 -13l37 -8l-2 -31h-180zM64 167l2 -4l145 -3v170c0 7 0 13 2 19l-4 2l-134 -170c-3 -5 -8 -10 -11 -14z" />
    <glyph glyph-name="five.dnom" horiz-adv-x="333" 
d="M99 358l-8 -104c22 6 54 10 80 10c85 0 141 -46 141 -120c0 -90 -85 -150 -187 -150c-56 0 -94 11 -107 16c1 26 5 58 12 90l42 3c4 -38 7 -59 13 -62c7 -5 28 -7 43 -7c56 0 95 41 95 98c0 46 -25 86 -84 86c-22 0 -54 -5 -80 -15l-24 24l14 188h234l7 -7
c0 -15 -5 -38 -11 -50h-180z" />
    <glyph glyph-name="six.dnom" horiz-adv-x="343" 
d="M330 132c0 -76 -61 -138 -157 -138s-152 62 -152 159c0 144 122 242 256 270l14 -34c-93 -32 -158 -79 -178 -153l5 -2c19 16 48 27 80 27c68 0 132 -48 132 -129zM247 124c0 58 -24 93 -60 93c-19 0 -50 -7 -65 -16c-11 -6 -15 -17 -16 -24c-3 -10 -3 -17 -3 -18
c0 -84 26 -127 82 -127c6 0 25 1 40 16c15 17 22 45 22 76z" />
    <glyph glyph-name="seven.dnom" horiz-adv-x="300" 
d="M59 4c14 75 90 239 181 354l-1 4l-114 -2c-23 -1 -46 -2 -52 -2c-7 -1 -9 -5 -20 -50l-40 3c-1 10 -1 23 -1 31c0 15 1 56 4 73h283v-44c-98 -145 -144 -274 -151 -375c-5 -1 -17 -2 -25 -2c-24 0 -48 4 -64 10z" />
    <glyph glyph-name="eight.dnom" horiz-adv-x="343" 
d="M30 303c0 72 64 118 145 118c52 0 141 -20 141 -99c0 -37 -21 -68 -51 -87c-6 -6 -13 -10 -22 -12v-5c2 -1 5 -1 11 -4c44 -22 78 -53 78 -102c0 -69 -65 -118 -164 -118c-53 0 -154 13 -154 97c0 52 40 86 67 102c6 3 11 6 19 6v7c-2 0 -5 0 -10 2c-32 17 -60 49 -60 95
zM104 323c0 -45 42 -63 94 -84c18 12 46 39 46 79c0 43 -31 66 -73 66c-48 0 -67 -32 -67 -61zM254 96c0 49 -56 65 -111 86c-8 -4 -57 -32 -57 -83c0 -43 37 -66 87 -66c62 0 81 36 81 63z" />
    <glyph glyph-name="nine.dnom" horiz-adv-x="344" 
d="M14 285c0 75 62 136 152 136c98 0 158 -64 158 -159c0 -107 -73 -254 -268 -269l-5 34c95 20 154 65 178 148l-5 2c-19 -14 -48 -22 -78 -22c-70 0 -132 54 -132 130zM97 295c0 -68 39 -96 69 -96c8 0 35 2 55 13c14 9 15 15 17 24c2 7 4 17 4 35c0 64 -23 113 -80 113
c-17 0 -30 -4 -42 -17c-15 -15 -23 -42 -23 -72z" />
    <glyph glyph-name="A.sc" horiz-adv-x="521" 
d="M11 0l-5 37c40 10 41 11 49 33l172 474h64l178 -487c3 -8 12 -13 46 -19l-3 -38h-198l-5 37c36 7 55 13 55 25c0 5 -1 9 -3 16l-31 90h-186l-35 -99c-2 -5 -3 -10 -3 -12c0 -1 0 -4 4 -5l56 -15l-3 -37h-152zM159 215h156l-68 203c-3 9 -5 19 -5 22h-5z" />
    <glyph glyph-name="B.sc" horiz-adv-x="520" 
d="M53 0l-5 36c58 10 59 18 59 48v369c0 30 -1 38 -59 48l5 36h215c120 0 184 -49 184 -128c0 -71 -50 -113 -82 -123v-5c66 -13 117 -69 117 -131c0 -68 -52 -150 -197 -150h-237zM200 300h40c80 0 112 41 112 100c0 85 -71 90 -104 90h-48v-190zM270 253h-70v-172
c0 -11 1 -22 11 -27c2 -2 15 -8 44 -8c96 0 129 37 129 97c0 89 -67 110 -114 110z" />
    <glyph glyph-name="C.sc" horiz-adv-x="512" 
d="M38 276c0 114 74 268 270 268c79 0 151 -32 167 -40c1 -9 1 -18 1 -31c0 -45 -4 -84 -12 -114l-60 -7c-12 104 -13 115 -22 121c-13 11 -45 24 -76 24c-113 0 -165 -96 -165 -221c0 -169 100 -236 185 -236c30 0 62 9 67 17c4 7 14 16 24 100l54 -3c5 -24 9 -64 9 -96
c0 -12 -1 -27 -2 -36c-26 -14 -116 -29 -158 -29c-216 0 -282 132 -282 283z" />
    <glyph glyph-name="D.sc" horiz-adv-x="592" 
d="M53 0l-5 36c58 10 59 18 59 48v369c0 30 -1 38 -59 48l5 36h253c192 0 253 -127 253 -252c0 -135 -73 -285 -271 -285h-235zM200 78c0 -10 1 -17 17 -21c17 -4 45 -10 74 -10c114 0 166 92 166 219c0 175 -98 224 -169 224h-88v-412z" />
    <glyph glyph-name="E.sc" horiz-adv-x="477" 
d="M53 0l-5 36c58 10 59 18 59 48v369c0 30 -1 38 -59 48l5 36h359c3 -19 5 -54 5 -67c0 -21 -1 -42 -2 -59l-50 -6c-15 73 -18 81 -26 82c-14 1 -26 2 -48 3l-91 2v-200h93c6 0 12 6 25 55l30 -2c0 -87 3 -101 11 -159l-34 -5c-16 56 -19 64 -26 64h-99v-200l59 1
c112 1 100 4 106 5c7 3 15 11 39 96l43 -5c1 -12 1 -27 1 -40c0 -29 -6 -83 -13 -102h-382z" />
    <glyph glyph-name="F.sc" horiz-adv-x="442" 
d="M53 0l-5 36c58 10 59 18 59 48v369c0 30 -1 38 -59 48l5 36h359c3 -19 5 -54 5 -67c0 -21 -1 -42 -2 -59l-50 -6c-15 73 -18 81 -26 82c-14 1 -26 2 -48 3l-91 2v-207h93c6 0 12 6 25 55l30 -2c0 -87 3 -101 11 -159l-34 -5c-16 56 -19 64 -26 64h-99v-173
c0 -9 1 -18 16 -20l79 -9l-3 -36h-239z" />
    <glyph glyph-name="G.sc" horiz-adv-x="560" 
d="M480 15c-69 -15 -136 -22 -180 -22c-197 0 -267 132 -267 283c0 114 78 268 273 268c81 0 153 -26 170 -32v-22c0 -38 -3 -86 -11 -116l-60 -7c-12 99 -12 107 -21 114c-14 11 -47 16 -80 16c-112 0 -168 -89 -168 -221c0 -177 106 -236 181 -236c24 0 55 4 70 9v108
c0 30 -1 38 -59 48l5 30h200l3 -30l-40 -10c-15 -3 -16 -11 -16 -20v-160z" />
    <glyph glyph-name="H.sc" horiz-adv-x="631" 
d="M53 0l-5 36c58 10 59 18 59 48v375c0 30 -1 32 -59 42l5 36h208l3 -36l-48 -9c-15 -3 -16 -11 -16 -20v-161h231v148c0 30 -1 32 -59 42l5 36h208l3 -36l-48 -9c-15 -3 -16 -11 -16 -20v-407c0 -9 1 -17 16 -20l48 -9l-3 -36h-208l-5 36c58 10 59 18 59 48v175h-231v-194
c0 -9 1 -17 16 -20l48 -9l-3 -36h-208z" />
    <glyph glyph-name="I.sc" horiz-adv-x="307" 
d="M53 0l-5 36c58 10 59 18 59 48v369c0 30 -1 38 -59 48l5 36h208l3 -36l-48 -9c-15 -3 -16 -11 -16 -20v-407c0 -9 1 -17 16 -20l48 -9l-3 -36h-208z" />
    <glyph glyph-name="J.sc" horiz-adv-x="309" 
d="M201 477v-378c0 -101 -74 -201 -134 -201c-33 0 -50 2 -71 7c-2 6 -2 14 -2 22c0 18 5 38 16 55c23 -6 38 -9 51 -9c11 0 18 2 24 6c21 15 23 78 23 147v328c0 30 -9 38 -67 48l5 35h224l3 -35l-56 -10c-12 -2 -16 -9 -16 -15z" />
    <glyph glyph-name="K.sc" horiz-adv-x="546" 
d="M200 472v-192l175 185c7 7 12 13 12 18c0 10 -16 16 -60 18l5 36h175l3 -38c-35 -2 -49 -14 -61 -26l-151 -160l170 -245c14 -21 31 -29 72 -32l-5 -36h-138l-165 245l-32 -34v-146c0 -9 1 -17 16 -20l43 -9l-3 -36h-203l-5 36c58 10 59 18 59 48v369c0 30 -1 38 -59 48
l5 36h208l3 -36l-48 -9c-15 -3 -16 -11 -16 -20z" />
    <glyph glyph-name="L.sc" horiz-adv-x="456" 
d="M53 0l-5 36c58 10 59 18 59 48v369c0 30 -1 38 -59 48l5 36h208l3 -36l-48 -9c-15 -3 -16 -11 -16 -20v-427l62 1c85 1 90 4 95 6c8 2 16 12 36 119l48 -4c1 -13 1 -32 1 -45c0 -48 -5 -92 -8 -122h-381z" />
    <glyph glyph-name="M.sc" horiz-adv-x="717" 
d="M30 0l-4 36c56 11 60 13 62 44l23 373c2 34 -7 38 -59 48l4 36h162l130 -366c2 -4 4 -11 6 -19h8c1 6 2 11 4 15l135 370h164l3 -36l-48 -9c-13 -2 -16 -10 -16 -18v-4l25 -405c0 -9 1 -17 15 -20l49 -9l-3 -36h-214l-5 36c53 9 60 18 60 42v6l-12 329c0 15 1 21 3 29
l-7 2l-148 -408h-66l-137 381c-2 8 -3 16 -3 22h-7l-16 -351c0 -22 2 -40 28 -45l36 -7l-3 -36h-169z" />
    <glyph glyph-name="N.sc" horiz-adv-x="577" 
d="M36 0l-5 36c58 10 59 18 59 48v369c0 30 -1 38 -59 48l5 36h155l233 -349c9 -13 12 -21 13 -28h6v278c0 45 -8 56 -75 63l5 36h181l3 -36l-48 -9c-15 -3 -15 -11 -15 -20v-472l-53 -4l-281 416c-9 14 -12 21 -13 29h-6v-358c0 -25 7 -37 34 -40l54 -7l-3 -36h-190z" />
    <glyph glyph-name="O.sc" horiz-adv-x="582" 
d="M33 262c0 168 97 282 264 282c162 0 252 -105 252 -262c0 -173 -96 -289 -264 -289c-162 0 -252 107 -252 269zM298 34c111 0 148 115 148 235c0 132 -53 234 -161 234c-111 0 -149 -113 -149 -228c0 -136 53 -241 162 -241z" />
    <glyph glyph-name="P.sc" horiz-adv-x="491" 
d="M48 501l5 36h234c122 0 176 -61 176 -146c0 -100 -70 -186 -215 -186h-48v-140c0 -9 1 -18 16 -20l79 -9l-3 -36h-239l-5 36c58 10 59 18 59 48v369c0 30 -1 38 -59 48zM264 490h-48c-15 0 -16 -9 -16 -18v-220h34c52 0 127 21 127 129c0 96 -59 109 -97 109z" />
    <glyph glyph-name="Q.sc" horiz-adv-x="582" 
d="M33 262c0 168 97 282 264 282c162 0 252 -105 252 -262c0 -168 -92 -277 -232 -284l-1 -4c39 -17 111 -48 145 -48c18 0 33 10 57 36l26 -19c-36 -60 -57 -81 -87 -81c-9 0 -22 2 -52 13l-123 44c-11 4 -26 8 -37 8c-24 0 -40 -18 -59 -38l-26 18c16 27 37 57 51 74
c-108 24 -178 118 -178 261zM298 34c111 0 148 115 148 235c0 132 -53 234 -161 234c-111 0 -149 -113 -149 -228c0 -136 53 -241 162 -241z" />
    <glyph glyph-name="R.sc" horiz-adv-x="530" 
d="M53 0l-5 36c58 10 59 18 59 48v369c0 30 -1 38 -59 48l5 36h232c118 0 166 -51 166 -130c0 -52 -39 -121 -107 -153v-4c4 -1 8 -5 13 -13l100 -169c14 -21 28 -29 67 -32l-5 -36h-131l-140 233h-48v-168c0 -9 1 -17 16 -20l43 -9l-3 -36h-203zM200 278h34
c70 0 118 22 118 120c0 80 -57 92 -98 92h-40c-12 0 -13 -8 -14 -16v-196z" />
    <glyph glyph-name="S.sc" horiz-adv-x="428" 
d="M366 514c1 -6 1 -12 1 -18c0 -27 -6 -75 -13 -98l-52 -5c-4 63 -11 79 -20 86c-10 9 -40 16 -67 16c-28 0 -48 -7 -62 -18c-10 -7 -26 -24 -26 -52c0 -113 265 -104 265 -279c0 -91 -71 -153 -198 -153c-62 0 -129 15 -151 23c-2 10 -2 21 -2 37c0 43 3 77 9 105l59 5
c9 -90 12 -97 21 -102c11 -7 48 -19 84 -19c29 0 49 7 62 17c17 14 25 38 25 60c0 123 -258 110 -258 276c0 92 80 149 194 149c57 0 108 -18 129 -30z" />
    <glyph glyph-name="T.sc" horiz-adv-x="467" 
d="M116 36c68 11 71 18 71 48v408h-49c-22 0 -42 -2 -48 -3c-10 -2 -10 -3 -31 -76l-45 5c0 38 4 77 19 119h401c14 -39 17 -78 19 -119l-45 -5c-21 73 -21 74 -32 76c-6 1 -25 3 -47 3h-49v-427c0 -9 1 -17 15 -20l61 -9l-4 -36h-231z" />
    <glyph glyph-name="U.sc" horiz-adv-x="603" 
d="M452 439c0 44 -8 55 -75 62l5 36h183l3 -36l-48 -9c-15 -3 -16 -11 -16 -20v-281c0 -119 -71 -198 -197 -198c-136 0 -203 61 -203 192v268c0 30 -1 38 -59 48l5 36h208l3 -36l-48 -9c-15 -3 -16 -11 -16 -20v-278c0 -99 33 -149 124 -149c92 0 131 69 131 137v257z" />
    <glyph glyph-name="V.sc" horiz-adv-x="524" 
d="M230 -7l-172 474c-9 23 -16 25 -52 34l5 36h203l3 -37l-55 -15c-4 -1 -6 -3 -6 -5s2 -7 4 -12l113 -330c4 -11 7 -24 7 -27h8l115 324c8 24 11 33 11 40c0 12 -21 19 -57 26l4 36h157l3 -38c-45 -9 -50 -17 -59 -43l-169 -463h-63z" />
    <glyph glyph-name="W.sc" horiz-adv-x="750" 
d="M465 -7l-78 264c-1 5 -3 12 -3 16h-5c0 -3 -3 -12 -4 -15l-92 -265h-67l-159 474c-8 23 -18 25 -54 34l5 36h194l3 -37l-42 -14c-4 -1 -6 -4 -6 -6c0 -1 2 -7 3 -11l102 -334c3 -11 7 -23 7 -26h7l83 245l-33 113c-7 25 -17 25 -48 34l6 36h184l3 -37l-54 -14
c-4 -1 -6 -4 -6 -6c0 -1 2 -7 3 -11l96 -334c4 -11 7 -23 7 -26h8l103 326c5 16 8 32 8 38c0 14 -17 21 -58 28l5 36h164l3 -38c-45 -9 -52 -17 -61 -43l-158 -463h-66z" />
    <glyph glyph-name="X.sc" horiz-adv-x="517" 
d="M15 0l-5 37c39 10 42 14 56 33l138 192l-138 205c-14 21 -17 25 -53 34l6 36h207l3 -37l-52 -14c-4 -1 -6 -4 -6 -6c0 -4 3 -8 6 -12l81 -120c5 -7 8 -20 8 -24h7l82 117c12 17 20 29 20 36c0 12 -16 16 -51 24l5 36h159l3 -38c-45 -9 -48 -19 -64 -42l-124 -167
l157 -232c7 -10 14 -14 47 -20l-3 -38h-203l-5 37c22 4 47 7 47 23c0 4 -2 9 -6 15l-86 128c-4 6 -8 18 -8 23h-8l-110 -155c-4 -7 -6 -11 -6 -14c0 -4 2 -6 7 -8l44 -12l-3 -37h-152z" />
    <glyph glyph-name="Y.sc" horiz-adv-x="511" 
d="M281 287l92 154c11 18 16 29 16 37c0 11 -13 15 -47 23l5 36h159l3 -38c-46 -9 -59 -18 -73 -42l-130 -222v-170c0 -9 1 -18 16 -20l60 -9l-3 -36h-233l-4 36c68 11 71 18 71 48v141l-153 242c-14 23 -18 25 -54 34l5 36h207l3 -37l-53 -14c-3 -1 -5 -3 -5 -6
c0 -4 3 -8 5 -12l98 -154c7 -11 7 -24 7 -27h8z" />
    <glyph glyph-name="Z.sc" horiz-adv-x="493" 
d="M123 390l-55 5c-1 16 -2 35 -2 56c0 16 3 61 7 86h381l-1 -26l-276 -443c-5 -7 -10 -14 -17 -17l1 -6l36 1c112 2 163 5 169 6c7 2 18 22 34 101l56 -4c1 -8 1 -18 1 -26c0 -35 -7 -101 -13 -123h-411v26l276 443c5 7 10 14 17 18l-2 5h-60c-32 0 -93 -2 -109 -5
c-9 0 -17 -24 -32 -97z" />
    <glyph glyph-name="zero.numr" horiz-adv-x="382" 
d="M185 272c-103 0 -167 97 -167 206c0 115 67 221 178 221c104 0 168 -98 168 -208c0 -114 -69 -219 -179 -219zM183 660c-51 0 -76 -64 -76 -167c0 -123 37 -181 90 -181c51 0 78 53 78 158c0 122 -36 190 -92 190z" />
    <glyph glyph-name="one.numr" horiz-adv-x="267" 
d="M41 278l-4 31c51 8 64 16 64 35v258c0 43 -3 43 -19 43c-13 0 -32 -1 -44 -3l-5 31c29 10 97 26 133 26l8 -7v-362c0 -8 0 -11 13 -13l50 -8l-3 -31h-193z" />
    <glyph glyph-name="two.numr" horiz-adv-x="330" 
d="M8 278v42c133 106 204 189 204 260c0 40 -24 78 -85 78c-22 0 -42 -7 -50 -16c-8 -8 -11 -12 -15 -68l-44 4c-4 19 -6 35 -6 55c0 9 0 24 1 31c30 23 91 35 129 35c108 0 161 -52 161 -120c0 -82 -69 -149 -217 -254l1 -5l61 2c47 1 81 1 86 4c5 1 13 7 26 61l40 -2v-19
c0 -26 -5 -71 -10 -88h-282z" />
    <glyph glyph-name="three.numr" horiz-adv-x="313" 
d="M12 374l44 3c2 -40 6 -57 13 -59c12 -4 27 -6 51 -6c45 0 82 30 82 78c0 53 -26 86 -86 86c-9 0 -22 -1 -34 -2l2 36c78 12 104 53 104 90s-29 60 -65 60c-19 0 -35 -2 -44 -8c-7 -5 -12 -8 -17 -69l-43 4c-3 16 -6 32 -6 51c0 10 0 25 1 33c25 14 60 28 119 28
c80 0 137 -33 137 -88c0 -45 -38 -84 -77 -99l1 -5c50 -7 98 -44 98 -106c0 -63 -69 -129 -181 -129c-48 0 -97 9 -110 13c3 28 7 65 11 89z" />
    <glyph glyph-name="four.numr" horiz-adv-x="355" 
d="M152 278l-4 31c51 8 63 16 63 35v43h-191l-15 46l202 258c23 4 52 8 70 8l7 -6v-255l67 -1l-6 -50h-61v-57c0 -6 2 -11 13 -13l37 -8l-2 -31h-180zM64 445l2 -4l145 -3v170c0 7 0 13 2 19l-4 2l-134 -170c-3 -5 -8 -10 -11 -14z" />
    <glyph glyph-name="five.numr" horiz-adv-x="333" 
d="M99 636l-8 -104c22 6 54 10 80 10c85 0 141 -46 141 -120c0 -90 -85 -150 -187 -150c-56 0 -94 11 -107 16c1 26 5 58 12 90l42 3c4 -38 7 -59 13 -62c7 -5 28 -7 43 -7c56 0 95 41 95 98c0 46 -25 86 -84 86c-22 0 -54 -5 -80 -15l-24 24l14 188h234l7 -7
c0 -15 -5 -38 -11 -50h-180z" />
    <glyph glyph-name="six.numr" horiz-adv-x="343" 
d="M330 410c0 -76 -61 -138 -157 -138s-152 62 -152 159c0 144 122 242 256 270l14 -34c-93 -32 -158 -79 -178 -153l5 -2c19 16 48 27 80 27c68 0 132 -48 132 -129zM247 402c0 58 -24 93 -60 93c-19 0 -50 -7 -65 -16c-11 -6 -15 -17 -16 -24c-3 -10 -3 -17 -3 -18
c0 -84 26 -127 82 -127c6 0 25 1 40 16c15 17 22 45 22 76z" />
    <glyph glyph-name="seven.numr" horiz-adv-x="300" 
d="M59 282c14 75 90 239 181 354l-1 4l-114 -2c-23 -1 -46 -2 -52 -2c-7 -1 -9 -5 -20 -50l-40 3c-1 10 -1 23 -1 31c0 15 1 56 4 73h283v-44c-98 -145 -144 -274 -151 -375c-5 -1 -17 -2 -25 -2c-24 0 -48 4 -64 10z" />
    <glyph glyph-name="eight.numr" horiz-adv-x="343" 
d="M30 581c0 72 64 118 145 118c52 0 141 -20 141 -99c0 -37 -21 -68 -51 -87c-6 -6 -13 -10 -22 -12v-5c2 -1 5 -1 11 -4c44 -22 78 -53 78 -102c0 -69 -65 -118 -164 -118c-53 0 -154 13 -154 97c0 52 40 86 67 102c6 3 11 6 19 6v7c-2 0 -5 0 -10 2c-32 17 -60 49 -60 95
zM104 601c0 -45 42 -63 94 -84c18 12 46 39 46 79c0 43 -31 66 -73 66c-48 0 -67 -32 -67 -61zM254 374c0 49 -56 65 -111 86c-8 -4 -57 -32 -57 -83c0 -43 37 -66 87 -66c62 0 81 36 81 63z" />
    <glyph glyph-name="nine.numr" horiz-adv-x="344" 
d="M14 563c0 75 62 136 152 136c98 0 158 -64 158 -159c0 -107 -73 -254 -268 -269l-5 34c95 20 154 65 178 148l-5 2c-19 -14 -48 -22 -78 -22c-70 0 -132 54 -132 130zM97 573c0 -68 39 -96 69 -96c8 0 35 2 55 13c14 9 15 15 17 24c2 7 4 17 4 35c0 64 -23 113 -80 113
c-17 0 -30 -4 -42 -17c-15 -15 -23 -42 -23 -72z" />
    <glyph glyph-name="Agrave.sc" horiz-adv-x="521" 
d="M11 0l-5 37c40 10 41 11 49 33l172 474h64l178 -487c3 -8 12 -13 46 -19l-3 -38h-198l-5 37c36 7 55 13 55 25c0 5 -1 9 -3 16l-31 90h-186l-35 -99c-2 -5 -3 -10 -3 -12c0 -1 0 -4 4 -5l56 -15l-3 -37h-152zM159 215h156l-68 203c-3 9 -5 19 -5 22h-5zM96 693l-8 21
l60 51l174 -129l-25 -36z" />
    <glyph glyph-name="Aacute.sc" horiz-adv-x="521" 
d="M11 0l-5 37c40 10 41 11 49 33l172 474h64l178 -487c3 -8 12 -13 46 -19l-3 -38h-198l-5 37c36 7 55 13 55 25c0 5 -1 9 -3 16l-31 90h-186l-35 -99c-2 -5 -3 -10 -3 -12c0 -1 0 -4 4 -5l56 -15l-3 -37h-152zM159 215h156l-68 203c-3 9 -5 19 -5 22h-5zM394 714l-8 -21
l-201 -93l-25 36l174 129z" />
    <glyph glyph-name="Acircumflex.sc" horiz-adv-x="521" 
d="M11 0l-5 37c40 10 41 11 49 33l172 474h64l178 -487c3 -8 12 -13 46 -19l-3 -38h-198l-5 37c36 7 55 13 55 25c0 5 -1 9 -3 16l-31 90h-186l-35 -99c-2 -5 -3 -10 -3 -12c0 -1 0 -4 4 -5l56 -15l-3 -37h-152zM159 215h156l-68 203c-3 9 -5 19 -5 22h-5zM402 600l-139 91
l-139 -91l-25 26l136 139h56l136 -139z" />
    <glyph glyph-name="Atilde.sc" horiz-adv-x="521" 
d="M11 0l-5 37c40 10 41 11 49 33l172 474h64l178 -487c3 -8 12 -13 46 -19l-3 -38h-198l-5 37c36 7 55 13 55 25c0 5 -1 9 -3 16l-31 90h-186l-35 -99c-2 -5 -3 -10 -3 -12c0 -1 0 -4 4 -5l56 -15l-3 -37h-152zM159 215h156l-68 203c-3 9 -5 19 -5 22h-5zM421 742l25 -12
c-22 -48 -50 -101 -92 -101c-37 0 -128 27 -174 27c-25 0 -48 -10 -72 -34l-23 16c43 71 70 96 103 96c42 0 130 -27 170 -27c24 0 41 12 63 35z" />
    <glyph glyph-name="Adieresis.sc" horiz-adv-x="521" 
d="M11 0l-5 37c40 10 41 11 49 33l172 474h64l178 -487c3 -8 12 -13 46 -19l-3 -38h-198l-5 37c36 7 55 13 55 25c0 5 -1 9 -3 16l-31 90h-186l-35 -99c-2 -5 -3 -10 -3 -12c0 -1 0 -4 4 -5l56 -15l-3 -37h-152zM159 215h156l-68 203c-3 9 -5 19 -5 22h-5zM359 626
c-30 0 -52 17 -52 56c0 28 20 54 52 54c29 0 53 -14 53 -54c0 -30 -21 -56 -53 -56zM166 626c-30 0 -52 17 -52 56c0 28 20 54 52 54c29 0 53 -14 53 -54c0 -30 -21 -56 -53 -56z" />
    <glyph glyph-name="Aring.sc" horiz-adv-x="521" 
d="M11 0l-5 37c40 10 41 11 49 33l172 474h64l178 -487c3 -8 12 -13 46 -19l-3 -38h-198l-5 37c36 7 55 13 55 25c0 5 -1 9 -3 16l-31 90h-186l-35 -99c-2 -5 -3 -10 -3 -12c0 -1 0 -4 4 -5l56 -15l-3 -37h-152zM159 215h156l-68 203c-3 9 -5 19 -5 22h-5zM258 590
c-52 0 -96 32 -96 88s46 92 101 92c52 0 96 -34 96 -87c0 -55 -46 -93 -101 -93zM258 633c30 0 51 21 51 50c0 27 -19 44 -46 44c-35 0 -52 -20 -52 -49s20 -45 47 -45z" />
    <glyph glyph-name="Ccedilla.sc" horiz-adv-x="512" 
d="M38 276c0 114 74 268 270 268c79 0 151 -32 167 -40c1 -9 1 -18 1 -31c0 -45 -4 -84 -12 -114l-60 -7c-12 104 -13 115 -22 121c-13 11 -45 24 -76 24c-113 0 -165 -96 -165 -221c0 -169 100 -236 185 -236c30 0 62 9 67 17c4 7 14 16 24 100l54 -3c5 -24 9 -64 9 -96
c0 -12 -1 -27 -2 -36c-26 -14 -116 -29 -158 -29c-216 0 -282 132 -282 283zM230 -89l38 129l49 -13l-32 -113zM235 -217l-4 31c58 8 95 28 95 58c0 20 -15 38 -46 38c-13 0 -30 -4 -41 -10l-9 11l48 37c16 5 32 7 45 7c54 0 85 -25 85 -64c0 -53 -62 -102 -173 -108z" />
    <glyph glyph-name="Egrave.sc" horiz-adv-x="477" 
d="M53 0l-5 36c58 10 59 18 59 48v369c0 30 -1 38 -59 48l5 36h359c3 -19 5 -54 5 -67c0 -21 -1 -42 -2 -59l-50 -6c-15 73 -18 81 -26 82c-14 1 -26 2 -48 3l-91 2v-200h93c6 0 12 6 25 55l30 -2c0 -87 3 -101 11 -159l-34 -5c-16 56 -19 64 -26 64h-99v-200l59 1
c112 1 100 4 106 5c7 3 15 11 39 96l43 -5c1 -12 1 -27 1 -40c0 -29 -6 -83 -13 -102h-382zM87 693l-8 21l60 51l174 -129l-25 -36z" />
    <glyph glyph-name="Eacute.sc" horiz-adv-x="477" 
d="M53 0l-5 36c58 10 59 18 59 48v369c0 30 -1 38 -59 48l5 36h359c3 -19 5 -54 5 -67c0 -21 -1 -42 -2 -59l-50 -6c-15 73 -18 81 -26 82c-14 1 -26 2 -48 3l-91 2v-200h93c6 0 12 6 25 55l30 -2c0 -87 3 -101 11 -159l-34 -5c-16 56 -19 64 -26 64h-99v-200l59 1
c112 1 100 4 106 5c7 3 15 11 39 96l43 -5c1 -12 1 -27 1 -40c0 -29 -6 -83 -13 -102h-382zM385 714l-8 -21l-201 -93l-25 36l174 129z" />
    <glyph glyph-name="Ecircumflex.sc" horiz-adv-x="477" 
d="M53 0l-5 36c58 10 59 18 59 48v369c0 30 -1 38 -59 48l5 36h359c3 -19 5 -54 5 -67c0 -21 -1 -42 -2 -59l-50 -6c-15 73 -18 81 -26 82c-14 1 -26 2 -48 3l-91 2v-200h93c6 0 12 6 25 55l30 -2c0 -87 3 -101 11 -159l-34 -5c-16 56 -19 64 -26 64h-99v-200l59 1
c112 1 100 4 106 5c7 3 15 11 39 96l43 -5c1 -12 1 -27 1 -40c0 -29 -6 -83 -13 -102h-382zM379 600l-139 91l-139 -91l-25 26l136 139h56l136 -139z" />
    <glyph glyph-name="Edieresis.sc" horiz-adv-x="477" 
d="M53 0l-5 36c58 10 59 18 59 48v369c0 30 -1 38 -59 48l5 36h359c3 -19 5 -54 5 -67c0 -21 -1 -42 -2 -59l-50 -6c-15 73 -18 81 -26 82c-14 1 -26 2 -48 3l-91 2v-200h93c6 0 12 6 25 55l30 -2c0 -87 3 -101 11 -159l-34 -5c-16 56 -19 64 -26 64h-99v-200l59 1
c112 1 100 4 106 5c7 3 15 11 39 96l43 -5c1 -12 1 -27 1 -40c0 -29 -6 -83 -13 -102h-382zM336 626c-30 0 -52 17 -52 56c0 28 20 54 52 54c29 0 53 -14 53 -54c0 -30 -21 -56 -53 -56zM143 626c-30 0 -52 17 -52 56c0 28 20 54 52 54c29 0 53 -14 53 -54
c0 -30 -21 -56 -53 -56z" />
    <glyph glyph-name="Igrave.sc" horiz-adv-x="307" 
d="M53 0l-5 36c58 10 59 18 59 48v369c0 30 -1 38 -59 48l5 36h208l3 -36l-48 -9c-15 -3 -16 -11 -16 -20v-407c0 -9 1 -17 16 -20l48 -9l-3 -36h-208zM8 693l-8 21l60 51l174 -129l-25 -36z" />
    <glyph glyph-name="Iacute.sc" horiz-adv-x="307" 
d="M53 0l-5 36c58 10 59 18 59 48v369c0 30 -1 38 -59 48l5 36h208l3 -36l-48 -9c-15 -3 -16 -11 -16 -20v-407c0 -9 1 -17 16 -20l48 -9l-3 -36h-208zM291 714l-8 -21l-201 -93l-25 36l174 129z" />
    <glyph glyph-name="Icircumflex.sc" horiz-adv-x="307" 
d="M53 0l-5 36c58 10 59 18 59 48v369c0 30 -1 38 -59 48l5 36h208l3 -36l-48 -9c-15 -3 -16 -11 -16 -20v-407c0 -9 1 -17 16 -20l48 -9l-3 -36h-208zM297 600l-139 91l-139 -91l-25 26l136 139h56l136 -139z" />
    <glyph glyph-name="Idieresis.sc" horiz-adv-x="307" 
d="M53 0l-5 36c58 10 59 18 59 48v369c0 30 -1 38 -59 48l5 36h208l3 -36l-48 -9c-15 -3 -16 -11 -16 -20v-407c0 -9 1 -17 16 -20l48 -9l-3 -36h-208zM253 626c-30 0 -52 17 -52 56c0 28 20 54 52 54c29 0 53 -14 53 -54c0 -30 -21 -56 -53 -56zM60 626
c-30 0 -52 17 -52 56c0 28 20 54 52 54c29 0 53 -14 53 -54c0 -30 -21 -56 -53 -56z" />
    <glyph glyph-name="Ntilde.sc" horiz-adv-x="577" 
d="M36 0l-5 36c58 10 59 18 59 48v369c0 30 -1 38 -59 48l5 36h155l233 -349c9 -13 12 -21 13 -28h6v278c0 45 -8 56 -75 63l5 36h181l3 -36l-48 -9c-15 -3 -15 -11 -15 -20v-472l-53 -4l-281 416c-9 14 -12 21 -13 29h-6v-358c0 -25 7 -37 34 -40l54 -7l-3 -36h-190z
M436 742l25 -12c-22 -48 -50 -101 -92 -101c-37 0 -128 27 -174 27c-25 0 -48 -10 -72 -34l-23 16c43 71 70 96 103 96c42 0 130 -27 170 -27c24 0 41 12 63 35z" />
    <glyph glyph-name="Ograve.sc" horiz-adv-x="582" 
d="M33 262c0 168 97 282 264 282c162 0 252 -105 252 -262c0 -173 -96 -289 -264 -289c-162 0 -252 107 -252 269zM298 34c111 0 148 115 148 235c0 132 -53 234 -161 234c-111 0 -149 -113 -149 -228c0 -136 53 -241 162 -241zM141 693l-8 21l60 51l174 -129l-25 -36z" />
    <glyph glyph-name="Oacute.sc" horiz-adv-x="582" 
d="M33 262c0 168 97 282 264 282c162 0 252 -105 252 -262c0 -173 -96 -289 -264 -289c-162 0 -252 107 -252 269zM298 34c111 0 148 115 148 235c0 132 -53 234 -161 234c-111 0 -149 -113 -149 -228c0 -136 53 -241 162 -241zM426 714l-8 -21l-201 -93l-25 36l174 129z
" />
    <glyph glyph-name="Ocircumflex.sc" horiz-adv-x="582" 
d="M33 262c0 168 97 282 264 282c162 0 252 -105 252 -262c0 -173 -96 -289 -264 -289c-162 0 -252 107 -252 269zM298 34c111 0 148 115 148 235c0 132 -53 234 -161 234c-111 0 -149 -113 -149 -228c0 -136 53 -241 162 -241zM427 600l-139 91l-139 -91l-25 26l136 139h56
l136 -139z" />
    <glyph glyph-name="Otilde.sc" horiz-adv-x="582" 
d="M33 262c0 168 97 282 264 282c162 0 252 -105 252 -262c0 -173 -96 -289 -264 -289c-162 0 -252 107 -252 269zM298 34c111 0 148 115 148 235c0 132 -53 234 -161 234c-111 0 -149 -113 -149 -228c0 -136 53 -241 162 -241zM453 742l25 -12c-22 -48 -50 -101 -92 -101
c-37 0 -128 27 -174 27c-25 0 -48 -10 -72 -34l-23 16c43 71 70 96 103 96c42 0 130 -27 170 -27c24 0 41 12 63 35z" />
    <glyph glyph-name="Odieresis.sc" horiz-adv-x="582" 
d="M33 262c0 168 97 282 264 282c162 0 252 -105 252 -262c0 -173 -96 -289 -264 -289c-162 0 -252 107 -252 269zM298 34c111 0 148 115 148 235c0 132 -53 234 -161 234c-111 0 -149 -113 -149 -228c0 -136 53 -241 162 -241zM389 626c-30 0 -52 17 -52 56
c0 28 20 54 52 54c29 0 53 -14 53 -54c0 -30 -21 -56 -53 -56zM196 626c-30 0 -52 17 -52 56c0 28 20 54 52 54c29 0 53 -14 53 -54c0 -30 -21 -56 -53 -56z" />
    <glyph glyph-name="Oslash.sc" horiz-adv-x="582" 
d="M436 607l55 -20l-335 -653l-54 20zM33 262c0 168 97 282 264 282c162 0 252 -105 252 -262c0 -173 -96 -289 -264 -289c-162 0 -252 107 -252 269zM298 34c111 0 148 115 148 235c0 132 -53 234 -161 234c-111 0 -149 -113 -149 -228c0 -136 53 -241 162 -241z" />
    <glyph glyph-name="Ugrave.sc" horiz-adv-x="603" 
d="M452 439c0 44 -8 55 -75 62l5 36h183l3 -36l-48 -9c-15 -3 -16 -11 -16 -20v-281c0 -119 -71 -198 -197 -198c-136 0 -203 61 -203 192v268c0 30 -1 38 -59 48l5 36h208l3 -36l-48 -9c-15 -3 -16 -11 -16 -20v-278c0 -99 33 -149 124 -149c92 0 131 69 131 137v257z
M156 693l-8 21l60 51l174 -129l-25 -36z" />
    <glyph glyph-name="Uacute.sc" horiz-adv-x="603" 
d="M452 439c0 44 -8 55 -75 62l5 36h183l3 -36l-48 -9c-15 -3 -16 -11 -16 -20v-281c0 -119 -71 -198 -197 -198c-136 0 -203 61 -203 192v268c0 30 -1 38 -59 48l5 36h208l3 -36l-48 -9c-15 -3 -16 -11 -16 -20v-278c0 -99 33 -149 124 -149c92 0 131 69 131 137v257z
M445 714l-8 -21l-201 -93l-25 36l174 129z" />
    <glyph glyph-name="Ucircumflex.sc" horiz-adv-x="603" 
d="M452 439c0 44 -8 55 -75 62l5 36h183l3 -36l-48 -9c-15 -3 -16 -11 -16 -20v-281c0 -119 -71 -198 -197 -198c-136 0 -203 61 -203 192v268c0 30 -1 38 -59 48l5 36h208l3 -36l-48 -9c-15 -3 -16 -11 -16 -20v-278c0 -99 33 -149 124 -149c92 0 131 69 131 137v257z
M445 600l-139 91l-139 -91l-25 26l136 139h56l136 -139z" />
    <glyph glyph-name="Udieresis.sc" horiz-adv-x="603" 
d="M452 439c0 44 -8 55 -75 62l5 36h183l3 -36l-48 -9c-15 -3 -16 -11 -16 -20v-281c0 -119 -71 -198 -197 -198c-136 0 -203 61 -203 192v268c0 30 -1 38 -59 48l5 36h208l3 -36l-48 -9c-15 -3 -16 -11 -16 -20v-278c0 -99 33 -149 124 -149c92 0 131 69 131 137v257z
M411 626c-30 0 -52 17 -52 56c0 28 20 54 52 54c29 0 53 -14 53 -54c0 -30 -21 -56 -53 -56zM218 626c-30 0 -52 17 -52 56c0 28 20 54 52 54c29 0 53 -14 53 -54c0 -30 -21 -56 -53 -56z" />
    <glyph glyph-name="Yacute.sc" horiz-adv-x="511" 
d="M281 287l92 154c11 18 16 29 16 37c0 11 -13 15 -47 23l5 36h159l3 -38c-46 -9 -59 -18 -73 -42l-130 -222v-170c0 -9 1 -18 16 -20l60 -9l-3 -36h-233l-4 36c68 11 71 18 71 48v141l-153 242c-14 23 -18 25 -54 34l5 36h207l3 -37l-53 -14c-3 -1 -5 -3 -5 -6
c0 -4 3 -8 5 -12l98 -154c7 -11 7 -24 7 -27h8zM418 714l-8 -21l-201 -93l-25 36l174 129z" />
    <glyph glyph-name="Ydieresis.sc" horiz-adv-x="511" 
d="M281 287l92 154c11 18 16 29 16 37c0 11 -13 15 -47 23l5 36h159l3 -38c-46 -9 -59 -18 -73 -42l-130 -222v-170c0 -9 1 -18 16 -20l60 -9l-3 -36h-233l-4 36c68 11 71 18 71 48v141l-153 242c-14 23 -18 25 -54 34l5 36h207l3 -37l-53 -14c-3 -1 -5 -3 -5 -6
c0 -4 3 -8 5 -12l98 -154c7 -11 7 -24 7 -27h8zM366 626c-30 0 -52 17 -52 56c0 28 20 54 52 54c29 0 53 -14 53 -54c0 -30 -21 -56 -53 -56zM173 626c-30 0 -52 17 -52 56c0 28 20 54 52 54c29 0 53 -14 53 -54c0 -30 -21 -56 -53 -56z" />
    <glyph glyph-name="Amacron.sc" horiz-adv-x="521" 
d="M11 0l-5 37c40 10 41 11 49 33l172 474h64l178 -487c3 -8 12 -13 46 -19l-3 -38h-198l-5 37c36 7 55 13 55 25c0 5 -1 9 -3 16l-31 90h-186l-35 -99c-2 -5 -3 -10 -3 -12c0 -1 0 -4 4 -5l56 -15l-3 -37h-152zM159 215h156l-68 203c-3 9 -5 19 -5 22h-5zM143 650v60h249
v-60h-249z" />
    <glyph glyph-name="Abreve.sc" horiz-adv-x="521" 
d="M11 0l-5 37c40 10 41 11 49 33l172 474h64l178 -487c3 -8 12 -13 46 -19l-3 -38h-198l-5 37c36 7 55 13 55 25c0 5 -1 9 -3 16l-31 90h-186l-35 -99c-2 -5 -3 -10 -3 -12c0 -1 0 -4 4 -5l56 -15l-3 -37h-152zM159 215h156l-68 203c-3 9 -5 19 -5 22h-5zM378 751h37
c-5 -76 -49 -140 -149 -140s-144 64 -149 140h37c11 -47 47 -72 112 -72s101 25 112 72z" />
    <glyph glyph-name="Aogonek.sc" horiz-adv-x="521" 
d="M11 0l-5 37c40 10 41 11 49 33l172 474h64l178 -487c3 -8 12 -13 46 -19l-3 -38h-198l-5 37c36 7 55 13 55 25c0 5 -1 9 -3 16l-31 90h-186l-35 -99c-2 -5 -3 -10 -3 -12c0 -1 0 -4 4 -5l56 -15l-3 -37h-152zM159 215h156l-68 203c-3 9 -5 19 -5 22h-5zM450 -171
c-36 -33 -75 -41 -95 -41c-45 0 -86 33 -86 91c0 54 49 119 162 154l11 -20c-59 -29 -106 -72 -106 -124c0 -32 21 -51 49 -51c17 0 29 0 54 9z" />
    <glyph glyph-name="Cacute.sc" horiz-adv-x="512" 
d="M38 276c0 114 74 268 270 268c79 0 151 -32 167 -40c1 -9 1 -18 1 -31c0 -45 -4 -84 -12 -114l-60 -7c-12 104 -13 115 -22 121c-13 11 -45 24 -76 24c-113 0 -165 -96 -165 -221c0 -169 100 -236 185 -236c30 0 62 9 67 17c4 7 14 16 24 100l54 -3c5 -24 9 -64 9 -96
c0 -12 -1 -27 -2 -36c-26 -14 -116 -29 -158 -29c-216 0 -282 132 -282 283zM425 714l-8 -21l-201 -93l-25 36l174 129z" />
    <glyph glyph-name="Ccircumflex.sc" horiz-adv-x="512" 
d="M38 276c0 114 74 268 270 268c79 0 151 -32 167 -40c1 -9 1 -18 1 -31c0 -45 -4 -84 -12 -114l-60 -7c-12 104 -13 115 -22 121c-13 11 -45 24 -76 24c-113 0 -165 -96 -165 -221c0 -169 100 -236 185 -236c30 0 62 9 67 17c4 7 14 16 24 100l54 -3c5 -24 9 -64 9 -96
c0 -12 -1 -27 -2 -36c-26 -14 -116 -29 -158 -29c-216 0 -282 132 -282 283zM422 600l-139 91l-139 -91l-25 26l136 139h56l136 -139z" />
    <glyph glyph-name="Ccaron.sc" horiz-adv-x="512" 
d="M38 276c0 114 74 268 270 268c79 0 151 -32 167 -40c1 -9 1 -18 1 -31c0 -45 -4 -84 -12 -114l-60 -7c-12 104 -13 115 -22 121c-13 11 -45 24 -76 24c-113 0 -165 -96 -165 -221c0 -169 100 -236 185 -236c30 0 62 9 67 17c4 7 14 16 24 100l54 -3c5 -24 9 -64 9 -96
c0 -12 -1 -27 -2 -36c-26 -14 -116 -29 -158 -29c-216 0 -282 132 -282 283zM130 768l139 -91l139 91l25 -26l-136 -139h-56l-136 139z" />
    <glyph glyph-name="Dcaron.sc" horiz-adv-x="592" 
d="M53 0l-5 36c58 10 59 18 59 48v369c0 30 -1 38 -59 48l5 36h253c192 0 253 -127 253 -252c0 -135 -73 -285 -271 -285h-235zM200 78c0 -10 1 -17 17 -21c17 -4 45 -10 74 -10c114 0 166 92 166 219c0 175 -98 224 -169 224h-88v-412zM119 768l139 -91l139 91l25 -26
l-136 -139h-56l-136 139z" />
    <glyph glyph-name="Emacron.sc" horiz-adv-x="477" 
d="M53 0l-5 36c58 10 59 18 59 48v369c0 30 -1 38 -59 48l5 36h359c3 -19 5 -54 5 -67c0 -21 -1 -42 -2 -59l-50 -6c-15 73 -18 81 -26 82c-14 1 -26 2 -48 3l-91 2v-200h93c6 0 12 6 25 55l30 -2c0 -87 3 -101 11 -159l-34 -5c-16 56 -19 64 -26 64h-99v-200l59 1
c112 1 100 4 106 5c7 3 15 11 39 96l43 -5c1 -12 1 -27 1 -40c0 -29 -6 -83 -13 -102h-382zM115 650v60h249v-60h-249z" />
    <glyph glyph-name="Ebreve.sc" horiz-adv-x="477" 
d="M53 0l-5 36c58 10 59 18 59 48v369c0 30 -1 38 -59 48l5 36h359c3 -19 5 -54 5 -67c0 -21 -1 -42 -2 -59l-50 -6c-15 73 -18 81 -26 82c-14 1 -26 2 -48 3l-91 2v-200h93c6 0 12 6 25 55l30 -2c0 -87 3 -101 11 -159l-34 -5c-16 56 -19 64 -26 64h-99v-200l59 1
c112 1 100 4 106 5c7 3 15 11 39 96l43 -5c1 -12 1 -27 1 -40c0 -29 -6 -83 -13 -102h-382zM351 751h37c-5 -76 -49 -140 -149 -140s-144 64 -149 140h37c11 -47 47 -72 112 -72s101 25 112 72z" />
    <glyph glyph-name="Eogonek.sc" horiz-adv-x="477" 
d="M53 0l-5 36c58 10 59 18 59 48v369c0 30 -1 38 -59 48l5 36h359c3 -19 5 -54 5 -67c0 -21 -1 -42 -2 -59l-50 -6c-15 73 -18 81 -26 82c-14 1 -26 2 -48 3l-91 2v-200h93c6 0 12 6 25 55l30 -2c0 -87 3 -101 11 -159l-34 -5c-16 56 -19 64 -26 64h-99v-200l59 1
c112 1 100 4 106 5c7 3 15 11 39 96l43 -5c1 -12 1 -27 1 -40c0 -29 -6 -83 -13 -102h-382zM426 -171c-36 -33 -75 -41 -95 -41c-45 0 -86 33 -86 91c0 54 49 119 162 154l11 -20c-59 -29 -106 -72 -106 -124c0 -32 21 -51 49 -51c17 0 29 0 54 9z" />
    <glyph glyph-name="Ecaron.sc" horiz-adv-x="477" 
d="M53 0l-5 36c58 10 59 18 59 48v369c0 30 -1 38 -59 48l5 36h359c3 -19 5 -54 5 -67c0 -21 -1 -42 -2 -59l-50 -6c-15 73 -18 81 -26 82c-14 1 -26 2 -48 3l-91 2v-200h93c6 0 12 6 25 55l30 -2c0 -87 3 -101 11 -159l-34 -5c-16 56 -19 64 -26 64h-99v-200l59 1
c112 1 100 4 106 5c7 3 15 11 39 96l43 -5c1 -12 1 -27 1 -40c0 -29 -6 -83 -13 -102h-382zM110 768l139 -91l139 91l25 -26l-136 -139h-56l-136 139z" />
    <glyph glyph-name="Gcircumflex.sc" horiz-adv-x="560" 
d="M480 15c-69 -15 -136 -22 -180 -22c-197 0 -267 132 -267 283c0 114 78 268 273 268c81 0 153 -26 170 -32v-22c0 -38 -3 -86 -11 -116l-60 -7c-12 99 -12 107 -21 114c-14 11 -47 16 -80 16c-112 0 -168 -89 -168 -221c0 -177 106 -236 181 -236c24 0 55 4 70 9v108
c0 30 -1 38 -59 48l5 30h200l3 -30l-40 -10c-15 -3 -16 -11 -16 -20v-160zM417 600l-139 91l-139 -91l-25 26l136 139h56l136 -139z" />
    <glyph glyph-name="Gbreve.sc" horiz-adv-x="560" 
d="M480 15c-69 -15 -136 -22 -180 -22c-197 0 -267 132 -267 283c0 114 78 268 273 268c81 0 153 -26 170 -32v-22c0 -38 -3 -86 -11 -116l-60 -7c-12 99 -12 107 -21 114c-14 11 -47 16 -80 16c-112 0 -168 -89 -168 -221c0 -177 106 -236 181 -236c24 0 55 4 70 9v108
c0 30 -1 38 -59 48l5 30h200l3 -30l-40 -10c-15 -3 -16 -11 -16 -20v-160zM390 751h37c-5 -76 -49 -140 -149 -140s-144 64 -149 140h37c11 -47 47 -72 112 -72s101 25 112 72z" />
    <glyph glyph-name="Hcircumflex.sc" horiz-adv-x="631" 
d="M53 0l-5 36c58 10 59 18 59 48v375c0 30 -1 32 -59 42l5 36h208l3 -36l-48 -9c-15 -3 -16 -11 -16 -20v-161h231v148c0 30 -1 32 -59 42l5 36h208l3 -36l-48 -9c-15 -3 -16 -11 -16 -20v-407c0 -9 1 -17 16 -20l48 -9l-3 -36h-208l-5 36c58 10 59 18 59 48v175h-231v-194
c0 -9 1 -17 16 -20l48 -9l-3 -36h-208zM447 600l-139 91l-139 -91l-25 26l136 139h56l136 -139z" />
    <glyph glyph-name="Hbar.sc" horiz-adv-x="631" 
d="M53 0l-5 36c58 10 59 18 59 48v375c0 30 -1 32 -59 42l5 36h208l3 -36l-48 -9c-15 -3 -16 -11 -16 -20v-161h231v148c0 30 -1 32 -59 42l5 36h208l3 -36l-48 -9c-15 -3 -16 -11 -16 -20v-407c0 -9 1 -17 16 -20l48 -9l-3 -36h-208l-5 36c58 10 59 18 59 48v175h-231v-194
c0 -9 1 -17 16 -20l48 -9l-3 -36h-208zM54 365v53h522v-53h-522z" />
    <glyph glyph-name="Itilde.sc" horiz-adv-x="307" 
d="M53 0l-5 36c58 10 59 18 59 48v369c0 30 -1 38 -59 48l5 36h208l3 -36l-48 -9c-15 -3 -16 -11 -16 -20v-407c0 -9 1 -17 16 -20l48 -9l-3 -36h-208zM309 742l25 -12c-22 -48 -50 -101 -92 -101c-37 0 -128 27 -174 27c-25 0 -48 -10 -72 -34l-23 16c43 71 70 96 103 96
c42 0 130 -27 170 -27c24 0 41 12 63 35z" />
    <glyph glyph-name="Imacron.sc" horiz-adv-x="307" 
d="M53 0l-5 36c58 10 59 18 59 48v369c0 30 -1 38 -59 48l5 36h208l3 -36l-48 -9c-15 -3 -16 -11 -16 -20v-407c0 -9 1 -17 16 -20l48 -9l-3 -36h-208zM32 650v60h249v-60h-249z" />
    <glyph glyph-name="Ibreve.sc" horiz-adv-x="307" 
d="M53 0l-5 36c58 10 59 18 59 48v369c0 30 -1 38 -59 48l5 36h208l3 -36l-48 -9c-15 -3 -16 -11 -16 -20v-407c0 -9 1 -17 16 -20l48 -9l-3 -36h-208zM264 751h37c-5 -76 -49 -140 -149 -140s-144 64 -149 140h37c11 -47 47 -72 112 -72s101 25 112 72z" />
    <glyph glyph-name="Iogonek.sc" horiz-adv-x="307" 
d="M53 0l-5 36c58 10 59 18 59 48v369c0 30 -1 38 -59 48l5 36h208l3 -36l-48 -9c-15 -3 -16 -11 -16 -20v-407c0 -9 1 -17 16 -20l48 -9l-3 -36h-208zM223 -171c-36 -33 -75 -41 -95 -41c-45 0 -86 33 -86 91c0 54 49 119 162 154l11 -20c-59 -29 -106 -72 -106 -124
c0 -32 21 -51 49 -51c17 0 29 0 54 9z" />
    <glyph glyph-name="Lacute.sc" horiz-adv-x="456" 
d="M53 0l-5 36c58 10 59 18 59 48v369c0 30 -1 38 -59 48l5 36h208l3 -36l-48 -9c-15 -3 -16 -11 -16 -20v-427l62 1c85 1 90 4 95 6c8 2 16 12 36 119l48 -4c1 -13 1 -32 1 -45c0 -48 -5 -92 -8 -122h-381zM303 714l-8 -21l-201 -93l-25 36l174 129z" />
    <glyph glyph-name="Lcaron.sc" horiz-adv-x="456" 
d="M53 0l-5 36c58 10 59 18 59 48v369c0 30 -1 38 -59 48l5 36h208l3 -36l-48 -9c-15 -3 -16 -11 -16 -20v-427l62 1c85 1 90 4 95 6c8 2 16 12 36 119l48 -4c1 -13 1 -32 1 -45c0 -48 -5 -92 -8 -122h-381zM49 768l139 -91l139 91l25 -26l-136 -139h-56l-136 139z" />
    <glyph glyph-name="Ldot.sc" horiz-adv-x="456" 
d="M53 0l-5 36c58 10 59 18 59 48v369c0 30 -1 38 -59 48l5 36h208l3 -36l-48 -9c-15 -3 -16 -11 -16 -20v-427l62 1c85 1 90 4 95 6c8 2 16 12 36 119l48 -4c1 -13 1 -32 1 -45c0 -48 -5 -92 -8 -122h-381zM345 264c-32 0 -58 19 -58 59c0 31 21 56 58 56
c32 0 57 -15 57 -56c0 -32 -21 -59 -57 -59z" />
    <glyph glyph-name="Lslash.sc" horiz-adv-x="456" 
d="M52 165l-28 43l303 200l28 -43zM53 0l-5 36c58 10 59 18 59 48v369c0 30 -1 38 -59 48l5 36h208l3 -36l-48 -9c-15 -3 -16 -11 -16 -20v-427l62 1c85 1 90 4 95 6c8 2 16 12 36 119l48 -4c1 -13 1 -32 1 -45c0 -48 -5 -92 -8 -122h-381z" />
    <glyph glyph-name="Nacute.sc" horiz-adv-x="577" 
d="M36 0l-5 36c58 10 59 18 59 48v369c0 30 -1 38 -59 48l5 36h155l233 -349c9 -13 12 -21 13 -28h6v278c0 45 -8 56 -75 63l5 36h181l3 -36l-48 -9c-15 -3 -15 -11 -15 -20v-472l-53 -4l-281 416c-9 14 -12 21 -13 29h-6v-358c0 -25 7 -37 34 -40l54 -7l-3 -36h-190z
M421 714l-8 -21l-201 -93l-25 36l174 129z" />
    <glyph glyph-name="Ncaron.sc" horiz-adv-x="577" 
d="M36 0l-5 36c58 10 59 18 59 48v369c0 30 -1 38 -59 48l5 36h155l233 -349c9 -13 12 -21 13 -28h6v278c0 45 -8 56 -75 63l5 36h181l3 -36l-48 -9c-15 -3 -15 -11 -15 -20v-472l-53 -4l-281 416c-9 14 -12 21 -13 29h-6v-358c0 -25 7 -37 34 -40l54 -7l-3 -36h-190z
M140 768l139 -91l139 91l25 -26l-136 -139h-56l-136 139z" />
    <glyph glyph-name="Omacron.sc" horiz-adv-x="582" 
d="M33 262c0 168 97 282 264 282c162 0 252 -105 252 -262c0 -173 -96 -289 -264 -289c-162 0 -252 107 -252 269zM298 34c111 0 148 115 148 235c0 132 -53 234 -161 234c-111 0 -149 -113 -149 -228c0 -136 53 -241 162 -241zM159 650v60h249v-60h-249z" />
    <glyph glyph-name="Obreve.sc" horiz-adv-x="582" 
d="M33 262c0 168 97 282 264 282c162 0 252 -105 252 -262c0 -173 -96 -289 -264 -289c-162 0 -252 107 -252 269zM298 34c111 0 148 115 148 235c0 132 -53 234 -161 234c-111 0 -149 -113 -149 -228c0 -136 53 -241 162 -241zM401 751h37c-5 -76 -49 -140 -149 -140
s-144 64 -149 140h37c11 -47 47 -72 112 -72s101 25 112 72z" />
    <glyph glyph-name="Ohungarumlaut.sc" horiz-adv-x="582" 
d="M33 262c0 168 97 282 264 282c162 0 252 -105 252 -262c0 -173 -96 -289 -264 -289c-162 0 -252 107 -252 269zM298 34c111 0 148 115 148 235c0 132 -53 234 -161 234c-111 0 -149 -113 -149 -228c0 -136 53 -241 162 -241zM481 736v-23l-177 -111l-35 25l117 139z
M283 736v-23l-177 -111l-35 25l117 139z" />
    <glyph glyph-name="Racute.sc" horiz-adv-x="530" 
d="M53 0l-5 36c58 10 59 18 59 48v369c0 30 -1 38 -59 48l5 36h232c118 0 166 -51 166 -130c0 -52 -39 -121 -107 -153v-4c4 -1 8 -5 13 -13l100 -169c14 -21 28 -29 67 -32l-5 -36h-131l-140 233h-48v-168c0 -9 1 -17 16 -20l43 -9l-3 -36h-203zM200 278h34
c70 0 118 22 118 120c0 80 -57 92 -98 92h-40c-12 0 -13 -8 -14 -16v-196zM407 714l-8 -21l-201 -93l-25 36l174 129z" />
    <glyph glyph-name="Rcaron.sc" horiz-adv-x="530" 
d="M53 0l-5 36c58 10 59 18 59 48v369c0 30 -1 38 -59 48l5 36h232c118 0 166 -51 166 -130c0 -52 -39 -121 -107 -153v-4c4 -1 8 -5 13 -13l100 -169c14 -21 28 -29 67 -32l-5 -36h-131l-140 233h-48v-168c0 -9 1 -17 16 -20l43 -9l-3 -36h-203zM200 278h34
c70 0 118 22 118 120c0 80 -57 92 -98 92h-40c-12 0 -13 -8 -14 -16v-196zM108 768l139 -91l139 91l25 -26l-136 -139h-56l-136 139z" />
    <glyph glyph-name="Sacute.sc" horiz-adv-x="428" 
d="M366 514c1 -6 1 -12 1 -18c0 -27 -6 -75 -13 -98l-52 -5c-4 63 -11 79 -20 86c-10 9 -40 16 -67 16c-28 0 -48 -7 -62 -18c-10 -7 -26 -24 -26 -52c0 -113 265 -104 265 -279c0 -91 -71 -153 -198 -153c-62 0 -129 15 -151 23c-2 10 -2 21 -2 37c0 43 3 77 9 105l59 5
c9 -90 12 -97 21 -102c11 -7 48 -19 84 -19c29 0 49 7 62 17c17 14 25 38 25 60c0 123 -258 110 -258 276c0 92 80 149 194 149c57 0 108 -18 129 -30zM342 714l-8 -21l-201 -93l-25 36l174 129z" />
    <glyph glyph-name="Scircumflex.sc" horiz-adv-x="428" 
d="M366 514c1 -6 1 -12 1 -18c0 -27 -6 -75 -13 -98l-52 -5c-4 63 -11 79 -20 86c-10 9 -40 16 -67 16c-28 0 -48 -7 -62 -18c-10 -7 -26 -24 -26 -52c0 -113 265 -104 265 -279c0 -91 -71 -153 -198 -153c-62 0 -129 15 -151 23c-2 10 -2 21 -2 37c0 43 3 77 9 105l59 5
c9 -90 12 -97 21 -102c11 -7 48 -19 84 -19c29 0 49 7 62 17c17 14 25 38 25 60c0 123 -258 110 -258 276c0 92 80 149 194 149c57 0 108 -18 129 -30zM351 600l-139 91l-139 -91l-25 26l136 139h56l136 -139z" />
    <glyph glyph-name="Scedilla.sc" horiz-adv-x="428" 
d="M366 514c1 -6 1 -12 1 -18c0 -27 -6 -75 -13 -98l-52 -5c-4 63 -11 79 -20 86c-10 9 -40 16 -67 16c-28 0 -48 -7 -62 -18c-10 -7 -26 -24 -26 -52c0 -113 265 -104 265 -279c0 -91 -71 -153 -198 -153c-62 0 -129 15 -151 23c-2 10 -2 21 -2 37c0 43 3 77 9 105l59 5
c9 -90 12 -97 21 -102c11 -7 48 -19 84 -19c29 0 49 7 62 17c17 14 25 38 25 60c0 123 -258 110 -258 276c0 92 80 149 194 149c57 0 108 -18 129 -30zM148 -89l38 129l49 -13l-32 -113zM153 -217l-4 31c58 8 95 28 95 58c0 20 -15 38 -46 38c-13 0 -30 -4 -41 -10l-9 11
l48 37c16 5 32 7 45 7c54 0 85 -25 85 -64c0 -53 -62 -102 -173 -108z" />
    <glyph glyph-name="Scaron.sc" horiz-adv-x="428" 
d="M366 514c1 -6 1 -12 1 -18c0 -27 -6 -75 -13 -98l-52 -5c-4 63 -11 79 -20 86c-10 9 -40 16 -67 16c-28 0 -48 -7 -62 -18c-10 -7 -26 -24 -26 -52c0 -113 265 -104 265 -279c0 -91 -71 -153 -198 -153c-62 0 -129 15 -151 23c-2 10 -2 21 -2 37c0 43 3 77 9 105l59 5
c9 -90 12 -97 21 -102c11 -7 48 -19 84 -19c29 0 49 7 62 17c17 14 25 38 25 60c0 123 -258 110 -258 276c0 92 80 149 194 149c57 0 108 -18 129 -30zM73 768l139 -91l139 91l25 -26l-136 -139h-56l-136 139z" />
    <glyph glyph-name="Tcaron.sc" horiz-adv-x="467" 
d="M116 36c68 11 71 18 71 48v408h-49c-22 0 -42 -2 -48 -3c-10 -2 -10 -3 -31 -76l-45 5c0 38 4 77 19 119h401c14 -39 17 -78 19 -119l-45 -5c-21 73 -21 74 -32 76c-6 1 -25 3 -47 3h-49v-427c0 -9 1 -17 15 -20l61 -9l-4 -36h-231zM94 768l139 -91l139 91l25 -26
l-136 -139h-56l-136 139z" />
    <glyph glyph-name="Tbar.sc" horiz-adv-x="467" 
d="M116 36c68 11 71 18 71 48v408h-49c-22 0 -42 -2 -48 -3c-10 -2 -10 -3 -31 -76l-45 5c0 38 4 77 19 119h401c14 -39 17 -78 19 -119l-45 -5c-21 73 -21 74 -32 76c-6 1 -25 3 -47 3h-49v-427c0 -9 1 -17 15 -20l61 -9l-4 -36h-231zM24 237v53h414v-53h-414z" />
    <glyph glyph-name="Utilde.sc" horiz-adv-x="603" 
d="M452 439c0 44 -8 55 -75 62l5 36h183l3 -36l-48 -9c-15 -3 -16 -11 -16 -20v-281c0 -119 -71 -198 -197 -198c-136 0 -203 61 -203 192v268c0 30 -1 38 -59 48l5 36h208l3 -36l-48 -9c-15 -3 -16 -11 -16 -20v-278c0 -99 33 -149 124 -149c92 0 131 69 131 137v257z
M459 742l25 -12c-22 -48 -50 -101 -92 -101c-37 0 -128 27 -174 27c-25 0 -48 -10 -72 -34l-23 16c43 71 70 96 103 96c42 0 130 -27 170 -27c24 0 41 12 63 35z" />
    <glyph glyph-name="Umacron.sc" horiz-adv-x="603" 
d="M452 439c0 44 -8 55 -75 62l5 36h183l3 -36l-48 -9c-15 -3 -16 -11 -16 -20v-281c0 -119 -71 -198 -197 -198c-136 0 -203 61 -203 192v268c0 30 -1 38 -59 48l5 36h208l3 -36l-48 -9c-15 -3 -16 -11 -16 -20v-278c0 -99 33 -149 124 -149c92 0 131 69 131 137v257z
M182 650v60h249v-60h-249z" />
    <glyph glyph-name="Ubreve.sc" horiz-adv-x="603" 
d="M452 439c0 44 -8 55 -75 62l5 36h183l3 -36l-48 -9c-15 -3 -16 -11 -16 -20v-281c0 -119 -71 -198 -197 -198c-136 0 -203 61 -203 192v268c0 30 -1 38 -59 48l5 36h208l3 -36l-48 -9c-15 -3 -16 -11 -16 -20v-278c0 -99 33 -149 124 -149c92 0 131 69 131 137v257z
M408 751h37c-5 -76 -49 -140 -149 -140s-144 64 -149 140h37c11 -47 47 -72 112 -72s101 25 112 72z" />
    <glyph glyph-name="Uring.sc" horiz-adv-x="603" 
d="M452 439c0 44 -8 55 -75 62l5 36h183l3 -36l-48 -9c-15 -3 -16 -11 -16 -20v-281c0 -119 -71 -198 -197 -198c-136 0 -203 61 -203 192v268c0 30 -1 38 -59 48l5 36h208l3 -36l-48 -9c-15 -3 -16 -11 -16 -20v-278c0 -99 33 -149 124 -149c92 0 131 69 131 137v257z
M311 590c-52 0 -96 32 -96 88s46 92 101 92c52 0 96 -34 96 -87c0 -55 -46 -93 -101 -93zM311 633c30 0 51 21 51 50c0 27 -19 44 -46 44c-35 0 -52 -20 -52 -49s20 -45 47 -45z" />
    <glyph glyph-name="Uhungarumlaut.sc" horiz-adv-x="603" 
d="M452 439c0 44 -8 55 -75 62l5 36h183l3 -36l-48 -9c-15 -3 -16 -11 -16 -20v-281c0 -119 -71 -198 -197 -198c-136 0 -203 61 -203 192v268c0 30 -1 38 -59 48l5 36h208l3 -36l-48 -9c-15 -3 -16 -11 -16 -20v-278c0 -99 33 -149 124 -149c92 0 131 69 131 137v257z
M517 736v-23l-177 -111l-35 25l117 139zM319 736v-23l-177 -111l-35 25l117 139z" />
    </font>
</defs>
</svg>
